<?xml version="1.0" encoding="UTF-8"?>
<svg width="40.222in" height="28.444in" version="1.1" viewBox="0 0 1021.6 722.48" xmlns="http://www.w3.org/2000/svg" xmlns:cc="http://creativecommons.org/ns#" xmlns:dc="http://purl.org/dc/elements/1.1/" xmlns:rdf="http://www.w3.org/1999/02/22-rdf-syntax-ns#">
 <metadata>
  <rdf:RDF>
   <cc:Work rdf:about="">
    <dc:format>image/svg+xml</dc:format>
    <dc:type rdf:resource="http://purl.org/dc/dcmitype/StillImage"/>
    <dc:title/>
   </cc:Work>
  </rdf:RDF>
 </metadata>
 <defs>
  <clipPath>
   <path d="m2183.6 1608.3v237.68h-502.72v-237.68zm21.721 247.84v321.7h-36.872v-321.7zm137.23-247.84v242.57h349.06v326.97h-26.593v8.6353h-95.25v-8.6353h-349.21v-569.54zm611.65 242.57v326.97h-26.295v8.6353h-93.894v-8.6353h-132.24v-326.97zm-811.04 5.2688v240.28h-3.6138v191.86h-799.03v-432.14zm-3.6138 442.3v245.23h-213.67v-245.23zm477.32 270.63v406.66h-438.35v-394.53h12.622v-12.123h186.58v14.646h31.75v-14.646zm-701.15-270.63v255.39h223.83v433.57h-799.03v-688.95zm498.18 687.44v189.3h-11.322v18.122h-208.92v-18.122h-15.143v-189.3zm202.97 0v207.42h-192.81v-207.42zm-225.68 217.58v416.41h-222.74v-413.5h10.07v-2.9053zm0 426.57v182.87h-222.74v-49.827h-13.662v-99.085h13.662v-33.958zm2777.6-1433.9v1945.3h-871.78v-0.6289h-2128.5v-317.8h232.9v-619.6h225.68v-644.56h-458.58v-34.206h-13.662v-101.6h13.662v-226.46h819.92v-0.4726zm-2515.2 1954.8v192.13l-485.05-5e-4v-192.13zm1571.8 0v413.14h-54.61v148.38h-221.47v-561.52zm0 423.3v138.22h-44.45v-138.22zm-693.42-423.3v653.51h-347.2v-653.51zm-1866.2-2558v244.49h-340.36v1165.1h814.27v1355.7l529.2 5e-4v-201.66h500.66v663.04h377.68v-663.04h386.86v571.05h306.56v-571.05h943.48v-1975.8h-2214.5v-345.3h-611.65v-242.57z"/>
  </clipPath>
  <clipPath>
   <path d="m2764.5 1934.1v140.28h73.822v-10.16h-63.662v-119.96h192.58v-10.16zm-1176.7 130.06v100.33h10.16v-100.33zm70.596-75.213v266.7h-133.35v-189.23h-10.16v199.39h153.67v-276.86zm-166.25 600.44 14.901 2.0715 14.223 4.9046 13.011 7.5534 11.311 9.9192 9.1876 11.913 6.7196 13.46 3.9996 14.503 1.1298 15.002-1.6395 13.741-0.4979-0.1049-3.9252 12.926-6.1103 12.048-8.1096 10.804-9.8624 9.2317-11.316 7.3789-12.425 5.3018-13.157 3.0634-13.489 0.7325-13.411-1.6211-12.926-3.9253-12.048-6.1104-10.804-8.1093-9.2316-9.8626-7.3788-11.316-5.3017-12.425-3.0586-13.132-0.5467-15.018 2.3604-14.858 5.1793-14.125 7.8043-12.862 10.137-11.117 12.089-8.9548 13.588-6.4573 14.578-3.7178zm0.4184-10.152-16.985 0.9485-16.484 4.2038-15.365 7.3018-13.67 10.126-11.462 12.57-8.8249 14.544-5.8567 15.972-2.6689 16.801 0.6194 17.02 3.4703 14.903 5.9968 14.054 8.3462 12.799 10.442 11.155 12.22 9.1729 13.628 6.9111 14.621 4.44 15.17 1.8337 15.257-0.8284 14.882-3.4653 14.054-5.9968 12.799-8.3462 11.155-10.442 9.1727-12.22 6.9114-13.628 4.0672-13.393 0.7103 0.1557 2.0154-16.892-1.2775-16.963-4.5227-16.4-7.5983-15.22-10.389-13.471-12.79-11.216-14.712-8.541-16.082-5.5459zm2625.5 341.93v10.16h204.47v-10.16zm0 107.95v10.16h204.47v-10.16zm-812.15-184.2v295.91h10.16v-295.91zm100.33 0v295.91h10.16v-295.91z"/>
  </clipPath>
  <marker id="Marker0-6-20-15-0-0" fill="#d3d3d3" stroke="#d3d3d3" markerHeight="12" markerWidth="12" orient="auto" refX="11" refY="6" viewBox="0 0 12 12">
   <polygon points="10 6 0 0 0 12"/>
  </marker>
  <marker id="Marker0-6-20-12-7-6" fill="#d3d3d3" stroke="#d3d3d3" markerHeight="12" markerWidth="12" orient="auto" refX="11" refY="6" viewBox="0 0 12 12">
   <polygon points="0 0 0 12 10 6"/>
  </marker>
 </defs>
 <g transform="translate(0 425.48)">
  <flowRoot fill="black" font-family="sans-serif" font-size="40px" letter-spacing="0px" word-spacing="0px" style="line-height:1.25" xml:space="preserve"><flowRegion><rect x="-7071.1" y="-6638.5" width="18738" height="11384"/></flowRegion><flowPara/></flowRoot>
  <flowRoot fill="black" font-family="sans-serif" font-size="40px" letter-spacing="0px" word-spacing="0px" style="line-height:1.25" xml:space="preserve"><flowRegion><rect x="-362.39" y="-451.36" width="4684.6" height="3420.6"/></flowRegion><flowPara/></flowRoot>
  <rect x=".067574" y="-415.11" width="1021.5" height="698.13" opacity="0" stroke-width=".13438" style="paint-order:markers fill stroke"/>
  <g transform="matrix(1.2007 0 0 1.2007 34.203 -415.94)" display="block" opacity=".99">
   <g transform="matrix(.1124 0 0 .1124 674.65 562.56)" display="block">
    <svg width="1200" height="202.21" version="1.1" viewBox="0 0 1199.9794 202.21188">
     <g transform="translate(-.36395 -.17209)" display="inline">
      <path d="m101.4 36.539c-32.979-8.5808-101.04-28.797-101.04-28.797s1.178-0.40615 14.829-3.9466l13.972-3.6236c23.995 6.717 48.239 13.576 72.234 20.293 23.881-6.7048 48.01-13.588 71.891-20.293l28.903 7.5702c-33.876 10.815-73.141 21.049-100.79 28.797zm-43.109 101.6 43.109-10.973 43.108 10.973v17.458l-43.108-12.302-43.109 12.302" fill="#999"/>
     </g>
     <g transform="translate(-.36395 -.17209)" display="inline" opacity="1">
      <path d="m0.36395 194.28v-186.53l101.04 28.797v39.6l-71.255-19.367-0.80409 145.1zm100.98-13.28 0.0588-37.704 43.108 12.302-3e-5 -92.453 28.783-7.4097v146.65z" fill="#0e0a0b"/>
      <g fill-opacity="0">
       <g stroke-width=".39062">
        <path transform="translate(.36395 .17209)" d="m145.92 194.02c-14.287-4.2666-30.266-9.0335-35.509-10.593l-9.5321-2.8357 0.27957-18.37c0.15376-10.103 0.3529-18.443 0.44252-18.533 0.0896-0.0896 9.7025 2.5621 21.362 5.8928l21.199 6.0557 0.39062-91.86 14.062-4.0091c7.7344-2.205 14.106-4.0112 14.16-4.0137 0.0537-0.0025 0.0977 32.866 0.0977 73.042 0 58.195-0.0993 73.04-0.48829 73.014-0.26855-0.0182-12.178-3.5239-26.465-7.7905z"/>
        <path transform="translate(.36395 .17209)" d="m145.92 194.02c-14.287-4.2666-30.266-9.0335-35.509-10.593l-9.5321-2.8357 0.27957-18.37c0.15376-10.103 0.3529-18.443 0.44252-18.533 0.0896-0.0896 9.7025 2.5621 21.362 5.8928l21.199 6.0557 0.39062-91.86 14.062-4.0091c7.7344-2.205 14.106-4.0112 14.16-4.0137 0.0537-0.0025 0.0977 32.866 0.0977 73.042 0 58.195-0.0993 73.04-0.48829 73.014-0.26855-0.0182-12.178-3.5239-26.465-7.7905z"/>
        <path transform="translate(.36395 .17209)" d="m136.55 191.24-35.449-10.588v-37.379l0.82963 0.26331c3.1989 1.0153 41.653 11.899 42.041 11.899 0.38807 0 0.48845-9.4172 0.48845-45.825v-45.825l13.574-3.8452c7.4658-2.1148 13.794-3.9247 14.062-4.0218 0.38951-0.14093 0.48828 14.607 0.48828 72.912 0 40.199-0.13184 73.068-0.29297 73.043-0.16113-0.0249-16.245-4.8101-35.742-10.634z"/>
        <path transform="translate(.36395 .17209)" d="m136.55 191.24-35.449-10.588v-37.379l0.82963 0.26331c3.1989 1.0153 41.653 11.899 42.041 11.899 0.38807 0 0.48845-9.4172 0.48845-45.825v-45.825l13.574-3.8452c7.4658-2.1148 13.794-3.9247 14.062-4.0218 0.38951-0.14093 0.48828 14.607 0.48828 72.912 0 40.199-0.13184 73.068-0.29297 73.043-0.16113-0.0249-16.245-4.8101-35.742-10.634z"/>
        <path transform="translate(.36395 .17209)" d="m136.55 191.24-35.449-10.588v-37.379l0.82963 0.26331c3.1989 1.0153 41.653 11.899 42.041 11.899 0.38807 0 0.48845-9.4172 0.48845-45.825v-45.825l13.574-3.8452c7.4658-2.1148 13.794-3.9247 14.062-4.0218 0.38951-0.14093 0.48828 14.607 0.48828 72.912 0 40.199-0.13184 73.068-0.29297 73.043-0.16113-0.0249-16.245-4.8101-35.742-10.634z"/>
       </g>
       <g stroke-width=".55243">
        <path transform="translate(.36395 .17209)" d="m138.66 191.76c-18.23-5.4496-34.078-10.168-35.217-10.486l-2.0716-0.57766v-18.485c0-10.167 0.18644-18.485 0.41432-18.485 0.22787 2e-4 9.8608 2.6985 21.407 5.9963l20.992 5.9959 0.28248-92.606 2.0685-0.5351c1.1377-0.2943 7.0403-1.8006 13.117-3.3473s11.484-2.9477 12.015-3.1134c0.91735-0.28573 0.96675 3.4266 0.96675 72.656 0 40.127-0.18644 72.944-0.41432 72.926-0.22788-0.0172-15.33-4.4901-33.56-9.9398z"/>
        <path transform="translate(.36395 .17209)" d="m138.66 191.76c-18.23-5.4496-34.078-10.168-35.217-10.486l-2.0716-0.57766v-18.485c0-10.167 0.18644-18.485 0.41432-18.485 0.22787 2e-4 9.8608 2.6985 21.407 5.9963l20.992 5.9959 0.28248-92.606 2.0685-0.5351c1.1377-0.2943 7.0403-1.8006 13.117-3.3473s11.484-2.9477 12.015-3.1134c0.91735-0.28573 0.96675 3.4266 0.96675 72.656 0 40.127-0.18644 72.944-0.41432 72.926-0.22788-0.0172-15.33-4.4901-33.56-9.9398z"/>
        <path transform="translate(.36395 .17209)" d="m138.66 191.76c-18.23-5.4496-34.078-10.168-35.217-10.486l-2.0716-0.57766v-18.485c0-10.167 0.18644-18.485 0.41432-18.485 0.22787 2e-4 9.8608 2.6985 21.407 5.9963l20.992 5.9959 0.28248-92.606 2.0685-0.5351c1.1377-0.2943 7.0403-1.8006 13.117-3.3473s11.484-2.9477 12.015-3.1134c0.91735-0.28573 0.96675 3.4266 0.96675 72.656 0 40.127-0.18644 72.944-0.41432 72.926-0.22788-0.0172-15.33-4.4901-33.56-9.9398z"/>
        <path transform="translate(.36395 .17209)" d="m13.862 197.53c-7.2659-1.9423-13.295-3.6157-13.398-3.7186-0.10296-0.10296-0.12433-41.951-0.047482-92.996l0.13972-92.809 49.865 14.189c27.426 7.8041 49.988 14.313 50.14 14.465 0.15146 0.15146 0.21001 8.9661 0.13011 19.588l-0.14527 19.313-35.28-9.5897c-19.404-5.2743-35.383-9.4866-35.509-9.3605-0.12605 0.12605-0.40861 32.639-0.62791 72.252-0.35108 63.417-0.49774 72.033-1.2274 72.11-0.45575 0.0482-6.7735-1.5016-14.039-3.4439z"/>
        <path transform="translate(.36395 .17209)" d="m13.862 197.53c-7.2659-1.9423-13.295-3.6157-13.398-3.7186-0.10296-0.10296-0.12433-41.951-0.047482-92.996l0.13972-92.809 49.865 14.189c27.426 7.8041 49.988 14.313 50.14 14.465 0.15146 0.15146 0.21001 8.9661 0.13011 19.588l-0.14527 19.313-35.28-9.5897c-19.404-5.2743-35.383-9.4866-35.509-9.3605-0.12605 0.12605-0.40861 32.639-0.62791 72.252-0.35108 63.417-0.49774 72.033-1.2274 72.11-0.45575 0.0482-6.7735-1.5016-14.039-3.4439z"/>
        <path transform="translate(.36395 .17209)" d="m13.862 197.53c-7.2659-1.9423-13.295-3.6157-13.398-3.7186-0.10296-0.10296-0.12433-41.951-0.047482-92.996l0.13972-92.809 49.865 14.189c27.426 7.8041 49.988 14.313 50.14 14.465 0.15146 0.15146 0.21001 8.9661 0.13011 19.588l-0.14527 19.313-35.28-9.5897c-19.404-5.2743-35.383-9.4866-35.509-9.3605-0.12605 0.12605-0.40861 32.639-0.62791 72.252-0.35108 63.417-0.49774 72.033-1.2274 72.11-0.45575 0.0482-6.7735-1.5016-14.039-3.4439z"/>
        <path transform="translate(.36395 .17209)" d="m13.862 197.53c-7.2659-1.9423-13.295-3.6157-13.398-3.7186-0.10296-0.10296-0.12433-41.951-0.047482-92.996l0.13972-92.809 49.865 14.189c27.426 7.8041 49.988 14.313 50.14 14.465 0.15146 0.15146 0.21001 8.9661 0.13011 19.588l-0.14527 19.313-35.28-9.5897c-19.404-5.2743-35.383-9.4866-35.509-9.3605-0.12605 0.12605-0.40861 32.639-0.62791 72.252-0.35108 63.417-0.49774 72.033-1.2274 72.11-0.45575 0.0482-6.7735-1.5016-14.039-3.4439z"/>
        <path transform="translate(.36395 .17209)" d="m138.32 191.67c-18.23-5.4486-34.078-10.165-35.217-10.481l-2.0716-0.57411v-18.485c0-10.167 0.18644-18.483 0.41432-18.48 0.22787 3e-3 9.8608 2.6902 21.407 5.9718l20.992 5.9666 0.28244-92.37 13.669-3.4998c7.5182-1.9249 13.98-3.6187 14.36-3.7639 0.55028-0.21052 0.69054 14.559 0.69054 72.715 0 58.035-0.14141 72.972-0.69054 72.943-0.37979-0.0202-15.606-4.4947-33.836-9.9433z"/>
        <path transform="translate(.36395 .17209)" d="m138.32 191.67c-18.23-5.4486-34.078-10.165-35.217-10.481l-2.0716-0.57411v-18.485c0-10.167 0.18644-18.483 0.41432-18.48 0.22787 3e-3 9.8608 2.6902 21.407 5.9718l20.992 5.9666 0.28244-92.37 13.669-3.4998c7.5182-1.9249 13.98-3.6187 14.36-3.7639 0.55028-0.21052 0.69054 14.559 0.69054 72.715 0 58.035-0.14141 72.972-0.69054 72.943-0.37979-0.0202-15.606-4.4947-33.836-9.9433z"/>
        <path transform="translate(.36395 .17209)" d="m13.746 197.52-12.982-3.4363-0.13971-92.893c-0.10453-69.498 0.019629-92.893 0.49298-92.893 0.34798 0 22.971 6.3712 50.272 14.158l49.64 14.158v19.577c0 18.392-0.0585 19.559-0.96675 19.273-5.687-1.7911-70.066-18.967-70.283-18.751-0.23719 0.23706-0.57639 42.964-1.0618 133.75-0.05222 9.766-0.13579 10.629-1.0236 10.565-0.53171-0.0381-6.8087-1.6156-13.949-3.5056z"/>
        <path transform="translate(.36395 .17209)" d="m13.746 197.52-12.982-3.4363-0.13971-92.893c-0.10453-69.498 0.019629-92.893 0.49298-92.893 0.34798 0 22.971 6.3712 50.272 14.158l49.64 14.158v19.577c0 18.392-0.0585 19.559-0.96675 19.273-5.687-1.7911-70.066-18.967-70.283-18.751-0.23719 0.23706-0.57639 42.964-1.0618 133.75-0.05222 9.766-0.13579 10.629-1.0236 10.565-0.53171-0.0381-6.8087-1.6156-13.949-3.5056z"/>
        <path transform="translate(.36395 .17209)" d="m13.746 197.52-12.982-3.4363-0.13971-92.893c-0.10453-69.498 0.019629-92.893 0.49298-92.893 0.34798 0 22.971 6.3712 50.272 14.158l49.64 14.158v19.577c0 18.392-0.0585 19.559-0.96675 19.273-5.687-1.7911-70.066-18.967-70.283-18.751-0.23719 0.23706-0.57639 42.964-1.0618 133.75-0.05222 9.766-0.13579 10.629-1.0236 10.565-0.53171-0.0381-6.8087-1.6156-13.949-3.5056z"/>
        <path transform="translate(.36395 .17209)" d="m13.746 197.52-12.982-3.4363-0.13971-92.893c-0.10453-69.498 0.019629-92.893 0.49298-92.893 0.34798 0 22.971 6.3712 50.272 14.158l49.64 14.158v19.577c0 18.392-0.0585 19.559-0.96675 19.273-5.687-1.7911-70.066-18.967-70.283-18.751-0.23719 0.23706-0.57639 42.964-1.0618 133.75-0.05222 9.766-0.13579 10.629-1.0236 10.565-0.53171-0.0381-6.8087-1.6156-13.949-3.5056z"/>
        <path transform="translate(.36395 .17209)" d="m13.746 197.52-12.982-3.4363-0.13971-92.893c-0.10453-69.498 0.019629-92.893 0.49298-92.893 0.34798 0 22.971 6.3712 50.272 14.158l49.64 14.158v19.577c0 18.392-0.0585 19.559-0.96675 19.273-5.687-1.7911-70.066-18.967-70.283-18.751-0.23719 0.23706-0.57639 42.964-1.0618 133.75-0.05222 9.766-0.13579 10.629-1.0236 10.565-0.53171-0.0381-6.8087-1.6156-13.949-3.5056z"/>
        <path transform="translate(.36395 .17209)" d="m13.746 197.52-12.982-3.4363-0.13971-92.893c-0.10453-69.498 0.019629-92.893 0.49298-92.893 0.34798 0 22.971 6.3712 50.272 14.158l49.64 14.158v19.577c0 18.392-0.0585 19.559-0.96675 19.273-5.687-1.7911-70.066-18.967-70.283-18.751-0.23719 0.23706-0.57639 42.964-1.0618 133.75-0.05222 9.766-0.13579 10.629-1.0236 10.565-0.53171-0.0381-6.8087-1.6156-13.949-3.5056z"/>
        <path transform="translate(.36395 .17209)" d="m13.746 197.52-12.982-3.4363-0.13971-92.893c-0.10453-69.498 0.019629-92.893 0.49298-92.893 0.34798 0 22.971 6.3712 50.272 14.158l49.64 14.158v19.577c0 18.392-0.0585 19.559-0.96675 19.273-5.687-1.7911-70.066-18.967-70.283-18.751-0.23719 0.23706-0.57639 42.964-1.0618 133.75-0.05222 9.766-0.13579 10.629-1.0236 10.565-0.53171-0.0381-6.8087-1.6156-13.949-3.5056z"/>
        <path transform="translate(.36395 .17209)" d="m13.746 197.52-12.982-3.4363-0.13971-92.893c-0.10453-69.498 0.019629-92.893 0.49298-92.893 0.34798 0 22.971 6.3712 50.272 14.158l49.64 14.158v19.577c0 18.392-0.0585 19.559-0.96675 19.273-5.687-1.7911-70.066-18.967-70.283-18.751-0.23719 0.23706-0.57639 42.964-1.0618 133.75-0.05222 9.766-0.13579 10.629-1.0236 10.565-0.53171-0.0381-6.8087-1.6156-13.949-3.5056z"/>
       </g>
      </g>
     </g>
     <g transform="translate(-.36395 -.17209)" display="inline" opacity="1">
      <path d="m856.34 128.65v-65.5h27l0.0153 6.75c0.0879 9.9565-0.84756 11.501 2.6502 7.1952 0.95132-1.1773 2.5092-3.2412 4.0105-4.8161 4.7229-7.494 17.02-12.816 28.733-11.728 17.142 1.5932 27.621 11.281 32.745 30.274 2.8579 10.592 3.1152 35.564 0.46608 45.229-3.7234 13.583-9.2171 21.284-18.384 25.768-4.8704 2.3828-7.23 2.8507-16.019 3.176-9.8925 0.36619-10.563 0.25583-16.649-2.7403-6.1546-3.0299-9.3078-7.3029-13.195-11.926-4.2588-5.0656-3.8288-5.0567-3.7665-1.6-0.33385 0.86998-0.60699 11.445-0.60699 23.5l1e-5 21.918h-27zm54.03 14.4c6.3471-1.3612 11.268-5.4937 13.499-11.337 1.3475-3.5284 1.5906-7.1325 1.2953-19.203-0.40349-16.491-1.6194-20.485-7.8259-25.708-8.8283-7.4286-25.418-5.1441-31.298 4.3098-2.0612 3.3139-2.2006 4.7131-2.2006 22.083 0 15.894 0.24721 18.922 1.7294 21.183 2.6841 4.0948 8.1144 7.7527 12.908 8.6949 6.1143 1.2018 6.1807 1.2017 11.892-0.0232zm-471.66 21.011c-6.4448-1.8678-12.665-7.1067-15.842-13.343-2.7112-5.3214-3.0207-6.8665-3.0051-15 0.0157-8.1674 0.31345-9.6056 3-14.488 6.3544-11.548 17.079-16.098 39.483-16.75 19.723-0.57427 19-0.34238 18.998-6.098-6e-3 -17.387-21.855-23.156-36.802-9.7174l-5.0317 4.5239-7.5822-6.6921c-4.1702-3.6807-7.5822-7.2238-7.5822-7.8737 0-1.9645 10.187-10.924 15.122-13.3 7.7707-3.7416 18.123-5.4414 29.466-4.8382 20.688 1.1001 32.485 8.1273 38.054 22.667 1.4245 3.7196 1.7894 8.9221 2.1038 30 0.42113 28.231 0.3635 28 6.9798 28h3.3427l-0.56766 21.5-8.5 0.30427c-4.675 0.16734-9.9894 0.0294-11.81-0.30651-4.3813-0.80854-10.784-6.7149-12.265-11.314-2.26-7.0195-3.9406-7.4768-6.3434-1.7261-2.374 5.6819-8.259 11.277-14.197 13.499-5.9036 2.2088-20.867 2.737-27.02 0.95371zm35.556-19.517c5.416-3.1885 7.0792-7.001 7.0792-16.227 0-10.241-0.57911-10.665-13.502-9.8941-15.254 0.91007-20.498 4.5724-20.498 14.315 0 7.1349 1.6435 10.332 6.4796 12.605 5.1368 2.4144 15.683 2.0022 20.441-0.79895zm229.89 19.189c-16.361-4.6912-26.686-15.567-30.931-32.583-1.7519-7.0212-1.73-26.786 0.0376-34 5.0955-20.795 18.484-33.282 38.831-36.217 9.7467-1.406 21.471-0.10133 29.031 3.2307 17.128 7.5486 26.205 23.268 26.557 45.986l0.1624 10.5-67 1-0.34655 2.456c-0.51332 3.6379 1.5395 9.5256 4.5818 13.141 4.2091 5.0022 9.4239 6.8588 19.265 6.8588 9.6576 0 14.544-1.7022 21.687-7.5558 2.3661-1.9388 4.6951-3.2821 5.1756-2.9852 2.5304 1.5639 12.253 14.744 11.968 16.224-0.48249 2.5054-11.54 9.7219-18.943 12.362-5.288 1.8862-8.8856 2.3344-20.888 2.6021-10.033 0.22376-15.944-0.0907-19.187-1.0206zm33.253-58.618c3.4393-1.8407 2.1818-11.799-2.3029-18.237-5.4986-7.8942-20.263-8.9124-28.118-1.9392-5.3052 4.7097-8.5389 18.009-4.8949 20.132 2.3229 1.353 32.799 1.3917 35.316 0.0449zm261.75 58.565c-21.224-5.8456-31.813-22.331-31.813-49.53 0-18.171 4.4945-31.151 14.2-41.011 13.395-13.608 38.412-16.867 57.472-7.4866 11.65 5.7336 19.019 15.501 23.005 30.498 2.1277 8.0041 2.355 27.088 0.4168 35-4.2123 17.195-14.707 28.32-30.628 32.467-7.1883 1.8723-25.952 1.9086-32.652 0.0631zm24.485-20.881c4.2741-1.7858 9.3369-7.6714 10.642-12.372 1.3369-4.8144 1.3687-29.626 0.044-34.395-2.5373-9.1344-9.2881-14.219-18.866-14.211-8.3373 0.0077-13.465 3.2809-17.746 11.328-1.5844 2.9784-1.8626 5.8098-1.8669 19-0.01 20.47 1.8161 25.499 10.995 30.338 3.7097 1.9557 12.473 2.1177 16.798 0.31059zm-753.06-39.37 0.25788-59.779 30.301-0.55102 16.232 31.276c8.9277 17.202 16.678 31.838 17.222 32.526 0.54443 0.6875 1.5664 1.25 2.2712 1.25s8.5786-14.062 17.498-31.25c8.9189-17.188 16.677-31.824 17.24-32.526 0.76524-0.9535 4.7148-1.2062 15.63-1l14.606 0.27591 0.51574 119.5h-26.244l0.36393-38.166c0.44091-46.238 0.62436-45.7-8.6393-25.334-5.7369 12.613-30.335 58.515-31.333 58.47-1.0636-0.0484-25.729-46.287-31.857-59.72-5.1466-11.282-7.4297-14.232-8.5121-11-0.23023 0.6875-0.048 8.45 0.40497 17.25s0.70569 25.45 0.56161 37l-0.26197 21-26.516 0.55816zm286.47 58.299c-6.6622-1.7916-11.692-6.1299-15.213-13.121l-3-5.9566-1-57-14-1-0.56766-21.5 3.2838-0.0056c4.9686-0.0084 10.262-1.7609 12.384-4.0999 1.4512-1.5997 2.018-4.137 2.3999-10.744l0.5-8.6501 24.5-0.56156v10.996c0 13.189-0.11768 13.066 12.468 13.066h8.5996l-0.56766 21.5-20 1-0.26742 26.5c-0.24245 24.027-0.10794 26.617 1.4411 27.75 1.0216 0.74742 4.8482 1.25 9.5174 1.25h7.8089v22l-11.75-0.0675c-6.4625-0.0371-13.904-0.64673-16.537-1.3547zm73.766-0.37924c-7.464-2.5809-11.039-5.6021-14.167-11.973l-2.8117-5.7259-0.25949-27c-0.14273-14.85-0.48366-27.992-0.75763-29.204-0.44438-1.9666-1.2258-2.2364-7.2405-2.5l-6.7424-0.29552-0.2824-10.609-0.28239-10.609 5.6376-0.66258c3.1007-0.36442 6.5283-1.1393 7.6171-1.722 3.0352-1.6244 4.8102-7.1101 4.8102-14.866v-7.0321h24v10.429c0 13.408 0.14508 13.571 12.071 13.571h8.9286v22h-9.4648c-8.3341 0-9.5885 0.23107-10.5 1.9343-0.63275 1.1823-1.0352 11.456-1.0352 26.429 0 20.934 0.2284 24.723 1.5714 26.066 1.18 1.18 3.671 1.5714 10 1.5714h8.4286v22l-12.25-0.0326c-8.9654-0.0239-13.596-0.49815-17.271-1.7688zm152.52-48.17v-50.028h28v8.5733c0 10.155 1.0234 10.645 6.1718 2.9558 4.8197-7.1985 11.277-10.876 19.959-11.367l6.8694-0.38815v21.86l-9.3865 1.0984c-11.841 1.3856-18.38 4.5923-21.955 10.767-0.78076 1.3482-1.3211 12.428-1.6582 34l-0.5 32-27.5 0.55644zm296-0.0282v-50h27v7.3089c0 4.6133 0.5057 8.0005 1.3712 9.1841 1.2849 1.7572 1.5445 1.5961 4.1236-2.5589 4.1536-6.6917 6.5207-8.9703 12.005-11.557 3.4299-1.6175 6.8056-2.361 10.75-2.3677l5.75-0.0098v21.742l-7.25 0.67415c-10.806 1.0048-16.806 3.0036-20.395 6.7938-5.9084 6.2404-5.8288 5.7309-6.1807 39.541l-0.3254 31.25h-26.849zm89.668 48.566c-8.7726-2.3579-14.722-8.6497-17.14-18.128-1.3112-5.1386-1.5072-13.515-1.2871-55l0.2596-48.938 24.5-0.56156v10.459c0 13.935-0.064 13.875 14.157 13.437l10.846-0.33434v11.5l1e-4 11.5h-21.503l-0.2674 26.5c-0.2425 24.027-0.108 26.617 1.4411 27.75 1.0216 0.74742 4.8482 1.25 9.5174 1.25h7.8089v22l-11.75-0.0675c-6.4625-0.0371-13.925-0.65199-16.582-1.3664z" fill="#212221"/>
      <g fill-opacity="0">
       <g stroke-width=".39062">
        <path transform="translate(.36395 .17209)" d="m145.92 194.02c-14.287-4.2666-30.266-9.0335-35.509-10.593l-9.5321-2.8357 0.27957-18.37c0.15376-10.103 0.3529-18.443 0.44252-18.533 0.0896-0.0896 9.7025 2.5621 21.362 5.8928l21.199 6.0557 0.39062-91.86 14.062-4.0091c7.7344-2.205 14.106-4.0112 14.16-4.0137 0.0537-0.0025 0.0977 32.866 0.0977 73.042 0 58.195-0.0993 73.04-0.48829 73.014-0.26855-0.0182-12.178-3.5239-26.465-7.7905z"/>
        <path transform="translate(.36395 .17209)" d="m145.92 194.02c-14.287-4.2666-30.266-9.0335-35.509-10.593l-9.5321-2.8357 0.27957-18.37c0.15376-10.103 0.3529-18.443 0.44252-18.533 0.0896-0.0896 9.7025 2.5621 21.362 5.8928l21.199 6.0557 0.39062-91.86 14.062-4.0091c7.7344-2.205 14.106-4.0112 14.16-4.0137 0.0537-0.0025 0.0977 32.866 0.0977 73.042 0 58.195-0.0993 73.04-0.48829 73.014-0.26855-0.0182-12.178-3.5239-26.465-7.7905z"/>
        <path transform="translate(.36395 .17209)" d="m136.55 191.24-35.449-10.588v-37.379l0.82963 0.26331c3.1989 1.0153 41.653 11.899 42.041 11.899 0.38807 0 0.48845-9.4172 0.48845-45.825v-45.825l13.574-3.8452c7.4658-2.1148 13.794-3.9247 14.062-4.0218 0.38951-0.14093 0.48828 14.607 0.48828 72.912 0 40.199-0.13184 73.068-0.29297 73.043-0.16113-0.0249-16.245-4.8101-35.742-10.634z"/>
        <path transform="translate(.36395 .17209)" d="m136.55 191.24-35.449-10.588v-37.379l0.82963 0.26331c3.1989 1.0153 41.653 11.899 42.041 11.899 0.38807 0 0.48845-9.4172 0.48845-45.825v-45.825l13.574-3.8452c7.4658-2.1148 13.794-3.9247 14.062-4.0218 0.38951-0.14093 0.48828 14.607 0.48828 72.912 0 40.199-0.13184 73.068-0.29297 73.043-0.16113-0.0249-16.245-4.8101-35.742-10.634z"/>
        <path transform="translate(.36395 .17209)" d="m136.55 191.24-35.449-10.588v-37.379l0.82963 0.26331c3.1989 1.0153 41.653 11.899 42.041 11.899 0.38807 0 0.48845-9.4172 0.48845-45.825v-45.825l13.574-3.8452c7.4658-2.1148 13.794-3.9247 14.062-4.0218 0.38951-0.14093 0.48828 14.607 0.48828 72.912 0 40.199-0.13184 73.068-0.29297 73.043-0.16113-0.0249-16.245-4.8101-35.742-10.634z"/>
       </g>
       <g stroke-width=".55243">
        <path transform="translate(.36395 .17209)" d="m138.66 191.76c-18.23-5.4496-34.078-10.168-35.217-10.486l-2.0716-0.57766v-18.485c0-10.167 0.18644-18.485 0.41432-18.485 0.22787 2e-4 9.8608 2.6985 21.407 5.9963l20.992 5.9959 0.28248-92.606 2.0685-0.5351c1.1377-0.2943 7.0403-1.8006 13.117-3.3473s11.484-2.9477 12.015-3.1134c0.91735-0.28573 0.96675 3.4266 0.96675 72.656 0 40.127-0.18644 72.944-0.41432 72.926-0.22788-0.0172-15.33-4.4901-33.56-9.9398z"/>
        <path transform="translate(.36395 .17209)" d="m138.66 191.76c-18.23-5.4496-34.078-10.168-35.217-10.486l-2.0716-0.57766v-18.485c0-10.167 0.18644-18.485 0.41432-18.485 0.22787 2e-4 9.8608 2.6985 21.407 5.9963l20.992 5.9959 0.28248-92.606 2.0685-0.5351c1.1377-0.2943 7.0403-1.8006 13.117-3.3473s11.484-2.9477 12.015-3.1134c0.91735-0.28573 0.96675 3.4266 0.96675 72.656 0 40.127-0.18644 72.944-0.41432 72.926-0.22788-0.0172-15.33-4.4901-33.56-9.9398z"/>
        <path transform="translate(.36395 .17209)" d="m138.66 191.76c-18.23-5.4496-34.078-10.168-35.217-10.486l-2.0716-0.57766v-18.485c0-10.167 0.18644-18.485 0.41432-18.485 0.22787 2e-4 9.8608 2.6985 21.407 5.9963l20.992 5.9959 0.28248-92.606 2.0685-0.5351c1.1377-0.2943 7.0403-1.8006 13.117-3.3473s11.484-2.9477 12.015-3.1134c0.91735-0.28573 0.96675 3.4266 0.96675 72.656 0 40.127-0.18644 72.944-0.41432 72.926-0.22788-0.0172-15.33-4.4901-33.56-9.9398z"/>
        <path transform="translate(.36395 .17209)" d="m13.862 197.53c-7.2659-1.9423-13.295-3.6157-13.398-3.7186-0.10296-0.10296-0.12433-41.951-0.047482-92.996l0.13972-92.809 49.865 14.189c27.426 7.8041 49.988 14.313 50.14 14.465 0.15146 0.15146 0.21001 8.9661 0.13011 19.588l-0.14527 19.313-35.28-9.5897c-19.404-5.2743-35.383-9.4866-35.509-9.3605-0.12605 0.12605-0.40861 32.639-0.62791 72.252-0.35108 63.417-0.49774 72.033-1.2274 72.11-0.45575 0.0482-6.7735-1.5016-14.039-3.4439z"/>
        <path transform="translate(.36395 .17209)" d="m13.862 197.53c-7.2659-1.9423-13.295-3.6157-13.398-3.7186-0.10296-0.10296-0.12433-41.951-0.047482-92.996l0.13972-92.809 49.865 14.189c27.426 7.8041 49.988 14.313 50.14 14.465 0.15146 0.15146 0.21001 8.9661 0.13011 19.588l-0.14527 19.313-35.28-9.5897c-19.404-5.2743-35.383-9.4866-35.509-9.3605-0.12605 0.12605-0.40861 32.639-0.62791 72.252-0.35108 63.417-0.49774 72.033-1.2274 72.11-0.45575 0.0482-6.7735-1.5016-14.039-3.4439z"/>
        <path transform="translate(.36395 .17209)" d="m13.862 197.53c-7.2659-1.9423-13.295-3.6157-13.398-3.7186-0.10296-0.10296-0.12433-41.951-0.047482-92.996l0.13972-92.809 49.865 14.189c27.426 7.8041 49.988 14.313 50.14 14.465 0.15146 0.15146 0.21001 8.9661 0.13011 19.588l-0.14527 19.313-35.28-9.5897c-19.404-5.2743-35.383-9.4866-35.509-9.3605-0.12605 0.12605-0.40861 32.639-0.62791 72.252-0.35108 63.417-0.49774 72.033-1.2274 72.11-0.45575 0.0482-6.7735-1.5016-14.039-3.4439z"/>
        <path transform="translate(.36395 .17209)" d="m13.862 197.53c-7.2659-1.9423-13.295-3.6157-13.398-3.7186-0.10296-0.10296-0.12433-41.951-0.047482-92.996l0.13972-92.809 49.865 14.189c27.426 7.8041 49.988 14.313 50.14 14.465 0.15146 0.15146 0.21001 8.9661 0.13011 19.588l-0.14527 19.313-35.28-9.5897c-19.404-5.2743-35.383-9.4866-35.509-9.3605-0.12605 0.12605-0.40861 32.639-0.62791 72.252-0.35108 63.417-0.49774 72.033-1.2274 72.11-0.45575 0.0482-6.7735-1.5016-14.039-3.4439z"/>
        <path transform="translate(.36395 .17209)" d="m138.32 191.67c-18.23-5.4486-34.078-10.165-35.217-10.481l-2.0716-0.57411v-18.485c0-10.167 0.18644-18.483 0.41432-18.48 0.22787 3e-3 9.8608 2.6902 21.407 5.9718l20.992 5.9666 0.28244-92.37 13.669-3.4998c7.5182-1.9249 13.98-3.6187 14.36-3.7639 0.55028-0.21052 0.69054 14.559 0.69054 72.715 0 58.035-0.14141 72.972-0.69054 72.943-0.37979-0.0202-15.606-4.4947-33.836-9.9433z"/>
        <path transform="translate(.36395 .17209)" d="m138.32 191.67c-18.23-5.4486-34.078-10.165-35.217-10.481l-2.0716-0.57411v-18.485c0-10.167 0.18644-18.483 0.41432-18.48 0.22787 3e-3 9.8608 2.6902 21.407 5.9718l20.992 5.9666 0.28244-92.37 13.669-3.4998c7.5182-1.9249 13.98-3.6187 14.36-3.7639 0.55028-0.21052 0.69054 14.559 0.69054 72.715 0 58.035-0.14141 72.972-0.69054 72.943-0.37979-0.0202-15.606-4.4947-33.836-9.9433z"/>
        <path transform="translate(.36395 .17209)" d="m13.746 197.52-12.982-3.4363-0.13971-92.893c-0.10453-69.498 0.019629-92.893 0.49298-92.893 0.34798 0 22.971 6.3712 50.272 14.158l49.64 14.158v19.577c0 18.392-0.0585 19.559-0.96675 19.273-5.687-1.7911-70.066-18.967-70.283-18.751-0.23719 0.23706-0.57639 42.964-1.0618 133.75-0.05222 9.766-0.13579 10.629-1.0236 10.565-0.53171-0.0381-6.8087-1.6156-13.949-3.5056z"/>
        <path transform="translate(.36395 .17209)" d="m13.746 197.52-12.982-3.4363-0.13971-92.893c-0.10453-69.498 0.019629-92.893 0.49298-92.893 0.34798 0 22.971 6.3712 50.272 14.158l49.64 14.158v19.577c0 18.392-0.0585 19.559-0.96675 19.273-5.687-1.7911-70.066-18.967-70.283-18.751-0.23719 0.23706-0.57639 42.964-1.0618 133.75-0.05222 9.766-0.13579 10.629-1.0236 10.565-0.53171-0.0381-6.8087-1.6156-13.949-3.5056z"/>
        <path transform="translate(.36395 .17209)" d="m13.746 197.52-12.982-3.4363-0.13971-92.893c-0.10453-69.498 0.019629-92.893 0.49298-92.893 0.34798 0 22.971 6.3712 50.272 14.158l49.64 14.158v19.577c0 18.392-0.0585 19.559-0.96675 19.273-5.687-1.7911-70.066-18.967-70.283-18.751-0.23719 0.23706-0.57639 42.964-1.0618 133.75-0.05222 9.766-0.13579 10.629-1.0236 10.565-0.53171-0.0381-6.8087-1.6156-13.949-3.5056z"/>
        <path transform="translate(.36395 .17209)" d="m13.746 197.52-12.982-3.4363-0.13971-92.893c-0.10453-69.498 0.019629-92.893 0.49298-92.893 0.34798 0 22.971 6.3712 50.272 14.158l49.64 14.158v19.577c0 18.392-0.0585 19.559-0.96675 19.273-5.687-1.7911-70.066-18.967-70.283-18.751-0.23719 0.23706-0.57639 42.964-1.0618 133.75-0.05222 9.766-0.13579 10.629-1.0236 10.565-0.53171-0.0381-6.8087-1.6156-13.949-3.5056z"/>
        <path transform="translate(.36395 .17209)" d="m13.746 197.52-12.982-3.4363-0.13971-92.893c-0.10453-69.498 0.019629-92.893 0.49298-92.893 0.34798 0 22.971 6.3712 50.272 14.158l49.64 14.158v19.577c0 18.392-0.0585 19.559-0.96675 19.273-5.687-1.7911-70.066-18.967-70.283-18.751-0.23719 0.23706-0.57639 42.964-1.0618 133.75-0.05222 9.766-0.13579 10.629-1.0236 10.565-0.53171-0.0381-6.8087-1.6156-13.949-3.5056z"/>
        <path transform="translate(.36395 .17209)" d="m13.746 197.52-12.982-3.4363-0.13971-92.893c-0.10453-69.498 0.019629-92.893 0.49298-92.893 0.34798 0 22.971 6.3712 50.272 14.158l49.64 14.158v19.577c0 18.392-0.0585 19.559-0.96675 19.273-5.687-1.7911-70.066-18.967-70.283-18.751-0.23719 0.23706-0.57639 42.964-1.0618 133.75-0.05222 9.766-0.13579 10.629-1.0236 10.565-0.53171-0.0381-6.8087-1.6156-13.949-3.5056z"/>
        <path transform="translate(.36395 .17209)" d="m13.746 197.52-12.982-3.4363-0.13971-92.893c-0.10453-69.498 0.019629-92.893 0.49298-92.893 0.34798 0 22.971 6.3712 50.272 14.158l49.64 14.158v19.577c0 18.392-0.0585 19.559-0.96675 19.273-5.687-1.7911-70.066-18.967-70.283-18.751-0.23719 0.23706-0.57639 42.964-1.0618 133.75-0.05222 9.766-0.13579 10.629-1.0236 10.565-0.53171-0.0381-6.8087-1.6156-13.949-3.5056z"/>
        <path transform="translate(.36395 .17209)" d="m13.746 197.52-12.982-3.4363-0.13971-92.893c-0.10453-69.498 0.019629-92.893 0.49298-92.893 0.34798 0 22.971 6.3712 50.272 14.158l49.64 14.158v19.577c0 18.392-0.0585 19.559-0.96675 19.273-5.687-1.7911-70.066-18.967-70.283-18.751-0.23719 0.23706-0.57639 42.964-1.0618 133.75-0.05222 9.766-0.13579 10.629-1.0236 10.565-0.53171-0.0381-6.8087-1.6156-13.949-3.5056z"/>
       </g>
      </g>
     </g>
     <g transform="translate(-.36395 -.17209)" display="inline">
      <path d="m58.29 155.59 43.109-12.302-0.0588 37.704-72 20.878 0.80409-145.1 28.146 7.0353m43.109-27.268 100.79-28.797v186.52l-28.903 8.1223v-146.65l-71.891 20.408" fill="#6d6e6e"/>
     </g>
     <desc>Created with Snap</desc>
    </svg>
   </g>
   <g transform="translate(400 576.59)" display="block" font-family="Verdana" font-size="6.2815px" text-anchor="middle">
    <text/>
    <text/>
    <text/>
    <text/>
    <text/>
   </g>
  </g>
  <rect y="296.73" width="3.1367" height=".26922" fill="#fff"/>
  <text x="417.77405" y="286.34369" fill="#aaaaaa" font-family="Verdana" font-size="4.8962px" stroke-width=".81845"><tspan font-size="5.6444px" stroke-width=".81845">SIZES AND DIMENSIONS ARE APPROXIMATE, ACTUAL MAY VARY.</tspan></text>
  <rect x="53.166" y="-374.78" width="919.68" height="573.75" fill="#fff" fill-rule="evenodd" stroke-width="0" style="paint-order:normal"/>
  <text x="31.692884" y="243.34659" fill="#aaaaaa" font-family="Verdana" font-size="4.8962px" stroke-width=".81845"><tspan font-size="5.6444px" stroke-width=".81845">FLOOR 1</tspan></text>
  <g font-family="Verdana" font-size="5.6736px" stroke-width=".81845">
   <text x="419.28058" y="268.39871" opacity=".99">FLOOR 1: 769.71 m<tspan baseline-shift="super" font-size="65%">2</tspan>, FLOOR 2: 378.28 m<tspan baseline-shift="super" font-size="65%">2</tspan>, FLOOR 3: 31.26 m<tspan baseline-shift="super" font-size="65%">2</tspan></text>
   <text x="476.29681" y="260.82541" opacity=".99">GROSS INTERNAL AREA</text>
   <text x="484.68146" y="276.84085" opacity=".99">TOTAL: 1179.25 m<tspan baseline-shift="super" font-size="65%">2</tspan></text>
  </g>
  <g transform="matrix(1.1929 0 0 1.1929 222.86 17.576)">
   <g transform="matrix(.37827 0 0 .37827 -852.29 -63.059)" opacity=".99">
    <g transform="translate(1041.1,-2198.3)" opacity=".99">
     <g transform="matrix(.6662 0 0 .67654 1287.3 1618.1)" opacity=".99">
      <g transform="translate(1268.4,-217.93)" opacity="1" stroke="#000" stroke-miterlimit="10">
       <rect transform="rotate(.22629)" x="-775.03" y="1470.5" width="12.891" height="12.891" fill="#fff" opacity="1" stroke-width=".080819"/>
       <rect transform="rotate(.22629)" x="-773.17" y="1472.5" width="9.1005" height="9.1005" opacity="1" stroke-width=".057056"/>
      </g>
     </g>
     <g transform="matrix(.6662 0 0 .67654 1224.5 1618.1)" opacity=".99">
      <g transform="translate(1268.4,-217.93)" opacity="1" stroke="#000" stroke-miterlimit="10">
       <rect transform="rotate(.22629)" x="-775.03" y="1470.5" width="12.891" height="12.891" fill="#fff" opacity="1" stroke-width=".080819"/>
       <rect transform="rotate(.22629)" x="-773.17" y="1472.5" width="9.1005" height="9.1005" opacity="1" stroke-width=".057056"/>
      </g>
     </g>
     <g transform="matrix(.6662 0 0 .67654 1287.3 1458.4)" opacity=".99">
      <g transform="translate(1268.4,-217.93)" opacity="1" stroke="#000" stroke-miterlimit="10">
       <rect transform="rotate(.22629)" x="-775.03" y="1470.5" width="12.891" height="12.891" fill="#fff" opacity="1" stroke-width=".080819"/>
       <rect transform="rotate(.22629)" x="-773.17" y="1472.5" width="9.1005" height="9.1005" opacity="1" stroke-width=".057056"/>
      </g>
     </g>
     <g transform="matrix(.6662 0 0 .67654 1224.5 1458.4)" opacity=".99">
      <g transform="translate(1268.4,-217.93)" opacity="1" stroke="#000" stroke-miterlimit="10">
       <rect transform="rotate(.22629)" x="-775.03" y="1470.5" width="12.891" height="12.891" fill="#fff" opacity="1" stroke-width=".080819"/>
       <rect transform="rotate(.22629)" x="-773.17" y="1472.5" width="9.1005" height="9.1005" opacity="1" stroke-width=".057056"/>
      </g>
     </g>
     <g transform="matrix(.6662 0 0 .67654 1287.3 1298.7)" opacity=".99">
      <g transform="translate(1268.4,-217.93)" opacity="1" stroke="#000" stroke-miterlimit="10">
       <rect transform="rotate(.22629)" x="-775.03" y="1470.5" width="12.891" height="12.891" fill="#fff" opacity="1" stroke-width=".080819"/>
       <rect transform="rotate(.22629)" x="-773.17" y="1472.5" width="9.1005" height="9.1005" opacity="1" stroke-width=".057056"/>
      </g>
     </g>
     <g transform="matrix(.6662 0 0 .67654 1224.5 1298.7)" opacity=".99">
      <g transform="translate(1268.4,-217.93)" opacity="1" stroke="#000" stroke-miterlimit="10">
       <rect transform="rotate(.22629)" x="-775.03" y="1470.5" width="12.891" height="12.891" fill="#fff" opacity="1" stroke-width=".080819"/>
       <rect transform="rotate(.22629)" x="-773.17" y="1472.5" width="9.1005" height="9.1005" opacity="1" stroke-width=".057056"/>
      </g>
     </g>
     <g transform="matrix(.6662 0 0 .67654 1287.3 1139)" opacity=".99">
      <g transform="translate(1268.4,-217.93)" opacity="1" stroke="#000" stroke-miterlimit="10">
       <rect transform="rotate(.22629)" x="-775.03" y="1470.5" width="12.891" height="12.891" fill="#fff" opacity="1" stroke-width=".080819"/>
       <rect transform="rotate(.22629)" x="-773.17" y="1472.5" width="9.1005" height="9.1005" opacity="1" stroke-width=".057056"/>
      </g>
     </g>
     <g transform="matrix(.6662 0 0 .67654 1224.5 1139)" opacity=".99">
      <g transform="translate(1268.4,-217.93)" opacity="1" stroke="#000" stroke-miterlimit="10">
       <rect transform="rotate(.22629)" x="-775.03" y="1470.5" width="12.891" height="12.891" fill="#fff" opacity="1" stroke-width=".080819"/>
       <rect transform="rotate(.22629)" x="-773.17" y="1472.5" width="9.1005" height="9.1005" opacity="1" stroke-width=".057056"/>
      </g>
     </g>
     <g transform="matrix(.6662 0 0 .67654 1287.3 979.31)" opacity=".99">
      <g transform="translate(1268.4,-217.93)" opacity="1" stroke="#000" stroke-miterlimit="10">
       <rect transform="rotate(.22629)" x="-775.03" y="1470.5" width="12.891" height="12.891" fill="#fff" opacity="1" stroke-width=".080819"/>
       <rect transform="rotate(.22629)" x="-773.17" y="1472.5" width="9.1005" height="9.1005" opacity="1" stroke-width=".057056"/>
      </g>
     </g>
     <g transform="matrix(.6662 0 0 .67654 1224.5 979.31)" opacity=".99">
      <g transform="translate(1268.4,-217.93)" opacity="1" stroke="#000" stroke-miterlimit="10">
       <rect transform="rotate(.22629)" x="-775.03" y="1470.5" width="12.891" height="12.891" fill="#fff" opacity="1" stroke-width=".080819"/>
       <rect transform="rotate(.22629)" x="-773.17" y="1472.5" width="9.1005" height="9.1005" opacity="1" stroke-width=".057056"/>
      </g>
     </g>
     <g transform="matrix(.6662 0 0 .67654 1287.3 819.62)" opacity=".99">
      <g transform="translate(1268.4,-217.93)" opacity="1" stroke="#000" stroke-miterlimit="10">
       <rect transform="rotate(.22629)" x="-775.03" y="1470.5" width="12.891" height="12.891" fill="#fff" opacity="1" stroke-width=".080819"/>
       <rect transform="rotate(.22629)" x="-773.17" y="1472.5" width="9.1005" height="9.1005" opacity="1" stroke-width=".057056"/>
      </g>
     </g>
     <g transform="matrix(.6662 0 0 .67654 1224.5 819.62)" opacity=".99">
      <g transform="translate(1268.4,-217.93)" opacity="1" stroke="#000" stroke-miterlimit="10">
       <rect transform="rotate(.22629)" x="-775.03" y="1470.5" width="12.891" height="12.891" fill="#fff" opacity="1" stroke-width=".080819"/>
       <rect transform="rotate(.22629)" x="-773.17" y="1472.5" width="9.1005" height="9.1005" opacity="1" stroke-width=".057056"/>
      </g>
     </g>
     <g transform="matrix(.6662 0 0 .67654 1287.3 659.93)" opacity=".99">
      <g transform="translate(1268.4,-217.93)" opacity="1" stroke="#000" stroke-miterlimit="10">
       <rect transform="rotate(.22629)" x="-775.03" y="1470.5" width="12.891" height="12.891" fill="#fff" opacity="1" stroke-width=".080819"/>
       <rect transform="rotate(.22629)" x="-773.17" y="1472.5" width="9.1005" height="9.1005" opacity="1" stroke-width=".057056"/>
      </g>
     </g>
     <g transform="matrix(.6662 0 0 .67654 1224.5 659.93)" opacity=".99">
      <g transform="translate(1268.4,-217.93)" opacity="1" stroke="#000" stroke-miterlimit="10">
       <rect transform="rotate(.22629)" x="-775.03" y="1470.5" width="12.891" height="12.891" fill="#fff" opacity="1" stroke-width=".080819"/>
       <rect transform="rotate(.22629)" x="-773.17" y="1472.5" width="9.1005" height="9.1005" opacity="1" stroke-width=".057056"/>
      </g>
     </g>
    </g>
    <g transform="matrix(0 -.32327 .32327 0 1871.6 1027.9)" opacity=".99" stroke-linecap="square" stroke-miterlimit="10">
     <g transform="translate(161.19,23.128)">
      <clipPath>
       <path d="m2183.6 1608.3v237.68h-502.72v-237.68zm21.721 247.84v321.7h-36.872v-321.7zm137.23-247.84v242.57h349.06v326.97h-26.593v8.6353h-95.25v-8.6353h-349.21v-569.54zm611.65 242.57v326.97h-26.295v8.6353h-93.894v-8.6353h-132.24v-326.97zm-811.04 5.2688v240.28h-3.6138v191.86h-799.03v-432.14zm-3.6138 442.3v245.23h-213.67v-245.23zm477.32 270.63v406.66h-438.35v-394.53h12.622v-12.123h186.58v14.646h31.75v-14.646zm-701.15-270.63v255.39h223.83v433.57h-799.03v-688.95zm498.18 687.44v189.3h-11.322v18.122h-208.92v-18.122h-15.143v-189.3zm202.97 0v207.42h-192.81v-207.42zm-225.68 217.58v416.41h-222.74v-413.5h10.07v-2.9053zm0 426.57v182.87h-222.74v-49.827h-13.662v-99.085h13.662v-33.958zm2777.6-1433.9v1945.3h-871.78v-0.6289h-2128.5v-317.8h232.9v-619.6h225.68v-644.56h-458.58v-34.206h-13.662v-101.6h13.662v-226.46h819.92v-0.4726zm-2515.2 1954.8v192.13l-485.05-5e-4v-192.13zm1571.8 0v413.14h-54.61v148.38h-221.47v-561.52zm0 423.3v138.22h-44.45v-138.22zm-693.42-423.3v653.51h-347.2v-653.51zm-1866.2-2558v244.49h-340.36v1165.1h814.27v1355.7l529.2 5e-4v-201.66h500.66v663.04h377.68v-663.04h386.86v571.05h306.56v-571.05h943.48v-1975.8h-2214.5v-345.3h-611.65v-242.57z"/>
      </clipPath>
     </g>
     <g transform="translate(161.19,23.128)">
      <g fill="none" stroke="#000" stroke-width="1.375">
       <path transform="rotate(90,5381.2,5080.7)" d="m2481.4 5277.9v2214.5h-345.3v611.65h-242.57v416.33h15.24v-242.14h237.68v502.72h-237.68v-127.65h-15.24v142.89h244.49v347.36h1165.1v-821.27h1355.8v-529.2h-201.66v-500.66h663.04v-377.68h-663.04v-386.86h571.05v-306.56h-571.05v-943.48zm15.24 15.24h1945.3v871.78h-0.6289v2128.5h-317.8v-232.9h-619.6v-225.68h-644.56v458.58h-34.205v13.662h-101.6v-13.662h-226.46v-819.92h-0.4727zm1954.8 943.48h413.14v54.609h148.38v221.47h-561.52zm0 693.42h653.51v347.2h-653.51zm-2300.1 577.64h326.97v26.295h8.6367v93.894h-8.6367v132.24h-326.97zm0 262.59h326.97v26.594h8.6367v95.25h-8.6367v349.21h-569.54v-121.99h242.57zm2300.1 38.109h192.13v485.05h-192.13zm-1581.9 36.631h406.65v438.35h-394.53v-12.623h-12.123v-186.58h14.646v-31.75h-14.646zm416.81 0h207.42v192.81h-207.42zm0 202.97h189.3v11.322h18.121v200.02h10.16v-188.64h416.41v222.74h-416.41v-33.195h-10.16v7.9824h-18.121v15.144h-189.3zm644.15 22.705h182.87v222.74h-49.826v13.662h-99.086v-13.662h-33.957zm-1760.4 251.65h418.62v799.03h-34.604v6.8008h-82.332v-6.8008h-304.52v-36.672h-10.684v-725.14h13.514zm428.79 0h245.23v213.67h-245.23zm255.39 0h400.71v13.783h32.852v752.46h-11.852v32.783h-677.1v-575.2h255.39z" fill="#000"/>
      </g>
     </g>
     <g transform="translate(161.19,23.128)">
      <clipPath>
       <path d="m2764.5 1934.1v140.28h73.822v-10.16h-63.662v-119.96h192.58v-10.16zm-1176.7 130.06v100.33h10.16v-100.33zm70.596-75.213v266.7h-133.35v-189.23h-10.16v199.39h153.67v-276.86zm-166.25 600.44 14.901 2.0715 14.223 4.9046 13.011 7.5534 11.311 9.9192 9.1876 11.913 6.7196 13.46 3.9996 14.503 1.1298 15.002-1.6395 13.741-0.4979-0.1049-3.9252 12.926-6.1103 12.048-8.1096 10.804-9.8624 9.2317-11.316 7.3789-12.425 5.3018-13.157 3.0634-13.489 0.7325-13.411-1.6211-12.926-3.9253-12.048-6.1104-10.804-8.1093-9.2316-9.8626-7.3788-11.316-5.3017-12.425-3.0586-13.132-0.5467-15.018 2.3604-14.858 5.1793-14.125 7.8043-12.862 10.137-11.117 12.089-8.9548 13.588-6.4573 14.578-3.7178zm0.4184-10.152-16.985 0.9485-16.484 4.2038-15.365 7.3018-13.67 10.126-11.462 12.57-8.8249 14.544-5.8567 15.972-2.6689 16.801 0.6194 17.02 3.4703 14.903 5.9968 14.054 8.3462 12.799 10.442 11.155 12.22 9.1729 13.628 6.9111 14.621 4.44 15.17 1.8337 15.257-0.8284 14.882-3.4653 14.054-5.9968 12.799-8.3462 11.155-10.442 9.1727-12.22 6.9114-13.628 4.0672-13.393 0.7103 0.1557 2.0154-16.892-1.2775-16.963-4.5227-16.4-7.5983-15.22-10.389-13.471-12.79-11.216-14.712-8.541-16.082-5.5459zm2625.5 341.93v10.16h204.47v-10.16zm0 107.95v10.16h204.47v-10.16zm-812.15-184.2v295.91h10.16v-295.91zm100.33 0v295.91h10.16v-295.91z"/>
      </clipPath>
     </g>
     <g transform="translate(161.19,23.128)">
      <g fill="none" stroke="#000" stroke-width="1.375">
       <path d="m2764.5 1932.6v141.83h73.822v-10.16h-63.662v-121.51h179.5v-10.16zm-1176.7 77.875v154.07h10.16v-154.07zm70.596 0v245.23h-133.35v-189.23h-10.16v199.39h153.67v-255.39zm2459.7 910.74v10.16h207.65v-10.16zm0 107.95v10.16h207.65v-10.16zm-812.15-184.2v295.91h10.16v-295.91zm100.33 0v295.91h10.16v-295.91z"/>
      </g>
     </g>
     <g transform="translate(161.19,23.128)">
      <g fill="#fff">
       <path d="m2010.2 2288.3v10.16h91.44v-10.16z"/>
      </g>
     </g>
     <g transform="translate(161.19,23.128)">
      <g fill="none" stroke="#000" stroke-width=".91667">
       <path d="m2010.2 2288.3v10.16h91.44v-10.16z"/>
      </g>
     </g>
     <g transform="translate(161.19,23.128)"></g>
     <g transform="translate(161.19,23.128)">
      <g fill="#fff">
       <path d="m2138.8 2309.4h-139.98v-34.999h139.98z" stroke-width="2.2964"/>
      </g>
     </g>
     <g transform="translate(161.19,23.128)"></g>
     <g transform="translate(161.19,23.128)">
      <g fill="#fff">
       <path d="m1915.7 2447.5v76.835h10.16v-76.835z"/>
      </g>
     </g>
     <g transform="translate(161.19,23.128)">
      <g fill="none" stroke="#000" stroke-width=".91667">
       <path d="m1915.7 2447.5v76.835h10.16v-76.835z"/>
      </g>
     </g>
     <g transform="translate(161.19,23.128)">
      <g fill="none" stroke="#000" stroke-width=".91667">
       <path d="m1915.7 2520.1c-37.822 0-68.483-30.661-68.483-68.483h68.483z"/>
      </g>
     </g>
     <g transform="translate(161.19,23.128)">
      <g fill="#fff">
       <path d="m1925.9 2447.5v76.835h-10.16v-76.835z"/>
      </g>
     </g>
     <g transform="translate(161.19,23.128)">
      <g fill="none" stroke="#000" stroke-width=".91667">
       <path d="m1925.9 2447.5v76.835h-10.16v-76.835z"/>
      </g>
     </g>
     <g transform="translate(161.19,23.128)">
      <g fill="#fff">
       <path d="m2139.6 2430.6v91.44h15.24v-91.44z"/>
      </g>
     </g>
     <g transform="translate(161.19,23.128)">
      <g fill="none" stroke="#000" stroke-width=".91667">
       <path d="m2139.6 2430.6v91.44h15.24v-91.44z"/>
      </g>
     </g>
     <g transform="translate(161.19,23.128)">
      <g fill="none" stroke="#000" stroke-width=".91667">
       <path d="m2139.6 2435.5c-45.011 0-81.5 36.489-81.5 81.5h81.5z"/>
      </g>
     </g>
     <g transform="translate(161.19,23.128)">
      <g fill="#fff">
       <path d="m2441.8 2975.7v10.16h91.44v-10.16z"/>
      </g>
     </g>
     <g transform="translate(161.19,23.128)">
      <g fill="none" stroke="#000" stroke-width=".91667">
       <path d="m2441.8 2975.7v10.16h91.44v-10.16z"/>
      </g>
     </g>
     <g transform="translate(161.19,23.128)">
      <g fill="none" stroke="#000" stroke-width=".91667">
       <path d="m2528.3 2975.7c0-45.011-36.489-81.5-81.5-81.5v81.5z"/>
      </g>
     </g>
     <g transform="translate(161.19,23.128)">
      <g fill="#fff">
       <path d="m2533.2 2985.9h-91.44v-10.16h91.44z"/>
      </g>
     </g>
     <g transform="translate(161.19,23.128)">
      <g fill="none" stroke="#000" stroke-width=".91667">
       <path d="m2533.2 2985.9h-91.44v-10.16h91.44z"/>
      </g>
     </g>
     <g transform="translate(161.19,23.128)">
      <g fill="#fff">
       <path d="m2447.3 3193.3v10.16h91.44v-10.16z"/>
      </g>
     </g>
     <g transform="translate(161.19,23.128)">
      <g fill="none" stroke="#000" stroke-width=".91667">
       <path d="m2447.3 3193.3v10.16h91.44v-10.16z"/>
      </g>
     </g>
     <g transform="translate(161.19,23.128)">
      <g fill="none" stroke="#000" stroke-width=".91667">
       <path d="m2533.8 3203.4c0 45.011-36.489 81.5-81.5 81.5v-81.5z"/>
      </g>
     </g>
     <g transform="translate(161.19,23.128)">
      <g fill="#fff">
       <path d="m2447.3 3193.3h91.44v10.16h-91.44z"/>
      </g>
     </g>
     <g transform="translate(161.19,23.128)">
      <g fill="none" stroke="#000" stroke-width=".91667">
       <path d="m2447.3 3193.3h91.44v10.16h-91.44z"/>
      </g>
     </g>
     <g transform="translate(161.19,23.128)">
      <g fill="#fff">
       <path d="m2139.6 3666.6v91.44h15.24v-91.44z"/>
      </g>
     </g>
     <g transform="translate(161.19,23.128)">
      <g fill="none" stroke="#000" stroke-width=".91667">
       <path d="m2139.6 3666.6v91.44h15.24v-91.44z"/>
      </g>
     </g>
     <g transform="translate(161.19,23.128)">
      <g fill="none" stroke="#000" stroke-width=".91667">
       <path d="m2139.6 3671.6c-45.011 0-81.5 36.489-81.5 81.5h81.5z"/>
      </g>
     </g>
     <g transform="translate(161.19,23.128)">
      <g fill="#fff">
       <path d="m2154.8 3666.6v91.44h-15.24v-91.44z"/>
      </g>
     </g>
     <g transform="translate(161.19,23.128)">
      <g fill="none" stroke="#000" stroke-width=".91667">
       <path d="m2154.8 3666.6v91.44h-15.24v-91.44z"/>
      </g>
     </g>
     <g transform="translate(161.19,23.128)">
      <g fill="#fff">
       <path d="m2556.9 4140.8v10.16h91.44v-10.16z"/>
      </g>
     </g>
     <g transform="translate(161.19,23.128)">
      <g fill="none" stroke="#000" stroke-width=".91667">
       <path d="m2556.9 4140.8v10.16h91.44v-10.16z"/>
      </g>
     </g>
     <g transform="translate(161.19,23.128)">
      <g fill="none" stroke="#000" stroke-width=".91667">
       <path d="m2561.8 4140.8c0-45.012 36.489-81.5 81.5-81.5v81.5z"/>
      </g>
     </g>
     <g transform="translate(161.19,23.128)">
      <g fill="#fff">
       <path d="m2648.3 4151h-91.44v-10.16h91.44z"/>
      </g>
     </g>
     <g transform="translate(161.19,23.128)">
      <g fill="none" stroke="#000" stroke-width=".91667">
       <path d="m2648.3 4151h-91.44v-10.16h91.44z"/>
      </g>
     </g>
     <g transform="translate(161.19,23.128)">
      <g fill="#fff">
       <path d="m3337.1 4140.8v10.16h146.05v-10.16z"/>
      </g>
     </g>
     <g transform="translate(161.19,23.128)">
      <g fill="none" stroke="#000" stroke-width=".91667">
       <path d="m3337.1 4140.8v10.16h146.05v-10.16z"/>
      </g>
     </g>
     <g transform="translate(161.19,23.128)">
      <g fill="none" stroke="#000" stroke-width=".91667">
       <path d="m3475.3 4140.8c0-71.893-58.281-130.17-130.17-130.17v130.17z"/>
      </g>
     </g>
     <g transform="translate(161.19,23.128)">
      <g fill="#fff">
       <path d="m3483.1 4151h-146.05v-10.16h146.05z"/>
      </g>
     </g>
     <g transform="translate(161.19,23.128)">
      <g fill="none" stroke="#000" stroke-width=".91667">
       <path d="m3483.1 4151h-146.05v-10.16h146.05z"/>
      </g>
     </g>
     <g transform="translate(161.19,23.128)">
      <g fill="#fff">
       <path d="m3814.4 4140.8v15.869h91.44v-15.869z"/>
      </g>
     </g>
     <g transform="translate(161.19,23.128)">
      <g fill="none" stroke="#000" stroke-width=".91667">
       <path d="m3814.4 4140.8v15.869h91.44v-15.869z"/>
      </g>
     </g>
     <g transform="translate(161.19,23.128)">
      <g fill="none" stroke="#000" stroke-width=".91667">
       <path d="m3900.9 4141.5c0-45.011-36.489-81.5-81.5-81.5v81.5z"/>
      </g>
     </g>
     <g transform="translate(161.19,23.128)">
      <g fill="#fff">
       <path d="m3905.8 4156.7h-91.44v-15.24h91.44z"/>
      </g>
     </g>
     <g transform="translate(161.19,23.128)">
      <g fill="none" stroke="#000" stroke-width=".91667">
       <path d="m3905.8 4156.7h-91.44v-15.24h91.44z"/>
      </g>
     </g>
     <g transform="translate(161.19,23.128)">
      <g fill="#fff">
       <path d="m3960.2 4140.8v10.16h91.44v-10.16z"/>
      </g>
     </g>
     <g transform="translate(161.19,23.128)">
      <g fill="none" stroke="#000" stroke-width=".91667">
       <path d="m3960.2 4140.8v10.16h91.44v-10.16z"/>
      </g>
     </g>
     <g transform="translate(161.19,23.128)">
      <g fill="none" stroke="#000" stroke-width=".91667">
       <path d="m3965.2 4140.8c0-45.012 36.489-81.5 81.5-81.5v81.5z"/>
      </g>
     </g>
     <g transform="translate(161.19,23.128)">
      <g fill="#fff">
       <path d="m4051.7 4151h-91.44v-10.16h91.44z"/>
      </g>
     </g>
     <g transform="translate(161.19,23.128)">
      <g fill="none" stroke="#000" stroke-width=".91667">
       <path d="m4051.7 4151h-91.44v-10.16h91.44z"/>
      </g>
     </g>
     <g transform="translate(161.19,23.128)">
      <g fill="#fff">
       <path d="m2571.2 2186.5v10.16h91.44v-10.16z"/>
      </g>
     </g>
     <g transform="translate(161.19,23.128)">
      <g fill="none" stroke="#000" stroke-width=".91667">
       <path d="m2571.2 2186.5v10.16h91.44v-10.16z"/>
      </g>
     </g>
     <g transform="translate(161.19,23.128)">
      <g fill="none" stroke="#000" stroke-width=".91667">
       <path d="m2657.7 2196.6c0 45.011-36.489 81.5-81.5 81.5v-81.5z"/>
      </g>
     </g>
     <g transform="translate(161.19,23.128)">
      <g fill="#fff">
       <path d="m2571.2 2186.5h91.44v10.16h-91.44z"/>
      </g>
     </g>
     <g transform="translate(161.19,23.128)">
      <g fill="none" stroke="#000" stroke-width=".91667">
       <path d="m2571.2 2186.5h91.44v10.16h-91.44z"/>
      </g>
     </g>
     <g transform="translate(161.19,23.128)">
      <g fill="#fff">
       <path d="m2835.1 2186.5v10.16h91.44v-10.16z"/>
      </g>
     </g>
     <g transform="translate(161.19,23.128)">
      <g fill="none" stroke="#000" stroke-width=".91667">
       <path d="m2835.1 2186.5v10.16h91.44v-10.16z"/>
      </g>
     </g>
     <g transform="translate(161.19,23.128)">
      <g fill="none" stroke="#000" stroke-width=".91667">
       <path d="m2921.6 2196.6c0 45.011-36.489 81.5-81.5 81.5v-81.5z"/>
      </g>
     </g>
     <g transform="translate(161.19,23.128)">
      <g fill="#fff">
       <path d="m2835.1 2186.5h91.44v10.16h-91.44z"/>
      </g>
     </g>
     <g transform="translate(161.19,23.128)">
      <g fill="none" stroke="#000" stroke-width=".91667">
       <path d="m2835.1 2186.5h91.44v10.16h-91.44z"/>
      </g>
     </g>
     <g transform="translate(161.19,23.128)">
      <g fill="#fff">
       <path d="m3018.8 4140.8v15.869h132.08v-15.869z"/>
      </g>
     </g>
     <g transform="translate(161.19,23.128)">
      <g fill="none" stroke="#000" stroke-width=".91667">
       <path d="m3018.8 4140.8v15.869h132.08v-15.869z"/>
      </g>
     </g>
     <g transform="translate(161.19,23.128)">
      <g fill="none" stroke="#000" stroke-width=".91667">
       <path d="m3085.4 4141.5c0-35.07 28.43-63.5 63.5-63.5v63.5z"/>
      </g>
     </g>
     <g transform="translate(161.19,23.128)">
      <g fill="none" stroke="#000" stroke-width=".91667">
       <path d="m3084.4 4141.5c0-35.07-28.43-63.5-63.5-63.5v63.5z"/>
      </g>
     </g>
     <g transform="translate(161.19,23.128)">
      <g fill="#fff">
       <path d="m3150.9 4156.7h-132.08v-15.241h132.08z"/>
      </g>
     </g>
     <g transform="translate(161.19,23.128)">
      <g fill="none" stroke="#000" stroke-width=".91667">
       <path d="m3150.9 4156.7h-132.08v-15.241h132.08z"/>
      </g>
     </g>
    </g>
    <g transform="matrix(1,0,0,-1,2832.1,2942.1)" opacity="1" stroke="#000" stroke-linecap="square" stroke-miterlimit="10" stroke-width=".32328">
     <path d="m-249.06 2392.6c0-12.53 10.158-22.688 22.688-22.688v22.688z" fill="none" opacity="1"/>
     <path d="m-224.98 2397.5h-25.455v-4.9268h25.455z" fill="#fff" opacity="1"/>
    </g>
    <g transform="translate(1569.8,-2198.3)" fill="none" opacity=".99">
     <g stroke="#000" stroke-width=".32327px">
      <path d="m959.23 2657.5v-19.538"/>
      <path d="m966.66 2657.5v-19.538"/>
      <path d="m966.66 2657.5v-19.538"/>
      <path d="m974.08 2657.5v-19.538"/>
      <path d="m981.51 2657.5v-19.538"/>
      <path d="m988.93 2657.5v-19.538"/>
      <path d="m996.36 2657.5v-19.538"/>
      <path d="m1003.8 2657.5v-19.538"/>
      <path d="m978.31 2681v-20.287"/>
      <path d="m985.74 2681v-20.287"/>
      <path d="m993.16 2681v-20.287"/>
      <path d="m1000.6 2681v-20.287"/>
      <path d="m1008 2681v-20.287"/>
     </g>
     <path d="m959.23 2647.5h64.41v23.198h-45.329" marker-end="url(#Marker0-6-20-15-0-0)" stroke="#d3d3d3" stroke-opacity=".99608" stroke-width=".31034"/>
    </g>
    <g transform="translate(2094.2,-826.13)" opacity=".99">
     <g transform="translate(1268.4,-217.93)" opacity="1" stroke="#000" stroke-miterlimit="10">
      <rect transform="rotate(.22629)" x="-775.03" y="1470.5" width="12.891" height="12.891" fill="#fff" opacity="1" stroke-width=".080819"/>
      <rect transform="rotate(.22629)" x="-773.17" y="1472.5" width="9.1005" height="9.1005" opacity="1" stroke-width=".057056"/>
     </g>
    </g>
    <g transform="translate(2009.5,-826.13)" opacity=".99">
     <g transform="translate(1268.4,-217.93)" opacity="1" stroke="#000" stroke-miterlimit="10">
      <rect transform="rotate(.22629)" x="-775.03" y="1470.5" width="12.891" height="12.891" fill="#fff" opacity="1" stroke-width=".080819"/>
      <rect transform="rotate(.22629)" x="-773.17" y="1472.5" width="9.1005" height="9.1005" opacity="1" stroke-width=".057056"/>
     </g>
    </g>
    <g transform="translate(2094.2,-916)" opacity=".99">
     <g transform="translate(1268.4,-217.93)" opacity="1" stroke="#000" stroke-miterlimit="10">
      <rect transform="rotate(.22629)" x="-775.03" y="1470.5" width="12.891" height="12.891" fill="#fff" opacity="1" stroke-width=".080819"/>
      <rect transform="rotate(.22629)" x="-773.17" y="1472.5" width="9.1005" height="9.1005" opacity="1" stroke-width=".057056"/>
     </g>
    </g>
    <g transform="translate(2009.5,-916)" opacity=".99">
     <g transform="translate(1268.4,-217.93)" opacity="1" stroke="#000" stroke-miterlimit="10">
      <rect transform="rotate(.22629)" x="-775.03" y="1470.5" width="12.891" height="12.891" fill="#fff" opacity="1" stroke-width=".080819"/>
      <rect transform="rotate(.22629)" x="-773.17" y="1472.5" width="9.1005" height="9.1005" opacity="1" stroke-width=".057056"/>
     </g>
    </g>
    <g transform="translate(2009.5,-916)" opacity=".99">
     <g transform="translate(1268.4,-217.93)" opacity="1" stroke="#000" stroke-miterlimit="10">
      <rect transform="rotate(.22629)" x="-775.03" y="1470.5" width="12.891" height="12.891" fill="#fff" opacity="1" stroke-width=".080819"/>
      <rect transform="rotate(.22629)" x="-773.17" y="1472.5" width="9.1005" height="9.1005" opacity="1" stroke-width=".057056"/>
     </g>
    </g>
    <g transform="matrix(.72693 0 0 .72693 2144.4 -611.82)" opacity=".99">
     <g transform="translate(1268.4,-217.93)" opacity="1" stroke="#000" stroke-miterlimit="10">
      <rect transform="rotate(.22629)" x="-775.03" y="1470.5" width="12.891" height="12.891" fill="#fff" opacity="1" stroke-width=".080819"/>
      <rect transform="rotate(.22629)" x="-773.17" y="1472.5" width="9.1005" height="9.1005" opacity="1" stroke-width=".057056"/>
     </g>
    </g>
    <g transform="matrix(-.52123 .52123 .52123 .52123 1121.3 -420.42)" opacity="1">
     <g stroke="#000">
      <path d="m-690.66 2433.2c0.5431 7.8103 7.3189 13.707 15.129 13.164 7.8103-0.569 13.707-7.3448 13.138-15.155-0.5431-7.8103-7.3189-13.681-15.129-13.138s-13.707 7.3189-13.138 15.129z" fill="none" stroke-width=".51724px"/>
      <path d="m-685.38 2432.9c0.3362 4.8879 4.5775 8.5861 9.4913 8.224 4.8879-0.3362 8.5603-4.5775 8.224-9.4654-0.3362-4.9137-4.5775-8.5861-9.4913-8.2499-4.8879 0.3362-8.5602 4.6034-8.224 9.4913z" stroke-width=".3362px"/>
      <path d="m-688.72 2433.1c0.49137 6.7241 6.3103 11.793 13.06 11.328 6.7241-0.4655 11.793-6.3103 11.327-13.034-0.49137-6.75-6.3103-11.819-13.06-11.328-6.7241 0.4655-11.793 6.3103-11.327 13.034z" fill="none" stroke-width=".43965px"/>
     </g>
     <path d="m-702.76 2432.3c0.0259 10.629 6.4913 20.198 16.371 24.207 9.8534 4.0086 21.155 1.681 28.603-5.9223 7.4482-7.6034 9.5689-18.957 5.3534-28.732-4.1896-9.7757-13.888-16.06-24.543-15.879" fill="none" stroke="#d3d3d3" stroke-width=".25862px"/>
     <path d="m-674.26 2404.5 0.0517 2.9741-2.5086-1.4482z" fill="#d3d3d3" stroke="#d3d3d3" stroke-width=".25862px"/>
     <g fill="none" stroke="#000">
      <path d="m-712.75 2432.2c-0.0259 14.741 8.8965 28.008 22.551 33.569 13.629 5.5603 29.301 2.3017 39.594-8.224 10.293-10.552 13.19-26.276 7.293-39.775-5.8706-13.526-19.345-22.138-34.086-21.776" stroke-width="1.319px"/>
      <path d="m-715.41 2432.4c0.0776 15.776 9.6723 29.922 24.31 35.844 14.612 5.9223 31.37 2.431 42.387-8.8706 11.017-11.276 14.146-28.112 7.862-42.594-6.2586-14.483-20.638-23.741-36.413-23.431" stroke-width="1.4224px"/>
      <g stroke-width=".3362px">
       <path d="m-677.26 2392.7-0.15517 25.5"/>
       <path d="m-716.06 2432.3 25.293-0.026"/>
       <path d="m-689.99 2437-21.284 5.9223"/>
       <path d="m-688.41 2439.9-18.103 12.388"/>
       <path d="m-685.15 2443.5-13.345 17.483"/>
       <path d="m-680.78 2445.8-8.1206 20.25"/>
       <path d="m-676.49 2446.4-0.20689 22.448"/>
       <path d="m-671.76 2445.5 6.8792 21.103"/>
       <path d="m-667.38 2443 12.026 18.207"/>
       <path d="m-664.75 2440.2 17.664 12.983"/>
       <path d="m-662.83 2435.8 20.664 6.75"/>
       <path d="m-662.42 2430.9 22.008 0.931"/>
       <path d="m-663.17 2427.2 20.896-7.3189"/>
       <path d="m-665.65 2423.1 17.483-13.577"/>
       <path d="m-669.38 2420 13.267-17.741"/>
       <path d="m-672.95 2418.5 6.8016-20.741"/>
      </g>
     </g>
    </g>
    <g transform="translate(1569.8,-2198.3)" fill="none" opacity=".99">
     <g stroke="#000" stroke-width=".32327px">
      <path d="m1013.3 2258.9h-33.438"/>
      <path d="m1013.3 2268.3h-33.438"/>
      <path d="m1013.3 2277.8h-33.438"/>
      <path d="m979.91 2280.3v20.292"/>
      <path d="m970.74 2280.3v20.292"/>
      <path d="m961.57 2280.3v20.292"/>
      <path d="m952.4 2280.3v20.292"/>
      <path d="m943.23 2280.3v20.292"/>
      <path d="m934.06 2280.3v20.292"/>
     </g>
     <path d="m996.6 2258.9v31.6h-62.543" marker-end="url(#Marker0-6-20-15-0-0)" stroke="#d2d2d2" stroke-opacity=".99608" stroke-width=".31034"/>
    </g>
    <g transform="translate(1569.8,-2198.3)" opacity=".99">
     <g fill="none">
      <g stroke="#000" stroke-width=".32327px">
       <path d="m1324.7 2102v-29.15"/>
       <path d="m1316.3 2102v-29.15"/>
       <path d="m1307.9 2102v-29.15"/>
       <path d="m1299.4 2102v-29.15"/>
       <path d="m1291 2102v-29.15"/>
       <path d="m1282.6 2102v-29.15"/>
       <path d="m1274.2 2102v-29.15"/>
       <path d="m1265.8 2102v-29.15"/>
       <path d="m1257.4 2102v-29.15"/>
       <path d="m1249 2102v-29.15"/>
       <path d="m1240.6 2102v-29.15"/>
       <path d="m1232.2 2102v-29.15"/>
      </g>
      <path d="m1324.7 2087.5h-92.456" marker-end="url(#Marker0-6-20-15-0-0)" stroke="#d3d3d3" stroke-opacity=".99608" stroke-width=".31034"/>
     </g>
    </g>
    <g transform="matrix(0,1,-1.0845,0,5106.4,-1655)" opacity=".99">
     <g fill="none">
      <g stroke="#000" stroke-width=".32327px">
       <path d="m1299.4 2102v-29.15"/>
       <path d="m1291 2102v-29.15"/>
       <path d="m1282.6 2102v-29.15"/>
       <path d="m1274.2 2102v-29.15"/>
       <path d="m1265.8 2102v-29.15"/>
       <path d="m1257.4 2102v-29.15"/>
       <path d="m1249 2102v-29.15"/>
       <path d="m1240.6 2102v-29.15"/>
       <path d="m1232.2 2102v-29.15"/>
      </g>
      <path d="m1299.3 2087.5h-67.079" marker-end="url(#Marker0-6-20-12-7-6)" stroke="#d3d3d3" stroke-opacity=".99608" stroke-width=".31034"/>
     </g>
    </g>
    <g transform="matrix(.67867 0 0 .67867 2876.1 -582.8)" opacity=".99">
     <g transform="translate(1268.4,-217.93)" opacity="1" stroke="#000" stroke-miterlimit="10">
      <rect transform="rotate(.22629)" x="-775.03" y="1470.5" width="12.891" height="12.891" fill="#fff" opacity="1" stroke-width=".080819"/>
      <rect transform="rotate(.22629)" x="-773.17" y="1472.5" width="9.1005" height="9.1005" opacity="1" stroke-width=".057056"/>
     </g>
    </g>
    <g transform="matrix(.67867 0 0 .67867 2876.1 -742.52)" opacity=".99">
     <g transform="translate(1268.4,-217.93)" opacity="1" stroke="#000" stroke-miterlimit="10">
      <rect transform="rotate(.22629)" x="-775.03" y="1470.5" width="12.891" height="12.891" fill="#fff" opacity="1" stroke-width=".080819"/>
      <rect transform="rotate(.22629)" x="-773.17" y="1472.5" width="9.1005" height="9.1005" opacity="1" stroke-width=".057056"/>
     </g>
    </g>
    <g transform="matrix(.67867 0 0 .67867 2876.1 -899.63)" opacity=".99">
     <g transform="translate(1268.4,-217.93)" opacity="1" stroke="#000" stroke-miterlimit="10">
      <rect transform="rotate(.22629)" x="-775.03" y="1470.5" width="12.891" height="12.891" fill="#fff" opacity="1" stroke-width=".080819"/>
      <rect transform="rotate(.22629)" x="-773.17" y="1472.5" width="9.1005" height="9.1005" opacity="1" stroke-width=".057056"/>
     </g>
    </g>
    <g transform="matrix(.67867 0 0 .67867 2876.1 -1062)" opacity=".99">
     <g transform="translate(1268.4,-217.93)" opacity="1" stroke="#000" stroke-miterlimit="10">
      <rect transform="rotate(.22629)" x="-775.03" y="1470.5" width="12.891" height="12.891" fill="#fff" opacity="1" stroke-width=".080819"/>
      <rect transform="rotate(.22629)" x="-773.17" y="1472.5" width="9.1005" height="9.1005" opacity="1" stroke-width=".057056"/>
     </g>
    </g>
    <g transform="matrix(.67867 0 0 .67867 2876.1 -1221.7)" opacity=".99">
     <g transform="translate(1268.4,-217.93)" opacity="1" stroke="#000" stroke-miterlimit="10">
      <rect transform="rotate(.22629)" x="-775.03" y="1470.5" width="12.891" height="12.891" fill="#fff" opacity="1" stroke-width=".080819"/>
      <rect transform="rotate(.22629)" x="-773.17" y="1472.5" width="9.1005" height="9.1005" opacity="1" stroke-width=".057056"/>
     </g>
    </g>
    <g transform="matrix(.67867 0 0 .67867 2876.1 -1381.4)" opacity=".99">
     <g transform="translate(1268.4,-217.93)" opacity="1" stroke="#000" stroke-miterlimit="10">
      <rect transform="rotate(.22629)" x="-775.03" y="1470.5" width="12.891" height="12.891" fill="#fff" opacity="1" stroke-width=".080819"/>
      <rect transform="rotate(.22629)" x="-773.17" y="1472.5" width="9.1005" height="9.1005" opacity="1" stroke-width=".057056"/>
     </g>
    </g>
    <g transform="matrix(.67867 0 0 .67867 2876.1 -1541.1)" opacity=".99">
     <g transform="translate(1268.4,-217.93)" opacity="1" stroke="#000" stroke-miterlimit="10">
      <rect transform="rotate(.22629)" x="-775.03" y="1470.5" width="12.891" height="12.891" fill="#fff" opacity="1" stroke-width=".080819"/>
      <rect transform="rotate(.22629)" x="-773.17" y="1472.5" width="9.1005" height="9.1005" opacity="1" stroke-width=".057056"/>
     </g>
    </g>
    <g transform="matrix(.21687 0 0 .2934 2699.8 76.907)" fill="#f0f0ff" opacity=".99" stroke="#000">
     <polygon points="30.28 640.89 45.28 640.89 45.28 544.03 30.28 544.03"/>
     <polygon points="45.28 544.03 30.28 544.03 30.28 640.89 45.28 640.89"/>
     <line x1="37.782" x2="37.782" y1="633.39" y2="551.53"/>
     <line x1="45.282" x2="30.282" y1="633.39" y2="633.39"/>
     <line x1="45.282" x2="30.282" y1="551.53" y2="551.53"/>
    </g>
    <g transform="matrix(0 -.28225 -.69811 0 3899.2 -39.569)" opacity="1">
     <g transform="translate(-221.27,-101.72)">
      <g transform="translate(-656.05,461.66)" fill="#fff">
       <rect x="-196.58" y="1147.4" width="200.6" height="10.959" opacity="1" stroke="#fff" stroke-width=".29575"/>
       <g transform="matrix(1,0,0,-1,0,2306.9)" stroke="#000">
        <rect x="-196.57" y="1150.7" width="200.58" height="5.4984" opacity="1" stroke-width=".32311"/>
        <g stroke-width=".32328">
         <path d="m4.0426 1151.6h-200.52"/>
         <path d="m4.0219 1152.5h-200.64"/>
         <path d="m4.0503 1153.5h-200.61"/>
        </g>
       </g>
      </g>
      <path d="m-651.88 1617.4h1.9002" fill="none" stroke="#000" stroke-width=".32328px"/>
     </g>
     <path d="m-1076 1515.7h1.9001" fill="none" opacity="1" stroke="#000" stroke-width=".32328px"/>
    </g>
    <g stroke="#000">
     <path d="m2879.7 129.77h11.052v62.331h-11.052z" fill="none" opacity=".99" stroke-opacity=".99608" stroke-width=".27079"/>
     <g transform="rotate(90,2459.8,2374)" fill="#fff" opacity="1">
      <path d="m222.76 1956.6c3.2844 0 5.9482 3.9569 5.9482 8.8447 0 4.8621-2.6638 8.8189-5.9482 8.8189s-5.9224-3.9568-5.9224-8.8189c0-4.8878 2.6379-8.8447 5.9224-8.8447z" stroke-width=".3362px"/>
      <path d="m223.76 1965.4c0 0.5431-0.43965 0.9828-1.0086 0.9828-0.5431 0-0.98275-0.4397-0.98275-0.9828s0.43965-0.9827 0.98275-0.9827c0.56896 0 1.0086 0.4396 1.0086 0.9827z" stroke-width=".23276px"/>
      <path d="m223.32 1965.4c0 0.3104-0.25862 0.569-0.56896 0.569s-0.56896-0.2586-0.56896-0.569c0-0.3103 0.25862-0.5689 0.56896-0.5689s0.56896 0.2586 0.56896 0.5689z" stroke-width=".15517px"/>
      <path d="m219.03 1964.7v1.5h-3.4655v-1.5z" stroke-width=".25862px"/>
     </g>
     <rect x="2896.2" y="129.77" width="12.769" height="8.2359" fill="#f9f9f9" fill-opacity=".50196" opacity=".99" stroke-opacity=".99608" stroke-width=".31034"/>
     <g transform="matrix(0,-1.5027,1.5027,0,-7.0109,-152.14)" opacity="1">
      <g stroke-width=".20653">
       <rect x="-201.77" y="1947.7" width="19.9" height="18.809" rx="1.9921" ry="1.9921" fill="#fff" opacity="1" stroke-opacity=".99497"/>
       <g transform="translate(19.012,4.1434)" fill="#fff">
        <circle cx="-210.91" cy="1953.3" r=".72722" opacity="1"/>
        <circle cx="-210.91" cy="1953.3" r=".41555" opacity="1"/>
       </g>
       <path d="m-185.27 1949.1c0.70114 0.1962 1.5539 0.3415 1.3896 1.8545v12.61c-0.064 0.982-0.69779 1.15-1.326 1.326h-13.643c-1.2877 0.2067-1.4301-1.0646-1.4301-1.4301v-12.739c0.15895-1.0847 0.81916-1.334 1.4602-1.6152z" fill="none"/>
      </g>
      <polygon transform="matrix(.24735 0 0 .24735 -197.56 1946.8)" points="20 14 20 0 26 0 26 14" fill="#fff" opacity="1" stroke-width=".83497"/>
     </g>
    </g>
    <g transform="matrix(-.33574 0 0 -.69091 2685.7 1246.6)" opacity="1">
     <g transform="translate(-221.27,-101.72)">
      <g transform="translate(-656.05,461.66)" fill="#fff">
       <rect x="-196.58" y="1147.4" width="200.6" height="10.959" opacity="1" stroke="#fff" stroke-width=".29575"/>
       <g transform="matrix(1,0,0,-1,0,2306.9)" stroke="#000">
        <rect x="-196.57" y="1150.7" width="200.58" height="5.4984" opacity="1" stroke-width=".32311"/>
        <g stroke-width=".32328">
         <path d="m4.0426 1151.6h-200.52"/>
         <path d="m4.0219 1152.5h-200.64"/>
         <path d="m4.0503 1153.5h-200.61"/>
        </g>
       </g>
      </g>
      <path d="m-651.88 1617.4h1.9002" fill="none" stroke="#000" stroke-width=".32328px"/>
     </g>
     <path d="m-1076 1515.7h1.9001" fill="none" opacity="1" stroke="#000" stroke-width=".32328px"/>
    </g>
    <path d="m3080 205.31h3.2846v50.916h-3.2846z" fill="#fff" fill-opacity=".99608" opacity=".99" stroke="#010101" stroke-opacity=".98824" stroke-width=".31034"/>
    <path d="m3108.4 205.31h3.2846v50.916h-3.2846z" fill="#fff" fill-opacity=".99608" opacity=".99" stroke="#010101" stroke-opacity=".98824" stroke-width=".31034"/>
    <g fill="#f0f0ff" stroke="#000">
     <g transform="matrix(.29416 0 0 .36991 2385.5 19.163)" opacity=".99">
      <polygon points="30.28 640.89 45.28 640.89 45.28 544.03 30.28 544.03"/>
      <polygon points="45.28 544.03 30.28 544.03 30.28 640.89 45.28 640.89" stroke-width=".94769"/>
      <line x1="37.782" x2="37.782" y1="633.39" y2="551.53"/>
      <line x1="45.282" x2="30.282" y1="633.39" y2="633.39" stroke-width=".94769"/>
      <line x1="45.282" x2="30.282" y1="551.53" y2="551.53" stroke-width=".94769"/>
     </g>
     <g transform="matrix(0 -.40583 .21882 0 3046.6 641.06)" display="block" opacity=".99">
      <polygon points="988.26 782.26 988.26 797.26 1142.2 797.26 1142.2 782.26"/>
      <g display="block">
       <polygon points="1142.2 782.26 988.26 782.26 988.26 797.26 1142.2 797.26" stroke-width=".9099"/>
      </g>
      <g display="block">
       <line x1="1134.7" x2="995.76" y1="789.76" y2="789.76"/>
       <line x1="1134.7" x2="1134.7" y1="782.26" y2="797.26"/>
       <line x1="995.76" x2="995.76" y1="782.26" y2="797.26"/>
      </g>
     </g>
     <g transform="matrix(.2934 0 0 .4721 3209.2 -241.69)" opacity=".99">
      <polygon points="30.28 544.03 30.28 640.89 45.28 640.89 45.28 544.03"/>
      <polygon points="45.28 640.89 45.28 544.03 30.28 544.03 30.28 640.89" stroke-width=".94769"/>
      <line x1="37.782" x2="37.782" y1="633.39" y2="551.53"/>
      <line x1="45.282" x2="30.282" y1="633.39" y2="633.39" stroke-width=".94769"/>
      <line x1="45.282" x2="30.282" y1="551.53" y2="551.53" stroke-width=".94769"/>
     </g>
    </g>
    <g transform="matrix(1.0754,0,0,1,3780.6,-1294.5)" opacity="1" stroke="#000">
     <g transform="translate(64.167 -.55228)" fill="#fff">
      <g transform="translate(-.32818 -9.0231)" fill="#fff">
       <rect x="-713.85" y="1501.3" width="24.222" height="7.851" opacity="1" stroke="none"/>
       <rect x="-725.99" y="1506.8" width="24.246" height="1.7014" opacity="1" stroke="#000" stroke-width=".36516"/>
      </g>
     </g>
     <path d="m-625.76 1494.8v2.0859" fill="none" stroke-width=".046805"/>
    </g>
    <g transform="matrix(.2934 0 0 .4721 3209.2 -861.4)" fill="#f0f0ff" opacity=".99" stroke="#000">
     <polygon points="45.28 640.89 45.28 544.03 30.28 544.03 30.28 640.89"/>
     <polygon points="30.28 544.03 30.28 640.89 45.28 640.89 45.28 544.03" stroke-width=".94769"/>
     <line x1="37.782" x2="37.782" y1="633.39" y2="551.53"/>
     <line x1="45.282" x2="30.282" y1="633.39" y2="633.39" stroke-width=".94769"/>
     <line x1="45.282" x2="30.282" y1="551.53" y2="551.53" stroke-width=".94769"/>
    </g>
    <rect x="3312.6" y="-390.18" width="12.344" height="89.251" fill="#fff" fill-opacity=".99608" opacity=".99" stroke="#010101" stroke-opacity=".98824" stroke-width=".31034"/>
    <g transform="rotate(90,3685.9,1737)" opacity=".99">
     <rect x="1631" y="2115.6" width="15.846" height="30.445" fill="none" opacity=".99" stroke="#010101" stroke-opacity=".98824" stroke-width=".29292"/>
     <g transform="translate(1.3426e-5 .13008)" fill="#fff" stroke="#000">
      <circle transform="rotate(-90)" cx="-2122.3" cy="1638.9" r=".95294" opacity="1" stroke-width=".24246"/>
      <circle transform="rotate(-90)" cx="-2122.3" cy="1638.9" r=".54454" opacity="1" stroke-width=".16164"/>
      <polygon transform="matrix(0 -.27227 .27227 0 1642.8 2131.9)" points="38 4.9 38 18.9 32 18.9 32 4.9" opacity="1" stroke-width="1.1873"/>
      <circle transform="rotate(-90)" cx="-2139" cy="1638.9" r=".95294" opacity="1" stroke-width=".24246"/>
      <circle transform="rotate(-90)" cx="-2139" cy="1638.9" r=".54454" opacity="1" stroke-width=".16164"/>
      <polygon transform="matrix(0 -.27227 .27227 0 1642.8 2148.5)" points="38 18.9 32 18.9 32 4.9 38 4.9" opacity="1" stroke-width="1.1873"/>
     </g>
    </g>
    <g transform="matrix(0 .86596 .86596 0 903.33 -349.04)" opacity="1" stroke="#000">
     <rect x="-201.77" y="1947.7" width="19.9" height="18.809" rx="1.9921" ry="1.9921" fill="#fff" opacity="1" stroke-opacity=".99497" stroke-width=".56486"/>
     <g transform="translate(19.012,4.1434)" fill="#fff">
      <circle cx="-210.91" cy="1953.3" r=".72722" opacity="1" stroke-width=".17795"/>
      <circle cx="-210.91" cy="1953.3" r=".41555" opacity="1" stroke-width=".11863"/>
     </g>
     <path d="m-185.27 1949.1c0.70114 0.1962 1.5539 0.3415 1.3896 1.8545v12.61c-0.064 0.982-0.69779 1.15-1.326 1.326h-13.643c-1.2877 0.2067-1.4301-1.0646-1.4301-1.4301v-12.739c0.15895-1.0847 0.81916-1.334 1.4602-1.6152z" fill="none" stroke-width=".32328px"/>
     <polygon transform="matrix(.24735 0 0 .24735 -197.56 1946.8)" points="20 14 20 0 26 0 26 14" fill="#fff" opacity="1"/>
    </g>
    <text x="3252.3347" y="194.38622" font-family="Verdana" font-size="6.8965px" opacity=".99" stroke-width=".32327" text-align="center" text-anchor="middle" style="line-height:1.25" xml:space="preserve"><tspan x="3252.3347" y="194.38622" font-family="Verdana" font-size="6.8965px" stroke-width=".32327">STORAGE ROOM</tspan></text>
    <text x="3252.415" y="203.29369" font-family="Verdana" font-size="6.8965px" opacity=".99" stroke-width=".32327" text-align="center" text-anchor="middle" style="line-height:1.25" xml:space="preserve"><tspan x="3252.415" y="203.29369" font-family="Verdana" font-size="6.8965px" stroke-width=".32327">1.92 m x 4.85 m</tspan></text>
    <polygon transform="matrix(0 .35604 -.35604 0 3252.1 117.93)" points="5 5 0 0 5 -5" display="block" opacity=".99"/>
    <polygon transform="matrix(0 -.35604 -.35604 0 3252.1 274.74)" points="0 0 5 -5 5 5" display="block" opacity=".99"/>
    <polygon transform="matrix(.35604 0 0 -.35604 3221 196.25)" points="0 0 5 -5 5 5" display="block" opacity=".99"/>
    <polygon transform="matrix(-.35604 0 0 -.35604 3283.1 196.25)" points="5 5 0 0 5 -5" display="block" opacity=".99"/>
    <text x="3273.896" y="-346.80466" font-family="Verdana" font-size="6.8965px" opacity=".99" stroke-width=".32327" text-align="center" text-anchor="middle" style="line-height:1.25" xml:space="preserve"><tspan x="3273.896" y="-346.80466" font-family="Verdana" font-size="6.8965px" stroke-width=".32327">UTILITY ROOM</tspan></text>
    <text x="3273.9763" y="-337.89719" font-family="Verdana" font-size="6.8965px" opacity=".99" stroke-width=".32327" text-align="center" text-anchor="middle" style="line-height:1.25" xml:space="preserve"><tspan x="3273.9763" y="-337.89719" font-family="Verdana" font-size="6.8965px" stroke-width=".32327">5.61 m x 2.77 m</tspan></text>
    <polygon transform="matrix(-.35604 0 0 -.35604 3402.6 -343.83)" points="0 0 5 -5 5 5" display="block" opacity=".99"/>
    <polygon transform="matrix(.35604 0 0 -.35604 3221 -343.83)" points="5 -5 5 5 0 0" display="block" opacity=".99"/>
    <polygon transform="matrix(0 .35604 .35604 0 3274.1 -390.18)" points="5 -5 5 5 0 0" display="block" opacity=".99"/>
    <polygon transform="matrix(0 -.35604 .35604 0 3264.7 -300.93)" points="0 0 5 -5 5 5" display="block" opacity=".99"/>
    <text x="2903.3206" y="-473.71307" font-family="Verdana" font-size="6.8965px" opacity=".99" stroke-width=".32327" text-align="center" text-anchor="middle" style="line-height:1.25" xml:space="preserve"><tspan x="2903.3206" y="-473.71307" font-family="Verdana" font-size="6.8965px" stroke-width=".32327">MECHANICAL ROOM</tspan></text>
    <text x="2903.4009" y="-464.80563" font-family="Verdana" font-size="6.8965px" opacity=".99" stroke-width=".32327" text-align="center" text-anchor="middle" style="line-height:1.25" xml:space="preserve"><tspan x="2903.4009" y="-464.80563" font-family="Verdana" font-size="6.8965px" stroke-width=".32327">19.46 m x 13.92 m</tspan></text>
    <polygon transform="matrix(-.35604 0 0 -.35604 3217.8 -470.74)" points="5 -5 5 5 0 0" display="block" opacity=".99"/>
    <polygon transform="matrix(.35604 0 0 -.35604 2589.1 -470.74)" points="5 5 0 0 5 -5" display="block" opacity=".99"/>
    <polygon transform="matrix(0 .35604 .35604 0 2903.5 -695.19)" points="5 5 0 0 5 -5" display="block" opacity=".99"/>
    <polygon transform="matrix(0 -.35604 .35604 0 2903.5 -246.28)" points="5 -5 5 5 0 0" display="block" opacity=".99"/>
    <text x="2903.3218" y="-26.374468" font-family="Verdana" font-size="6.8965px" opacity=".99" stroke-width=".32327" text-align="center" text-anchor="middle" style="line-height:1.25" xml:space="preserve"><tspan x="2903.3218" y="-26.374468" font-family="Verdana" font-size="6.8965px" stroke-width=".32327">MECHANICAL ROOM</tspan></text>
    <text x="2903.4021" y="-17.467028" font-family="Verdana" font-size="6.8965px" opacity=".99" stroke-width=".32327" text-align="center" text-anchor="middle" style="line-height:1.25" xml:space="preserve"><tspan x="2903.4021" y="-17.467028" font-family="Verdana" font-size="6.8965px" stroke-width=".32327">19.46 m x 13.77 m</tspan></text>
    <polygon transform="matrix(-.35604 0 0 -.35604 3217.8 -24.568)" points="5 5 0 0 5 -5" display="block" opacity=".99"/>
    <polygon transform="matrix(.35604 0 0 -.35604 2589.1 -23.396)" points="5 5 0 0 5 -5" display="block" opacity=".99"/>
    <polygon transform="matrix(0 .35604 .35604 0 2903.5 -246.28)" points="5 5 0 0 5 -5" display="block" opacity=".99"/>
    <polygon transform="matrix(0 -.35604 .35604 0 3058.9 199.44)" points="5 -5 5 5 0 0" display="block" opacity=".99"/>
    <text x="3168.2991" y="233.31688" font-family="Verdana" font-size="6.8965px" opacity=".99" stroke-width=".32327" text-align="center" text-anchor="middle" style="line-height:1.25" xml:space="preserve"><tspan x="3168.2991" y="233.31688" font-family="Verdana" font-size="6.8965px" stroke-width=".32327">HALLWAY</tspan></text>
    <text x="3168.3794" y="242.22435" font-family="Verdana" font-size="6.8965px" opacity=".99" stroke-width=".32327" text-align="center" text-anchor="middle" style="line-height:1.25" xml:space="preserve"><tspan x="3168.3794" y="242.22435" font-family="Verdana" font-size="6.8965px" stroke-width=".32327">3.18 m x 2.32 m</tspan></text>
    <polygon transform="matrix(-.35604 0 0 -.35604 3217.8 236.29)" points="5 -5 5 5 0 0" display="block" opacity=".99"/>
    <polygon transform="matrix(.35604 0 0 -.35604 3115 236.29)" points="5 5 0 0 5 -5" display="block" opacity=".99"/>
    <polygon transform="matrix(0 .35604 .35604 0 3168.5 199.44)" points="5 5 0 0 5 -5" display="block" opacity=".99"/>
    <polygon transform="matrix(0 -.35604 .35604 0 3168.5 274.74)" points="5 -5 5 5 0 0" display="block" opacity=".99"/>
    <text transform="rotate(-90)" x="-238.03136" y="3063.3936" font-family="Verdana" font-size="6.8965px" opacity=".99" stroke-width=".32327" text-align="center" text-anchor="middle" style="line-height:1.25" xml:space="preserve"><tspan x="-238.03136" y="3063.3936" font-family="Verdana" font-size="6.8965px" stroke-width=".32327">HALLWAY</tspan></text>
    <text transform="rotate(-90)" x="-237.95091" y="3072.301" font-family="Verdana" font-size="6.8965px" opacity=".99" stroke-width=".32327" text-align="center" text-anchor="middle" style="line-height:1.25" xml:space="preserve"><tspan x="-237.95091" y="3072.301" font-family="Verdana" font-size="6.8965px" stroke-width=".32327">1.83 m x 2.23 m</tspan></text>
    <polygon transform="matrix(0 .35604 -.35604 0 3058.9 202.73)" points="0 0 5 -5 5 5" display="block" opacity=".99"/>
    <polygon transform="matrix(0 -.35604 -.35604 0 3060.9 274.74)" points="0 0 5 -5 5 5" display="block" opacity=".99"/>
    <polygon transform="matrix(.35604 0 0 -.35604 3052.6 237.85)" points="0 0 5 -5 5 5" display="block" opacity=".99"/>
    <polygon transform="matrix(-.35604 0 0 -.35604 3111.7 262.77)" points="0 0 5 -5 5 5" display="block" opacity=".99"/>
    <text x="2981.9263" y="235.75389" font-family="Verdana" font-size="6.8965px" opacity=".99" stroke-width=".32327" text-align="center" text-anchor="middle" style="line-height:1.25" xml:space="preserve"><tspan x="2981.9263" y="235.75389" font-family="Verdana" font-size="6.8965px" stroke-width=".32327">MECHANICAL ROOM</tspan></text>
    <text x="2982.0063" y="244.66136" font-family="Verdana" font-size="6.8965px" opacity=".99" stroke-width=".32327" text-align="center" text-anchor="middle" style="line-height:1.25" xml:space="preserve"><tspan x="2982.0063" y="244.66136" font-family="Verdana" font-size="6.8965px" stroke-width=".32327">4.17 m x 2.23 m</tspan></text>
    <polygon transform="matrix(-.35604 0 0 -.35604 3049.3 238.73)" points="5 -5 5 5 0 0" display="block" opacity=".99"/>
    <polygon transform="matrix(0 .35604 .35604 0 2982.1 202.93)" points="5 5 0 0 5 -5" display="block" opacity=".99"/>
    <text x="2877.7075" y="230.45653" font-family="Verdana" font-size="6.8965px" opacity=".99" stroke-width=".32327" text-align="center" text-anchor="middle" style="line-height:1.25" xml:space="preserve"><tspan x="2877.7075" y="230.45653" font-family="Verdana" font-size="6.8965px" stroke-width=".32327">HALLWAY</tspan></text>
    <text x="2877.7876" y="239.364" font-family="Verdana" font-size="6.8965px" opacity=".99" stroke-width=".32327" text-align="center" text-anchor="middle" style="line-height:1.25" xml:space="preserve"><tspan x="2877.7876" y="239.364" font-family="Verdana" font-size="6.8965px" stroke-width=".32327">2.07 m x 2.35 m</tspan></text>
    <polygon transform="matrix(.35604 0 0 -.35604 2844.4 233.43)" points="5 5 0 0 5 -5" display="block" opacity=".99"/>
    <polygon transform="matrix(0 .35604 .35604 0 2877.9 195.39)" points="0 0 5 -5 5 5" display="block" opacity=".99"/>
    <polygon transform="matrix(0 -.35604 .35604 0 2877.9 271.48)" points="5 -5 5 5 0 0" display="block" opacity=".99"/>
    <text transform="rotate(-90)" x="-164.42723" y="2877.8093" font-family="Verdana" font-size="5.5172px" opacity=".99" stroke-width=".25862" text-align="center" text-anchor="middle" style="line-height:1.25" xml:space="preserve"><tspan x="-164.42723" y="2877.8093" font-family="Verdana" font-size="5.5172px" stroke-width=".25862">UTILITY ROOM</tspan></text>
    <text transform="rotate(-90)" x="-164.36327" y="2884.9353" font-family="Verdana" font-size="5.5172px" opacity=".99" stroke-width=".25862" text-align="center" text-anchor="middle" style="line-height:1.25" xml:space="preserve"><tspan x="-164.36327" y="2884.9353" font-family="Verdana" font-size="5.5172px" stroke-width=".25862">2.07 m x 1.93 m</tspan></text>
    <polygon transform="matrix(0 .35604 -.35604 0 2855.2 129.77)" points="0 0 5 -5 5 5" display="block" opacity=".99"/>
    <polygon transform="matrix(0 -.35604 -.35604 0 2876 192.1)" points="5 5 0 0 5 -5" display="block" opacity=".99"/>
    <polygon transform="matrix(.35604 0 0 -.35604 2844.4 160.4)" points="5 -5 5 5 0 0" display="block" opacity=".99"/>
    <polygon transform="matrix(-.35604 0 0 -.35604 2911.4 161.55)" points="0 0 5 -5 5 5" display="block" opacity=".99"/>
    <text x="2775.2656" y="197.64867" font-family="Verdana" font-size="6.8965px" opacity=".99" stroke-width=".32327" text-align="center" text-anchor="middle" style="line-height:1.25" xml:space="preserve"><tspan x="2775.2656" y="197.64867" font-family="Verdana" font-size="6.8965px" stroke-width=".32327">MECHANICAL ROOM</tspan></text>
    <text x="2775.3459" y="206.55614" font-family="Verdana" font-size="6.8965px" opacity=".99" stroke-width=".32327" text-align="center" text-anchor="middle" style="line-height:1.25" xml:space="preserve"><tspan x="2775.3459" y="206.55614" font-family="Verdana" font-size="6.8965px" stroke-width=".32327">4.06 m x 4.38 m</tspan></text>
    <polygon transform="matrix(-.35604 0 0 -.35604 2841.1 200.63)" points="5 -5 5 5 0 0" display="block" opacity=".99"/>
    <polygon transform="matrix(.35604 0 0 -.35604 2709.6 193.84)" points="5 5 0 0 5 -5" display="block" opacity=".99"/>
    <polygon transform="matrix(0 .35604 .35604 0 2775.4 129.77)" points="5 5 0 0 5 -5" display="block" opacity=".99"/>
    <polygon transform="matrix(0 -.35604 .35604 0 2775.4 271.48)" points="5 -5 5 5 0 0" display="block" opacity=".99"/>
    <text x="2647.6948" y="197.63353" font-family="Verdana" font-size="6.8965px" opacity=".99" stroke-width=".32327" text-align="center" text-anchor="middle" style="line-height:1.25" xml:space="preserve"><tspan x="2647.6948" y="197.63353" font-family="Verdana" font-size="6.8965px" stroke-width=".32327">HALLWAY</tspan></text>
    <text x="2647.7751" y="206.541" font-family="Verdana" font-size="6.8965px" opacity=".99" stroke-width=".32327" text-align="center" text-anchor="middle" style="line-height:1.25" xml:space="preserve"><tspan x="2647.7751" y="206.541" font-family="Verdana" font-size="6.8965px" stroke-width=".32327">3.63 m x 4.60 m</tspan></text>
    <polygon transform="matrix(-.35604 0 0 -.35604 2706.3 193.76)" points="5 5 0 0 5 -5" display="block" opacity=".99"/>
    <polygon transform="matrix(.35604 0 0 -.35604 2589.2 200.61)" points="5 5 0 0 5 -5" display="block" opacity=".99"/>
    <polygon transform="matrix(0 .35604 .35604 0 2647.9 126.49)" points="5 5 0 0 5 -5" display="block" opacity=".99"/>
    <polygon transform="matrix(0 -.35604 .35604 0 2647.9 274.74)" points="5 -5 5 5 0 0" display="block" opacity=".99"/>
    <text x="2547.6663" y="36.769085" font-family="Verdana" font-size="6.8965px" opacity=".99" stroke-width=".32327" text-align="center" text-anchor="middle" style="line-height:1.25" xml:space="preserve"><tspan x="2547.6663" y="36.769085" font-family="Verdana" font-size="6.8965px" stroke-width=".32327">MECHANICAL ROOM</tspan></text>
    <text x="2547.7466" y="45.676495" font-family="Verdana" font-size="6.8965px" opacity=".99" stroke-width=".32327" text-align="center" text-anchor="middle" style="line-height:1.25" xml:space="preserve"><tspan x="2547.7466" y="45.676495" font-family="Verdana" font-size="6.8965px" stroke-width=".32327">2.34 m x 1.79 m</tspan></text>
    <polygon transform="matrix(-.35604 0 0 -.35604 2586 39.747)" points="5 5 0 0 5 -5" display="block" opacity=".99"/>
    <polygon transform="matrix(.35604 0 0 -.35604 2507.2 39.747)" points="0 0 5 -5 5 5" display="block" opacity=".99"/>
    <polygon transform="matrix(0 .35604 .35604 0 2543.2 20.721)" points="0 0 5 -5 5 5" display="block" opacity=".99"/>
    <polygon transform="matrix(0 -.35604 .35604 0 2525.1 78.75)" points="0 0 5 -5 5 5" display="block" opacity=".99"/>
    <text x="2531.8879" y="178.75316" font-family="Verdana" font-size="6.8965px" opacity=".99" stroke-width=".32327" text-align="center" text-anchor="middle" style="line-height:1.25" xml:space="preserve"><tspan x="2531.8879" y="178.75316" font-family="Verdana" font-size="6.8965px" stroke-width=".32327">MECHANICAL ROOM</tspan></text>
    <text x="2531.9683" y="187.66063" font-family="Verdana" font-size="6.8965px" opacity=".99" stroke-width=".32327" text-align="center" text-anchor="middle" style="line-height:1.25" xml:space="preserve"><tspan x="2531.9683" y="187.66063" font-family="Verdana" font-size="6.8965px" stroke-width=".32327">5.69 m x 4.71 m</tspan></text>
    <polygon transform="matrix(-.35604 0 0 -.35604 2583.2 200.89)" points="0 0 5 -5 5 5" display="block" opacity=".99"/>
    <polygon transform="matrix(.35604 0 0 -.35604 2399 237.98)" points="0 0 5 -5 5 5" display="block" opacity=".99"/>
    <polygon transform="matrix(0 .35604 .35604 0 2532.1 105.61)" points="0 0 5 -5 5 5" display="block" opacity=".99"/>
    <polygon transform="matrix(0 -.35604 .35604 0 2532.1 257.89)" points="5 5 0 0 5 -5" display="block" opacity=".99"/>
    <text x="2548.0518" y="399.22647" font-family="Verdana" font-size="6.8965px" opacity=".99" stroke-width=".32327" text-align="center" text-anchor="middle" style="line-height:1.25" xml:space="preserve"><tspan x="2548.0518" y="399.22647" font-family="Verdana" font-size="6.8965px" stroke-width=".32327">MECHANICAL ROOM</tspan></text>
    <text x="2548.1321" y="408.134" font-family="Verdana" font-size="6.8965px" opacity=".99" stroke-width=".32327" text-align="center" text-anchor="middle" style="line-height:1.25" xml:space="preserve"><tspan x="2548.1321" y="408.134" font-family="Verdana" font-size="6.8965px" stroke-width=".32327">5.32 m x 8.03 m</tspan></text>
    <polygon transform="matrix(-.35604 0 0 -.35604 2651.5 293.38)" points="5 5 0 0 5 -5" display="block" opacity=".99"/>
    <polygon transform="matrix(.35604 0 0 -.35604 2479.2 415.01)" points="5 -5 5 5 0 0" display="block" opacity=".99"/>
    <polygon transform="matrix(0 .35604 .35604 0 2548.2 284.08)" points="5 -5 5 5 0 0" display="block" opacity=".99"/>
    <polygon transform="matrix(0 -.35604 .35604 0 2548.2 542.38)" points="0 0 5 -5 5 5" display="block" opacity=".99"/>
    <text x="2733.4092" y="410.25381" font-family="Verdana" font-size="6.8965px" opacity=".99" stroke-width=".32327" text-align="center" text-anchor="middle" style="line-height:1.25" xml:space="preserve"><tspan x="2733.4092" y="410.25381" font-family="Verdana" font-size="6.8965px" stroke-width=".32327">MECHANICAL ROOM</tspan></text>
    <text x="2733.4893" y="419.16135" font-family="Verdana" font-size="6.8965px" opacity=".99" stroke-width=".32327" text-align="center" text-anchor="middle" style="line-height:1.25" xml:space="preserve"><tspan x="2733.4893" y="419.16135" font-family="Verdana" font-size="6.8965px" stroke-width=".32327">6.88 m x 8 m</tspan></text>
    <polygon transform="matrix(-.35604 0 0 -.35604 2844.9 413.23)" points="5 5 0 0 5 -5" display="block" opacity=".99"/>
    <polygon transform="matrix(.35604 0 0 -.35604 2622.1 413.23)" points="0 0 5 -5 5 5" display="block" opacity=".99"/>
    <polygon transform="matrix(0 .35604 .35604 0 2733.6 284.08)" points="0 0 5 -5 5 5" display="block" opacity=".99"/>
    <polygon transform="matrix(0 -.35604 .35604 0 2733.6 542.38)" points="0 0 5 -5 5 5" display="block" opacity=".99"/>
    <text x="2438.0122" y="351.58981" font-family="Verdana" font-size="6.8965px" opacity=".99" stroke-width=".32327" text-align="center" text-anchor="middle" style="line-height:1.25" xml:space="preserve"><tspan x="2438.0122" y="351.58981" font-family="Verdana" font-size="6.8965px" stroke-width=".32327">MECHANICAL ROOM</tspan></text>
    <text x="2438.0923" y="360.49728" font-family="Verdana" font-size="6.8965px" opacity=".99" stroke-width=".32327" text-align="center" text-anchor="middle" style="line-height:1.25" xml:space="preserve"><tspan x="2438.0923" y="360.49728" font-family="Verdana" font-size="6.8965px" stroke-width=".32327">2.38 m x 5.03 m</tspan></text>
    <polygon transform="matrix(-.35604 0 0 -.35604 2475.9 344.05)" points="5 -5 5 5 0 0" display="block" opacity=".99"/>
    <polygon transform="matrix(.35604 0 0 -.35604 2399 343.6)" points="5 5 0 0 5 -5" display="block" opacity=".99"/>
    <polygon transform="matrix(0 .35604 .35604 0 2438.2 269.84)" points="5 5 0 0 5 -5" display="block" opacity=".99"/>
    <polygon transform="matrix(0 -.35604 .35604 0 2438.2 432.35)" points="5 -5 5 5 0 0" display="block" opacity=".99"/>
    <text x="3326.571" y="-112.87321" font-family="Verdana" font-size="6.8965px" opacity=".99" stroke-width=".32327" text-align="center" text-anchor="middle" style="line-height:1.25" xml:space="preserve"><tspan x="3326.571" y="-112.87321" font-family="Verdana" font-size="6.8965px" stroke-width=".32327">STORAGE ROOM</tspan></text>
    <text x="3326.6511" y="-103.96577" font-family="Verdana" font-size="6.8965px" opacity=".99" stroke-width=".32327" text-align="center" text-anchor="middle" style="line-height:1.25" xml:space="preserve"><tspan x="3326.6511" y="-103.96577" font-family="Verdana" font-size="6.8965px" stroke-width=".32327">6.53 m x 3.48 m</tspan></text>
    <polygon transform="matrix(-.35604 0 0 -.35604 3432.3 -109.9)" points="5 -5 5 5 0 0" display="block" opacity=".99"/>
    <polygon transform="matrix(.35604 0 0 -.35604 3221 -109.9)" points="5 5 0 0 5 -5" display="block" opacity=".99"/>
    <polygon transform="matrix(0 .35604 .35604 0 3326.8 -166.02)" points="5 5 0 0 5 -5" display="block" opacity=".99"/>
    <polygon transform="matrix(0 -.35604 .35604 0 3326.8 -53.775)" points="5 -5 5 5 0 0" display="block" opacity=".99"/>
    <g transform="matrix(-.45241 0 0 1 2720.3 -2210.9)" opacity="1">
     <g transform="translate(-221.27,-101.72)">
      <g transform="translate(-656.05,461.66)" fill="#fff">
       <rect x="-196.58" y="1147.4" width="200.6" height="10.959" opacity="1" stroke="#fff" stroke-width=".29575"/>
       <g transform="matrix(1,0,0,-1,0,2306.9)" stroke="#000">
        <rect x="-196.57" y="1150.7" width="200.58" height="5.4984" opacity="1" stroke-width=".32311"/>
        <g stroke-width=".32328">
         <path d="m4.0426 1151.6h-200.52"/>
         <path d="m4.0219 1152.5h-200.64"/>
         <path d="m4.0503 1153.5h-200.61"/>
        </g>
       </g>
      </g>
      <path d="m-651.88 1617.4h1.9002" fill="none" stroke="#000" stroke-width=".32328px"/>
     </g>
     <path d="m-1076 1515.7h1.9001" fill="none" opacity="1" stroke="#000" stroke-width=".32328px"/>
    </g>
    <g transform="matrix(-.33574 0 0 -.69091 2685.9 1321.9)" opacity="1">
     <g transform="translate(-221.27,-101.72)">
      <g transform="translate(-656.05,461.66)" fill="#fff">
       <path d="m-196.58 1131h200.6v27.336h-200.6z" opacity="1" stroke="#fff" stroke-width=".29575"/>
       <g transform="matrix(1,0,0,-1,0,2306.9)" stroke="#000">
        <rect x="-196.57" y="1150.7" width="200.58" height="5.4984" opacity="1" stroke-width=".32311"/>
        <g stroke-width=".32328">
         <path d="m4.0426 1151.6h-200.52"/>
         <path d="m4.0219 1152.5h-200.64"/>
         <path d="m4.0503 1153.5h-200.61"/>
        </g>
       </g>
      </g>
      <path d="m-651.88 1617.4h1.9002" fill="none" stroke="#000" stroke-width=".32328px"/>
     </g>
     <path d="m-1076 1515.7h1.9001" fill="none" opacity="1" stroke="#000" stroke-width=".32328px"/>
    </g>
    <polygon transform="matrix(0 -.35604 .35604 0 2982.1 274.42)" points="5 -5 5 5 0 0" display="block" opacity=".99"/>
    <g transform="matrix(0 .45241 1 0 1073.5 -195.85)" opacity="1">
     <g transform="translate(-221.27,-101.72)">
      <g transform="translate(-656.05,461.66)" fill="#fff">
       <rect x="-196.58" y="1147.4" width="200.6" height="10.959" opacity="1" stroke="#fff" stroke-width=".29575"/>
       <g transform="matrix(1,0,0,-1,0,2306.9)" stroke="#000">
        <rect x="-196.57" y="1150.7" width="200.58" height="5.4984" opacity="1" stroke-width=".32311"/>
        <g stroke-width=".32328">
         <path d="m4.0426 1151.6h-200.52"/>
         <path d="m4.0219 1152.5h-200.64"/>
         <path d="m4.0503 1153.5h-200.61"/>
        </g>
       </g>
      </g>
      <path d="m-651.88 1617.4h1.9002" fill="none" stroke="#000" stroke-width=".32328px"/>
     </g>
     <path d="m-1076 1515.7h1.9001" fill="none" opacity="1" stroke="#000" stroke-width=".32328px"/>
    </g>
    <g transform="matrix(0 -.30687 .69091 0 1867.5 -64.35)" opacity="1">
     <g transform="translate(-221.27,-101.72)">
      <g transform="translate(-656.05,461.66)" fill="#fff">
       <path d="m-196.58 1148.3h200.6v10.052h-200.6z" opacity="1" stroke="#fff" stroke-width=".17934"/>
       <g transform="matrix(1,0,0,-1,0,2306.9)" stroke="#000">
        <rect x="-196.57" y="1150.7" width="200.58" height="5.4984" opacity="1" stroke-width=".32311"/>
        <g stroke-width=".32328">
         <path d="m4.0426 1151.6h-200.52"/>
         <path d="m4.0219 1152.5h-200.64"/>
         <path d="m4.0503 1153.5h-200.61"/>
        </g>
       </g>
      </g>
      <path d="m-651.88 1617.4h1.9002" fill="none" stroke="#000" stroke-width=".32328px"/>
     </g>
     <path d="m-1076 1515.7h1.9001" fill="none" opacity="1" stroke="#000" stroke-width=".32328px"/>
    </g>
    <polygon transform="matrix(.35604 0 0 -.35604 2914.7 233.99)" points="0 0 5 -5 5 5" display="block" opacity=".99"/>
    <polygon transform="matrix(-.35604 0 0 -.35604 2911.2 234.07)" points="5 5 0 0 5 -5" display="block" opacity=".99"/>
   </g>
   <g transform="matrix(-.62017 0 0 -.68804 679.11 680.82)" fill="#fff" stroke="#000">
    <rect x="508.46" y="1111.6" width="13.601" height="20.283" stroke-opacity=".99497" stroke-width=".32328"/>
    <polygon transform="matrix(0 -.24735 .24735 0 507.07 1127.1)" points="20 0 26 0 26 14 20 14"/>
    <g transform="translate(32.725 -2.7602)">
     <circle cx="481.95" cy="1124.1" r=".99082" stroke-width=".24246"/>
     <circle cx="481.95" cy="1124.1" r=".56618" stroke-width=".16164"/>
    </g>
   </g>
   <path d="m151 43.942v26.903l1.138-0.30456v-26.598z" stroke="#000" stroke-width=".26472px"/>
   <g transform="matrix(-.37784 0 0 .37784 78.271 -852.66)" stroke="#000" stroke-linecap="square" stroke-miterlimit="10" stroke-width=".32328">
    <path d="m-192.3 2419.8c11.317 0 20.492 9.1746 20.492 20.492h-20.492z" fill="none"/>
    <path d="m-195.59 2441.5v-22.991h3.2846v22.991z" fill="#fff"/>
   </g>
   <g transform="matrix(-.31734 0 0 -.31734 332.2 382.77)" fill="#fff" stroke="#000">
    <rect x="508.46" y="1114.9" width="13.601" height="13.601" rx="3.1397" ry="3.1397" stroke-opacity=".99497" stroke-width=".32328"/>
    <polygon transform="matrix(0 -.24735 .24735 0 507.07 1127.1)" points="26 14 20 14 20 0 26 0"/>
    <g transform="translate(32.725 -2.7602)">
     <circle cx="481.95" cy="1124.1" r=".99082" stroke-width=".24246"/>
     <circle cx="481.95" cy="1124.1" r=".56618" stroke-width=".16164"/>
    </g>
   </g>
  </g>
 </g>
</svg>
