<?xml version="1.0" encoding="UTF-8"?>
<svg width="40.222in" height="28.444in" version="1.1" viewBox="0 0 1021.6 722.48" xmlns="http://www.w3.org/2000/svg" xmlns:cc="http://creativecommons.org/ns#" xmlns:dc="http://purl.org/dc/elements/1.1/" xmlns:rdf="http://www.w3.org/1999/02/22-rdf-syntax-ns#">
 <metadata>
  <rdf:RDF>
   <cc:Work rdf:about="">
    <dc:format>image/svg+xml</dc:format>
    <dc:type rdf:resource="http://purl.org/dc/dcmitype/StillImage"/>
    <dc:title/>
   </cc:Work>
  </rdf:RDF>
 </metadata>
 <defs>
  <clipPath>
   <path d="m2136.9 2300.1v687.3h-796.38v-687.3zm-811.62-15.24v717.78h826.86v-717.78z"/>
  </clipPath>
  <clipPath>
   <path d="m1453.5 2743.5m286.65-397.88 26.615 2.4229 26.044 5.9975 24.994 9.4622 23.486 12.753 21.548 15.81 19.213 18.577 16.527 21.003 13.537 23.043 10.298 24.662 6.8712 25.827 3.318 26.519-0.2963 26.724-3.9049 26.439-7.4419 25.668-10.842 24.427-15.094 24.438 0.9559 13.584h212.13v281.35h-687.63v-205.74h38.1v-8.1489l-16.632-8.5811-11.846-9.3894-9.8146-11.496-7.415-13.172-4.7377-14.354-1.8827-14.998 1.0431-15.08 3.9296-14.596 6.6687-13.566 9.1581-12.026 11.304-10.036 13.026-7.6692 14.26-5.0151 14.959-2.1731 15.097 0.7505 14.67 3.6457 13.692 6.4046 14.578 10.661 9.9496-2.668-7.4922-31.131-2.6845-26.59 0.9335-26.709 4.5344-26.338 8.052-25.484 11.422-24.162 14.582-22.396 17.475-20.22 20.048-17.673 22.252-14.802 24.048-11.659 25.403-8.3023 26.292-4.7932zm0.2338-10.157-28.074 1.2575-27.646 5.0401-26.711 8.7297-25.287 12.259-23.398 15.564-21.08 18.583-18.375 21.262-15.333 23.55-12.01 25.406-8.4668 26.796-4.7679 27.694-0.9815 28.085 2.8227 27.96 4.1006 17.039-5.944-4.3471-15.474-7.2378-16.579-4.1204-17.062-0.8479-16.906 2.4559-16.116 5.6677-14.721 8.6672-12.775 11.342-10.35 13.591-7.5366 15.331-4.441 16.496-1.1788 17.042 2.1277 16.95 5.3541 16.222 8.3802 14.886 11.092 12.992 10.907 8.6456h-23.637v226.06h707.95v-301.67h-212.82l-0.064-0.9102 13.718-22.209 11.401-25.685 7.8252-26.99 4.1061-27.8 0.3114-28.1-3.4888-27.884-7.2251-27.157-10.829-25.932-14.234-24.23-17.378-22.084-20.203-19.534-22.657-16.624-24.696-13.41-26.282-9.9492-27.385-6.3064z"/>
  </clipPath>
 </defs>
 <g transform="translate(0 425.48)">
  <flowRoot fill="black" font-family="sans-serif" font-size="40px" letter-spacing="0px" word-spacing="0px" style="line-height:1.25" xml:space="preserve"><flowRegion><rect x="-7071.1" y="-6638.5" width="18738" height="11384"/></flowRegion><flowPara/></flowRoot>
  <flowRoot fill="black" font-family="sans-serif" font-size="40px" letter-spacing="0px" word-spacing="0px" style="line-height:1.25" xml:space="preserve"><flowRegion><rect x="-362.39" y="-451.36" width="4684.6" height="3420.6"/></flowRegion><flowPara/></flowRoot>
  <rect x=".067574" y="-415.11" width="1021.5" height="698.13" opacity="0" stroke-width=".13438" style="paint-order:markers fill stroke"/>
  <g transform="matrix(1.2007 0 0 1.2007 34.203 -415.94)" display="block" opacity=".99">
   <g transform="matrix(.1124 0 0 .1124 674.65 562.56)" display="block">
    <svg width="1200" height="202.21" version="1.1" viewBox="0 0 1199.9794 202.21188">
     <g transform="translate(-.36395 -.17209)" display="inline">
      <path d="m101.4 36.539c-32.979-8.5808-101.04-28.797-101.04-28.797s1.178-0.40615 14.829-3.9466l13.972-3.6236c23.995 6.717 48.239 13.576 72.234 20.293 23.881-6.7048 48.01-13.588 71.891-20.293l28.903 7.5702c-33.876 10.815-73.141 21.049-100.79 28.797zm-43.109 101.6 43.109-10.973 43.108 10.973v17.458l-43.108-12.302-43.109 12.302" fill="#999"/>
     </g>
     <g transform="translate(-.36395 -.17209)" display="inline" opacity="1">
      <path d="m0.36395 194.28v-186.53l101.04 28.797v39.6l-71.255-19.367-0.80409 145.1zm100.98-13.28 0.0588-37.704 43.108 12.302-3e-5 -92.453 28.783-7.4097v146.65z" fill="#0e0a0b"/>
      <g fill-opacity="0">
       <g stroke-width=".39062">
        <path transform="translate(.36395 .17209)" d="m145.92 194.02c-14.287-4.2666-30.266-9.0335-35.509-10.593l-9.5321-2.8357 0.27957-18.37c0.15376-10.103 0.3529-18.443 0.44252-18.533 0.0896-0.0896 9.7025 2.5621 21.362 5.8928l21.199 6.0557 0.39062-91.86 14.062-4.0091c7.7344-2.205 14.106-4.0112 14.16-4.0137 0.0537-0.0025 0.0977 32.866 0.0977 73.042 0 58.195-0.0993 73.04-0.48829 73.014-0.26855-0.0182-12.178-3.5239-26.465-7.7905z"/>
        <path transform="translate(.36395 .17209)" d="m145.92 194.02c-14.287-4.2666-30.266-9.0335-35.509-10.593l-9.5321-2.8357 0.27957-18.37c0.15376-10.103 0.3529-18.443 0.44252-18.533 0.0896-0.0896 9.7025 2.5621 21.362 5.8928l21.199 6.0557 0.39062-91.86 14.062-4.0091c7.7344-2.205 14.106-4.0112 14.16-4.0137 0.0537-0.0025 0.0977 32.866 0.0977 73.042 0 58.195-0.0993 73.04-0.48829 73.014-0.26855-0.0182-12.178-3.5239-26.465-7.7905z"/>
        <path transform="translate(.36395 .17209)" d="m136.55 191.24-35.449-10.588v-37.379l0.82963 0.26331c3.1989 1.0153 41.653 11.899 42.041 11.899 0.38807 0 0.48845-9.4172 0.48845-45.825v-45.825l13.574-3.8452c7.4658-2.1148 13.794-3.9247 14.062-4.0218 0.38951-0.14093 0.48828 14.607 0.48828 72.912 0 40.199-0.13184 73.068-0.29297 73.043-0.16113-0.0249-16.245-4.8101-35.742-10.634z"/>
        <path transform="translate(.36395 .17209)" d="m136.55 191.24-35.449-10.588v-37.379l0.82963 0.26331c3.1989 1.0153 41.653 11.899 42.041 11.899 0.38807 0 0.48845-9.4172 0.48845-45.825v-45.825l13.574-3.8452c7.4658-2.1148 13.794-3.9247 14.062-4.0218 0.38951-0.14093 0.48828 14.607 0.48828 72.912 0 40.199-0.13184 73.068-0.29297 73.043-0.16113-0.0249-16.245-4.8101-35.742-10.634z"/>
        <path transform="translate(.36395 .17209)" d="m136.55 191.24-35.449-10.588v-37.379l0.82963 0.26331c3.1989 1.0153 41.653 11.899 42.041 11.899 0.38807 0 0.48845-9.4172 0.48845-45.825v-45.825l13.574-3.8452c7.4658-2.1148 13.794-3.9247 14.062-4.0218 0.38951-0.14093 0.48828 14.607 0.48828 72.912 0 40.199-0.13184 73.068-0.29297 73.043-0.16113-0.0249-16.245-4.8101-35.742-10.634z"/>
       </g>
       <g stroke-width=".55243">
        <path transform="translate(.36395 .17209)" d="m138.66 191.76c-18.23-5.4496-34.078-10.168-35.217-10.486l-2.0716-0.57766v-18.485c0-10.167 0.18644-18.485 0.41432-18.485 0.22787 2e-4 9.8608 2.6985 21.407 5.9963l20.992 5.9959 0.28248-92.606 2.0685-0.5351c1.1377-0.2943 7.0403-1.8006 13.117-3.3473s11.484-2.9477 12.015-3.1134c0.91735-0.28573 0.96675 3.4266 0.96675 72.656 0 40.127-0.18644 72.944-0.41432 72.926-0.22788-0.0172-15.33-4.4901-33.56-9.9398z"/>
        <path transform="translate(.36395 .17209)" d="m138.66 191.76c-18.23-5.4496-34.078-10.168-35.217-10.486l-2.0716-0.57766v-18.485c0-10.167 0.18644-18.485 0.41432-18.485 0.22787 2e-4 9.8608 2.6985 21.407 5.9963l20.992 5.9959 0.28248-92.606 2.0685-0.5351c1.1377-0.2943 7.0403-1.8006 13.117-3.3473s11.484-2.9477 12.015-3.1134c0.91735-0.28573 0.96675 3.4266 0.96675 72.656 0 40.127-0.18644 72.944-0.41432 72.926-0.22788-0.0172-15.33-4.4901-33.56-9.9398z"/>
        <path transform="translate(.36395 .17209)" d="m138.66 191.76c-18.23-5.4496-34.078-10.168-35.217-10.486l-2.0716-0.57766v-18.485c0-10.167 0.18644-18.485 0.41432-18.485 0.22787 2e-4 9.8608 2.6985 21.407 5.9963l20.992 5.9959 0.28248-92.606 2.0685-0.5351c1.1377-0.2943 7.0403-1.8006 13.117-3.3473s11.484-2.9477 12.015-3.1134c0.91735-0.28573 0.96675 3.4266 0.96675 72.656 0 40.127-0.18644 72.944-0.41432 72.926-0.22788-0.0172-15.33-4.4901-33.56-9.9398z"/>
        <path transform="translate(.36395 .17209)" d="m13.862 197.53c-7.2659-1.9423-13.295-3.6157-13.398-3.7186-0.10296-0.10296-0.12433-41.951-0.047482-92.996l0.13972-92.809 49.865 14.189c27.426 7.8041 49.988 14.313 50.14 14.465 0.15146 0.15146 0.21001 8.9661 0.13011 19.588l-0.14527 19.313-35.28-9.5897c-19.404-5.2743-35.383-9.4866-35.509-9.3605-0.12605 0.12605-0.40861 32.639-0.62791 72.252-0.35108 63.417-0.49774 72.033-1.2274 72.11-0.45575 0.0482-6.7735-1.5016-14.039-3.4439z"/>
        <path transform="translate(.36395 .17209)" d="m13.862 197.53c-7.2659-1.9423-13.295-3.6157-13.398-3.7186-0.10296-0.10296-0.12433-41.951-0.047482-92.996l0.13972-92.809 49.865 14.189c27.426 7.8041 49.988 14.313 50.14 14.465 0.15146 0.15146 0.21001 8.9661 0.13011 19.588l-0.14527 19.313-35.28-9.5897c-19.404-5.2743-35.383-9.4866-35.509-9.3605-0.12605 0.12605-0.40861 32.639-0.62791 72.252-0.35108 63.417-0.49774 72.033-1.2274 72.11-0.45575 0.0482-6.7735-1.5016-14.039-3.4439z"/>
        <path transform="translate(.36395 .17209)" d="m13.862 197.53c-7.2659-1.9423-13.295-3.6157-13.398-3.7186-0.10296-0.10296-0.12433-41.951-0.047482-92.996l0.13972-92.809 49.865 14.189c27.426 7.8041 49.988 14.313 50.14 14.465 0.15146 0.15146 0.21001 8.9661 0.13011 19.588l-0.14527 19.313-35.28-9.5897c-19.404-5.2743-35.383-9.4866-35.509-9.3605-0.12605 0.12605-0.40861 32.639-0.62791 72.252-0.35108 63.417-0.49774 72.033-1.2274 72.11-0.45575 0.0482-6.7735-1.5016-14.039-3.4439z"/>
        <path transform="translate(.36395 .17209)" d="m13.862 197.53c-7.2659-1.9423-13.295-3.6157-13.398-3.7186-0.10296-0.10296-0.12433-41.951-0.047482-92.996l0.13972-92.809 49.865 14.189c27.426 7.8041 49.988 14.313 50.14 14.465 0.15146 0.15146 0.21001 8.9661 0.13011 19.588l-0.14527 19.313-35.28-9.5897c-19.404-5.2743-35.383-9.4866-35.509-9.3605-0.12605 0.12605-0.40861 32.639-0.62791 72.252-0.35108 63.417-0.49774 72.033-1.2274 72.11-0.45575 0.0482-6.7735-1.5016-14.039-3.4439z"/>
        <path transform="translate(.36395 .17209)" d="m138.32 191.67c-18.23-5.4486-34.078-10.165-35.217-10.481l-2.0716-0.57411v-18.485c0-10.167 0.18644-18.483 0.41432-18.48 0.22787 3e-3 9.8608 2.6902 21.407 5.9718l20.992 5.9666 0.28244-92.37 13.669-3.4998c7.5182-1.9249 13.98-3.6187 14.36-3.7639 0.55028-0.21052 0.69054 14.559 0.69054 72.715 0 58.035-0.14141 72.972-0.69054 72.943-0.37979-0.0202-15.606-4.4947-33.836-9.9433z"/>
        <path transform="translate(.36395 .17209)" d="m138.32 191.67c-18.23-5.4486-34.078-10.165-35.217-10.481l-2.0716-0.57411v-18.485c0-10.167 0.18644-18.483 0.41432-18.48 0.22787 3e-3 9.8608 2.6902 21.407 5.9718l20.992 5.9666 0.28244-92.37 13.669-3.4998c7.5182-1.9249 13.98-3.6187 14.36-3.7639 0.55028-0.21052 0.69054 14.559 0.69054 72.715 0 58.035-0.14141 72.972-0.69054 72.943-0.37979-0.0202-15.606-4.4947-33.836-9.9433z"/>
        <path transform="translate(.36395 .17209)" d="m13.746 197.52-12.982-3.4363-0.13971-92.893c-0.10453-69.498 0.019629-92.893 0.49298-92.893 0.34798 0 22.971 6.3712 50.272 14.158l49.64 14.158v19.577c0 18.392-0.0585 19.559-0.96675 19.273-5.687-1.7911-70.066-18.967-70.283-18.751-0.23719 0.23706-0.57639 42.964-1.0618 133.75-0.05222 9.766-0.13579 10.629-1.0236 10.565-0.53171-0.0381-6.8087-1.6156-13.949-3.5056z"/>
        <path transform="translate(.36395 .17209)" d="m13.746 197.52-12.982-3.4363-0.13971-92.893c-0.10453-69.498 0.019629-92.893 0.49298-92.893 0.34798 0 22.971 6.3712 50.272 14.158l49.64 14.158v19.577c0 18.392-0.0585 19.559-0.96675 19.273-5.687-1.7911-70.066-18.967-70.283-18.751-0.23719 0.23706-0.57639 42.964-1.0618 133.75-0.05222 9.766-0.13579 10.629-1.0236 10.565-0.53171-0.0381-6.8087-1.6156-13.949-3.5056z"/>
        <path transform="translate(.36395 .17209)" d="m13.746 197.52-12.982-3.4363-0.13971-92.893c-0.10453-69.498 0.019629-92.893 0.49298-92.893 0.34798 0 22.971 6.3712 50.272 14.158l49.64 14.158v19.577c0 18.392-0.0585 19.559-0.96675 19.273-5.687-1.7911-70.066-18.967-70.283-18.751-0.23719 0.23706-0.57639 42.964-1.0618 133.75-0.05222 9.766-0.13579 10.629-1.0236 10.565-0.53171-0.0381-6.8087-1.6156-13.949-3.5056z"/>
        <path transform="translate(.36395 .17209)" d="m13.746 197.52-12.982-3.4363-0.13971-92.893c-0.10453-69.498 0.019629-92.893 0.49298-92.893 0.34798 0 22.971 6.3712 50.272 14.158l49.64 14.158v19.577c0 18.392-0.0585 19.559-0.96675 19.273-5.687-1.7911-70.066-18.967-70.283-18.751-0.23719 0.23706-0.57639 42.964-1.0618 133.75-0.05222 9.766-0.13579 10.629-1.0236 10.565-0.53171-0.0381-6.8087-1.6156-13.949-3.5056z"/>
        <path transform="translate(.36395 .17209)" d="m13.746 197.52-12.982-3.4363-0.13971-92.893c-0.10453-69.498 0.019629-92.893 0.49298-92.893 0.34798 0 22.971 6.3712 50.272 14.158l49.64 14.158v19.577c0 18.392-0.0585 19.559-0.96675 19.273-5.687-1.7911-70.066-18.967-70.283-18.751-0.23719 0.23706-0.57639 42.964-1.0618 133.75-0.05222 9.766-0.13579 10.629-1.0236 10.565-0.53171-0.0381-6.8087-1.6156-13.949-3.5056z"/>
        <path transform="translate(.36395 .17209)" d="m13.746 197.52-12.982-3.4363-0.13971-92.893c-0.10453-69.498 0.019629-92.893 0.49298-92.893 0.34798 0 22.971 6.3712 50.272 14.158l49.64 14.158v19.577c0 18.392-0.0585 19.559-0.96675 19.273-5.687-1.7911-70.066-18.967-70.283-18.751-0.23719 0.23706-0.57639 42.964-1.0618 133.75-0.05222 9.766-0.13579 10.629-1.0236 10.565-0.53171-0.0381-6.8087-1.6156-13.949-3.5056z"/>
        <path transform="translate(.36395 .17209)" d="m13.746 197.52-12.982-3.4363-0.13971-92.893c-0.10453-69.498 0.019629-92.893 0.49298-92.893 0.34798 0 22.971 6.3712 50.272 14.158l49.64 14.158v19.577c0 18.392-0.0585 19.559-0.96675 19.273-5.687-1.7911-70.066-18.967-70.283-18.751-0.23719 0.23706-0.57639 42.964-1.0618 133.75-0.05222 9.766-0.13579 10.629-1.0236 10.565-0.53171-0.0381-6.8087-1.6156-13.949-3.5056z"/>
        <path transform="translate(.36395 .17209)" d="m13.746 197.52-12.982-3.4363-0.13971-92.893c-0.10453-69.498 0.019629-92.893 0.49298-92.893 0.34798 0 22.971 6.3712 50.272 14.158l49.64 14.158v19.577c0 18.392-0.0585 19.559-0.96675 19.273-5.687-1.7911-70.066-18.967-70.283-18.751-0.23719 0.23706-0.57639 42.964-1.0618 133.75-0.05222 9.766-0.13579 10.629-1.0236 10.565-0.53171-0.0381-6.8087-1.6156-13.949-3.5056z"/>
       </g>
      </g>
     </g>
     <g transform="translate(-.36395 -.17209)" display="inline" opacity="1">
      <path d="m856.34 128.65v-65.5h27l0.0153 6.75c0.0879 9.9565-0.84756 11.501 2.6502 7.1952 0.95132-1.1773 2.5092-3.2412 4.0105-4.8161 4.7229-7.494 17.02-12.816 28.733-11.728 17.142 1.5932 27.621 11.281 32.745 30.274 2.8579 10.592 3.1152 35.564 0.46608 45.229-3.7234 13.583-9.2171 21.284-18.384 25.768-4.8704 2.3828-7.23 2.8507-16.019 3.176-9.8925 0.36619-10.563 0.25583-16.649-2.7403-6.1546-3.0299-9.3078-7.3029-13.195-11.926-4.2588-5.0656-3.8288-5.0567-3.7665-1.6-0.33385 0.86998-0.60699 11.445-0.60699 23.5l1e-5 21.918h-27zm54.03 14.4c6.3471-1.3612 11.268-5.4937 13.499-11.337 1.3475-3.5284 1.5906-7.1325 1.2953-19.203-0.40349-16.491-1.6194-20.485-7.8259-25.708-8.8283-7.4286-25.418-5.1441-31.298 4.3098-2.0612 3.3139-2.2006 4.7131-2.2006 22.083 0 15.894 0.24721 18.922 1.7294 21.183 2.6841 4.0948 8.1144 7.7527 12.908 8.6949 6.1143 1.2018 6.1807 1.2017 11.892-0.0232zm-471.66 21.011c-6.4448-1.8678-12.665-7.1067-15.842-13.343-2.7112-5.3214-3.0207-6.8665-3.0051-15 0.0157-8.1674 0.31345-9.6056 3-14.488 6.3544-11.548 17.079-16.098 39.483-16.75 19.723-0.57427 19-0.34238 18.998-6.098-6e-3 -17.387-21.855-23.156-36.802-9.7174l-5.0317 4.5239-7.5822-6.6921c-4.1702-3.6807-7.5822-7.2238-7.5822-7.8737 0-1.9645 10.187-10.924 15.122-13.3 7.7707-3.7416 18.123-5.4414 29.466-4.8382 20.688 1.1001 32.485 8.1273 38.054 22.667 1.4245 3.7196 1.7894 8.9221 2.1038 30 0.42113 28.231 0.3635 28 6.9798 28h3.3427l-0.56766 21.5-8.5 0.30427c-4.675 0.16734-9.9894 0.0294-11.81-0.30651-4.3813-0.80854-10.784-6.7149-12.265-11.314-2.26-7.0195-3.9406-7.4768-6.3434-1.7261-2.374 5.6819-8.259 11.277-14.197 13.499-5.9036 2.2088-20.867 2.737-27.02 0.95371zm35.556-19.517c5.416-3.1885 7.0792-7.001 7.0792-16.227 0-10.241-0.57911-10.665-13.502-9.8941-15.254 0.91007-20.498 4.5724-20.498 14.315 0 7.1349 1.6435 10.332 6.4796 12.605 5.1368 2.4144 15.683 2.0022 20.441-0.79895zm229.89 19.189c-16.361-4.6912-26.686-15.567-30.931-32.583-1.7519-7.0212-1.73-26.786 0.0376-34 5.0955-20.795 18.484-33.282 38.831-36.217 9.7467-1.406 21.471-0.10133 29.031 3.2307 17.128 7.5486 26.205 23.268 26.557 45.986l0.1624 10.5-67 1-0.34655 2.456c-0.51332 3.6379 1.5395 9.5256 4.5818 13.141 4.2091 5.0022 9.4239 6.8588 19.265 6.8588 9.6576 0 14.544-1.7022 21.687-7.5558 2.3661-1.9388 4.6951-3.2821 5.1756-2.9852 2.5304 1.5639 12.253 14.744 11.968 16.224-0.48249 2.5054-11.54 9.7219-18.943 12.362-5.288 1.8862-8.8856 2.3344-20.888 2.6021-10.033 0.22376-15.944-0.0907-19.187-1.0206zm33.253-58.618c3.4393-1.8407 2.1818-11.799-2.3029-18.237-5.4986-7.8942-20.263-8.9124-28.118-1.9392-5.3052 4.7097-8.5389 18.009-4.8949 20.132 2.3229 1.353 32.799 1.3917 35.316 0.0449zm261.75 58.565c-21.224-5.8456-31.813-22.331-31.813-49.53 0-18.171 4.4945-31.151 14.2-41.011 13.395-13.608 38.412-16.867 57.472-7.4866 11.65 5.7336 19.019 15.501 23.005 30.498 2.1277 8.0041 2.355 27.088 0.4168 35-4.2123 17.195-14.707 28.32-30.628 32.467-7.1883 1.8723-25.952 1.9086-32.652 0.0631zm24.485-20.881c4.2741-1.7858 9.3369-7.6714 10.642-12.372 1.3369-4.8144 1.3687-29.626 0.044-34.395-2.5373-9.1344-9.2881-14.219-18.866-14.211-8.3373 0.0077-13.465 3.2809-17.746 11.328-1.5844 2.9784-1.8626 5.8098-1.8669 19-0.01 20.47 1.8161 25.499 10.995 30.338 3.7097 1.9557 12.473 2.1177 16.798 0.31059zm-753.06-39.37 0.25788-59.779 30.301-0.55102 16.232 31.276c8.9277 17.202 16.678 31.838 17.222 32.526 0.54443 0.6875 1.5664 1.25 2.2712 1.25s8.5786-14.062 17.498-31.25c8.9189-17.188 16.677-31.824 17.24-32.526 0.76524-0.9535 4.7148-1.2062 15.63-1l14.606 0.27591 0.51574 119.5h-26.244l0.36393-38.166c0.44091-46.238 0.62436-45.7-8.6393-25.334-5.7369 12.613-30.335 58.515-31.333 58.47-1.0636-0.0484-25.729-46.287-31.857-59.72-5.1466-11.282-7.4297-14.232-8.5121-11-0.23023 0.6875-0.048 8.45 0.40497 17.25s0.70569 25.45 0.56161 37l-0.26197 21-26.516 0.55816zm286.47 58.299c-6.6622-1.7916-11.692-6.1299-15.213-13.121l-3-5.9566-1-57-14-1-0.56766-21.5 3.2838-0.0056c4.9686-0.0084 10.262-1.7609 12.384-4.0999 1.4512-1.5997 2.018-4.137 2.3999-10.744l0.5-8.6501 24.5-0.56156v10.996c0 13.189-0.11768 13.066 12.468 13.066h8.5996l-0.56766 21.5-20 1-0.26742 26.5c-0.24245 24.027-0.10794 26.617 1.4411 27.75 1.0216 0.74742 4.8482 1.25 9.5174 1.25h7.8089v22l-11.75-0.0675c-6.4625-0.0371-13.904-0.64673-16.537-1.3547zm73.766-0.37924c-7.464-2.5809-11.039-5.6021-14.167-11.973l-2.8117-5.7259-0.25949-27c-0.14273-14.85-0.48366-27.992-0.75763-29.204-0.44438-1.9666-1.2258-2.2364-7.2405-2.5l-6.7424-0.29552-0.2824-10.609-0.28239-10.609 5.6376-0.66258c3.1007-0.36442 6.5283-1.1393 7.6171-1.722 3.0352-1.6244 4.8102-7.1101 4.8102-14.866v-7.0321h24v10.429c0 13.408 0.14508 13.571 12.071 13.571h8.9286v22h-9.4648c-8.3341 0-9.5885 0.23107-10.5 1.9343-0.63275 1.1823-1.0352 11.456-1.0352 26.429 0 20.934 0.2284 24.723 1.5714 26.066 1.18 1.18 3.671 1.5714 10 1.5714h8.4286v22l-12.25-0.0326c-8.9654-0.0239-13.596-0.49815-17.271-1.7688zm152.52-48.17v-50.028h28v8.5733c0 10.155 1.0234 10.645 6.1718 2.9558 4.8197-7.1985 11.277-10.876 19.959-11.367l6.8694-0.38815v21.86l-9.3865 1.0984c-11.841 1.3856-18.38 4.5923-21.955 10.767-0.78076 1.3482-1.3211 12.428-1.6582 34l-0.5 32-27.5 0.55644zm296-0.0282v-50h27v7.3089c0 4.6133 0.5057 8.0005 1.3712 9.1841 1.2849 1.7572 1.5445 1.5961 4.1236-2.5589 4.1536-6.6917 6.5207-8.9703 12.005-11.557 3.4299-1.6175 6.8056-2.361 10.75-2.3677l5.75-0.0098v21.742l-7.25 0.67415c-10.806 1.0048-16.806 3.0036-20.395 6.7938-5.9084 6.2404-5.8288 5.7309-6.1807 39.541l-0.3254 31.25h-26.849zm89.668 48.566c-8.7726-2.3579-14.722-8.6497-17.14-18.128-1.3112-5.1386-1.5072-13.515-1.2871-55l0.2596-48.938 24.5-0.56156v10.459c0 13.935-0.064 13.875 14.157 13.437l10.846-0.33434v11.5l1e-4 11.5h-21.503l-0.2674 26.5c-0.2425 24.027-0.108 26.617 1.4411 27.75 1.0216 0.74742 4.8482 1.25 9.5174 1.25h7.8089v22l-11.75-0.0675c-6.4625-0.0371-13.925-0.65199-16.582-1.3664z" fill="#212221"/>
      <g fill-opacity="0">
       <g stroke-width=".39062">
        <path transform="translate(.36395 .17209)" d="m145.92 194.02c-14.287-4.2666-30.266-9.0335-35.509-10.593l-9.5321-2.8357 0.27957-18.37c0.15376-10.103 0.3529-18.443 0.44252-18.533 0.0896-0.0896 9.7025 2.5621 21.362 5.8928l21.199 6.0557 0.39062-91.86 14.062-4.0091c7.7344-2.205 14.106-4.0112 14.16-4.0137 0.0537-0.0025 0.0977 32.866 0.0977 73.042 0 58.195-0.0993 73.04-0.48829 73.014-0.26855-0.0182-12.178-3.5239-26.465-7.7905z"/>
        <path transform="translate(.36395 .17209)" d="m145.92 194.02c-14.287-4.2666-30.266-9.0335-35.509-10.593l-9.5321-2.8357 0.27957-18.37c0.15376-10.103 0.3529-18.443 0.44252-18.533 0.0896-0.0896 9.7025 2.5621 21.362 5.8928l21.199 6.0557 0.39062-91.86 14.062-4.0091c7.7344-2.205 14.106-4.0112 14.16-4.0137 0.0537-0.0025 0.0977 32.866 0.0977 73.042 0 58.195-0.0993 73.04-0.48829 73.014-0.26855-0.0182-12.178-3.5239-26.465-7.7905z"/>
        <path transform="translate(.36395 .17209)" d="m136.55 191.24-35.449-10.588v-37.379l0.82963 0.26331c3.1989 1.0153 41.653 11.899 42.041 11.899 0.38807 0 0.48845-9.4172 0.48845-45.825v-45.825l13.574-3.8452c7.4658-2.1148 13.794-3.9247 14.062-4.0218 0.38951-0.14093 0.48828 14.607 0.48828 72.912 0 40.199-0.13184 73.068-0.29297 73.043-0.16113-0.0249-16.245-4.8101-35.742-10.634z"/>
        <path transform="translate(.36395 .17209)" d="m136.55 191.24-35.449-10.588v-37.379l0.82963 0.26331c3.1989 1.0153 41.653 11.899 42.041 11.899 0.38807 0 0.48845-9.4172 0.48845-45.825v-45.825l13.574-3.8452c7.4658-2.1148 13.794-3.9247 14.062-4.0218 0.38951-0.14093 0.48828 14.607 0.48828 72.912 0 40.199-0.13184 73.068-0.29297 73.043-0.16113-0.0249-16.245-4.8101-35.742-10.634z"/>
        <path transform="translate(.36395 .17209)" d="m136.55 191.24-35.449-10.588v-37.379l0.82963 0.26331c3.1989 1.0153 41.653 11.899 42.041 11.899 0.38807 0 0.48845-9.4172 0.48845-45.825v-45.825l13.574-3.8452c7.4658-2.1148 13.794-3.9247 14.062-4.0218 0.38951-0.14093 0.48828 14.607 0.48828 72.912 0 40.199-0.13184 73.068-0.29297 73.043-0.16113-0.0249-16.245-4.8101-35.742-10.634z"/>
       </g>
       <g stroke-width=".55243">
        <path transform="translate(.36395 .17209)" d="m138.66 191.76c-18.23-5.4496-34.078-10.168-35.217-10.486l-2.0716-0.57766v-18.485c0-10.167 0.18644-18.485 0.41432-18.485 0.22787 2e-4 9.8608 2.6985 21.407 5.9963l20.992 5.9959 0.28248-92.606 2.0685-0.5351c1.1377-0.2943 7.0403-1.8006 13.117-3.3473s11.484-2.9477 12.015-3.1134c0.91735-0.28573 0.96675 3.4266 0.96675 72.656 0 40.127-0.18644 72.944-0.41432 72.926-0.22788-0.0172-15.33-4.4901-33.56-9.9398z"/>
        <path transform="translate(.36395 .17209)" d="m138.66 191.76c-18.23-5.4496-34.078-10.168-35.217-10.486l-2.0716-0.57766v-18.485c0-10.167 0.18644-18.485 0.41432-18.485 0.22787 2e-4 9.8608 2.6985 21.407 5.9963l20.992 5.9959 0.28248-92.606 2.0685-0.5351c1.1377-0.2943 7.0403-1.8006 13.117-3.3473s11.484-2.9477 12.015-3.1134c0.91735-0.28573 0.96675 3.4266 0.96675 72.656 0 40.127-0.18644 72.944-0.41432 72.926-0.22788-0.0172-15.33-4.4901-33.56-9.9398z"/>
        <path transform="translate(.36395 .17209)" d="m138.66 191.76c-18.23-5.4496-34.078-10.168-35.217-10.486l-2.0716-0.57766v-18.485c0-10.167 0.18644-18.485 0.41432-18.485 0.22787 2e-4 9.8608 2.6985 21.407 5.9963l20.992 5.9959 0.28248-92.606 2.0685-0.5351c1.1377-0.2943 7.0403-1.8006 13.117-3.3473s11.484-2.9477 12.015-3.1134c0.91735-0.28573 0.96675 3.4266 0.96675 72.656 0 40.127-0.18644 72.944-0.41432 72.926-0.22788-0.0172-15.33-4.4901-33.56-9.9398z"/>
        <path transform="translate(.36395 .17209)" d="m13.862 197.53c-7.2659-1.9423-13.295-3.6157-13.398-3.7186-0.10296-0.10296-0.12433-41.951-0.047482-92.996l0.13972-92.809 49.865 14.189c27.426 7.8041 49.988 14.313 50.14 14.465 0.15146 0.15146 0.21001 8.9661 0.13011 19.588l-0.14527 19.313-35.28-9.5897c-19.404-5.2743-35.383-9.4866-35.509-9.3605-0.12605 0.12605-0.40861 32.639-0.62791 72.252-0.35108 63.417-0.49774 72.033-1.2274 72.11-0.45575 0.0482-6.7735-1.5016-14.039-3.4439z"/>
        <path transform="translate(.36395 .17209)" d="m13.862 197.53c-7.2659-1.9423-13.295-3.6157-13.398-3.7186-0.10296-0.10296-0.12433-41.951-0.047482-92.996l0.13972-92.809 49.865 14.189c27.426 7.8041 49.988 14.313 50.14 14.465 0.15146 0.15146 0.21001 8.9661 0.13011 19.588l-0.14527 19.313-35.28-9.5897c-19.404-5.2743-35.383-9.4866-35.509-9.3605-0.12605 0.12605-0.40861 32.639-0.62791 72.252-0.35108 63.417-0.49774 72.033-1.2274 72.11-0.45575 0.0482-6.7735-1.5016-14.039-3.4439z"/>
        <path transform="translate(.36395 .17209)" d="m13.862 197.53c-7.2659-1.9423-13.295-3.6157-13.398-3.7186-0.10296-0.10296-0.12433-41.951-0.047482-92.996l0.13972-92.809 49.865 14.189c27.426 7.8041 49.988 14.313 50.14 14.465 0.15146 0.15146 0.21001 8.9661 0.13011 19.588l-0.14527 19.313-35.28-9.5897c-19.404-5.2743-35.383-9.4866-35.509-9.3605-0.12605 0.12605-0.40861 32.639-0.62791 72.252-0.35108 63.417-0.49774 72.033-1.2274 72.11-0.45575 0.0482-6.7735-1.5016-14.039-3.4439z"/>
        <path transform="translate(.36395 .17209)" d="m13.862 197.53c-7.2659-1.9423-13.295-3.6157-13.398-3.7186-0.10296-0.10296-0.12433-41.951-0.047482-92.996l0.13972-92.809 49.865 14.189c27.426 7.8041 49.988 14.313 50.14 14.465 0.15146 0.15146 0.21001 8.9661 0.13011 19.588l-0.14527 19.313-35.28-9.5897c-19.404-5.2743-35.383-9.4866-35.509-9.3605-0.12605 0.12605-0.40861 32.639-0.62791 72.252-0.35108 63.417-0.49774 72.033-1.2274 72.11-0.45575 0.0482-6.7735-1.5016-14.039-3.4439z"/>
        <path transform="translate(.36395 .17209)" d="m138.32 191.67c-18.23-5.4486-34.078-10.165-35.217-10.481l-2.0716-0.57411v-18.485c0-10.167 0.18644-18.483 0.41432-18.48 0.22787 3e-3 9.8608 2.6902 21.407 5.9718l20.992 5.9666 0.28244-92.37 13.669-3.4998c7.5182-1.9249 13.98-3.6187 14.36-3.7639 0.55028-0.21052 0.69054 14.559 0.69054 72.715 0 58.035-0.14141 72.972-0.69054 72.943-0.37979-0.0202-15.606-4.4947-33.836-9.9433z"/>
        <path transform="translate(.36395 .17209)" d="m138.32 191.67c-18.23-5.4486-34.078-10.165-35.217-10.481l-2.0716-0.57411v-18.485c0-10.167 0.18644-18.483 0.41432-18.48 0.22787 3e-3 9.8608 2.6902 21.407 5.9718l20.992 5.9666 0.28244-92.37 13.669-3.4998c7.5182-1.9249 13.98-3.6187 14.36-3.7639 0.55028-0.21052 0.69054 14.559 0.69054 72.715 0 58.035-0.14141 72.972-0.69054 72.943-0.37979-0.0202-15.606-4.4947-33.836-9.9433z"/>
        <path transform="translate(.36395 .17209)" d="m13.746 197.52-12.982-3.4363-0.13971-92.893c-0.10453-69.498 0.019629-92.893 0.49298-92.893 0.34798 0 22.971 6.3712 50.272 14.158l49.64 14.158v19.577c0 18.392-0.0585 19.559-0.96675 19.273-5.687-1.7911-70.066-18.967-70.283-18.751-0.23719 0.23706-0.57639 42.964-1.0618 133.75-0.05222 9.766-0.13579 10.629-1.0236 10.565-0.53171-0.0381-6.8087-1.6156-13.949-3.5056z"/>
        <path transform="translate(.36395 .17209)" d="m13.746 197.52-12.982-3.4363-0.13971-92.893c-0.10453-69.498 0.019629-92.893 0.49298-92.893 0.34798 0 22.971 6.3712 50.272 14.158l49.64 14.158v19.577c0 18.392-0.0585 19.559-0.96675 19.273-5.687-1.7911-70.066-18.967-70.283-18.751-0.23719 0.23706-0.57639 42.964-1.0618 133.75-0.05222 9.766-0.13579 10.629-1.0236 10.565-0.53171-0.0381-6.8087-1.6156-13.949-3.5056z"/>
        <path transform="translate(.36395 .17209)" d="m13.746 197.52-12.982-3.4363-0.13971-92.893c-0.10453-69.498 0.019629-92.893 0.49298-92.893 0.34798 0 22.971 6.3712 50.272 14.158l49.64 14.158v19.577c0 18.392-0.0585 19.559-0.96675 19.273-5.687-1.7911-70.066-18.967-70.283-18.751-0.23719 0.23706-0.57639 42.964-1.0618 133.75-0.05222 9.766-0.13579 10.629-1.0236 10.565-0.53171-0.0381-6.8087-1.6156-13.949-3.5056z"/>
        <path transform="translate(.36395 .17209)" d="m13.746 197.52-12.982-3.4363-0.13971-92.893c-0.10453-69.498 0.019629-92.893 0.49298-92.893 0.34798 0 22.971 6.3712 50.272 14.158l49.64 14.158v19.577c0 18.392-0.0585 19.559-0.96675 19.273-5.687-1.7911-70.066-18.967-70.283-18.751-0.23719 0.23706-0.57639 42.964-1.0618 133.75-0.05222 9.766-0.13579 10.629-1.0236 10.565-0.53171-0.0381-6.8087-1.6156-13.949-3.5056z"/>
        <path transform="translate(.36395 .17209)" d="m13.746 197.52-12.982-3.4363-0.13971-92.893c-0.10453-69.498 0.019629-92.893 0.49298-92.893 0.34798 0 22.971 6.3712 50.272 14.158l49.64 14.158v19.577c0 18.392-0.0585 19.559-0.96675 19.273-5.687-1.7911-70.066-18.967-70.283-18.751-0.23719 0.23706-0.57639 42.964-1.0618 133.75-0.05222 9.766-0.13579 10.629-1.0236 10.565-0.53171-0.0381-6.8087-1.6156-13.949-3.5056z"/>
        <path transform="translate(.36395 .17209)" d="m13.746 197.52-12.982-3.4363-0.13971-92.893c-0.10453-69.498 0.019629-92.893 0.49298-92.893 0.34798 0 22.971 6.3712 50.272 14.158l49.64 14.158v19.577c0 18.392-0.0585 19.559-0.96675 19.273-5.687-1.7911-70.066-18.967-70.283-18.751-0.23719 0.23706-0.57639 42.964-1.0618 133.75-0.05222 9.766-0.13579 10.629-1.0236 10.565-0.53171-0.0381-6.8087-1.6156-13.949-3.5056z"/>
        <path transform="translate(.36395 .17209)" d="m13.746 197.52-12.982-3.4363-0.13971-92.893c-0.10453-69.498 0.019629-92.893 0.49298-92.893 0.34798 0 22.971 6.3712 50.272 14.158l49.64 14.158v19.577c0 18.392-0.0585 19.559-0.96675 19.273-5.687-1.7911-70.066-18.967-70.283-18.751-0.23719 0.23706-0.57639 42.964-1.0618 133.75-0.05222 9.766-0.13579 10.629-1.0236 10.565-0.53171-0.0381-6.8087-1.6156-13.949-3.5056z"/>
        <path transform="translate(.36395 .17209)" d="m13.746 197.52-12.982-3.4363-0.13971-92.893c-0.10453-69.498 0.019629-92.893 0.49298-92.893 0.34798 0 22.971 6.3712 50.272 14.158l49.64 14.158v19.577c0 18.392-0.0585 19.559-0.96675 19.273-5.687-1.7911-70.066-18.967-70.283-18.751-0.23719 0.23706-0.57639 42.964-1.0618 133.75-0.05222 9.766-0.13579 10.629-1.0236 10.565-0.53171-0.0381-6.8087-1.6156-13.949-3.5056z"/>
       </g>
      </g>
     </g>
     <g transform="translate(-.36395 -.17209)" display="inline">
      <path d="m58.29 155.59 43.109-12.302-0.0588 37.704-72 20.878 0.80409-145.1 28.146 7.0353m43.109-27.268 100.79-28.797v186.52l-28.903 8.1223v-146.65l-71.891 20.408" fill="#6d6e6e"/>
     </g>
     <desc>Created with Snap</desc>
    </svg>
   </g>
   <g transform="translate(400 576.59)" display="block" font-family="Verdana" font-size="6.2815px" text-anchor="middle">
    <text/>
    <text/>
    <text/>
    <text/>
    <text/>
   </g>
  </g>
  <rect y="296.73" width="3.1367" height=".26922" fill="#fff"/>
  <text x="417.77405" y="286.34369" fill="#aaaaaa" font-family="Verdana" font-size="4.8962px" stroke-width=".81845"><tspan font-size="5.6444px" stroke-width=".81845">SIZES AND DIMENSIONS ARE APPROXIMATE, ACTUAL MAY VARY.</tspan></text>
  <rect x="53.166" y="-374.78" width="919.68" height="573.75" fill="#fff" fill-rule="evenodd" stroke-width="0" style="paint-order:normal"/>
  <text x="31.692884" y="243.34659" fill="#aaaaaa" font-family="Verdana" font-size="4.8962px" stroke-width=".81845"><tspan font-size="5.6444px" stroke-width=".81845">FLOOR 3</tspan></text>
  <g font-family="Verdana" font-size="5.6736px" stroke-width=".81845">
   <text x="419.28058" y="268.39871" opacity=".99">FLOOR 1: 769.71 m<tspan baseline-shift="super" font-size="65%">2</tspan>, FLOOR 2: 378.28 m<tspan baseline-shift="super" font-size="65%">2</tspan>, FLOOR 3: 31.26 m<tspan baseline-shift="super" font-size="65%">2</tspan></text>
   <text x="476.29681" y="260.82541" opacity=".99">GROSS INTERNAL AREA</text>
   <text x="484.68146" y="276.84085" opacity=".99">TOTAL: 1179.25 m<tspan baseline-shift="super" font-size="65%">2</tspan></text>
  </g>
  <g transform="matrix(2.1557 0 0 2.1557 -12365 -977.67)" opacity=".99">
   <g transform="matrix(-1,0,0,1,10394,-2199.6)" opacity=".99">
    <g transform="matrix(.52114 .52133 -.52133 .52114 6033.4 1781.1)" opacity="1">
     <g stroke="#000">
      <path d="m-677.27 2393.4-0.15085 24.79" fill="none" stroke-width=".3362px"/>
      <path d="m-690.66 2433.2c0.5431 7.8103 7.3189 13.707 15.129 13.164 7.8103-0.569 13.707-7.3448 13.138-15.155-0.5431-7.8103-7.3189-13.681-15.129-13.138s-13.707 7.3189-13.138 15.129z" fill="none" stroke-width=".51724px"/>
      <path d="m-685.38 2432.9c0.3362 4.8879 4.5775 8.5861 9.4913 8.224 4.8879-0.3362 8.5603-4.5775 8.224-9.4654-0.3362-4.9137-4.5775-8.5861-9.4913-8.2499-4.8879 0.3362-8.5602 4.6034-8.224 9.4913z" stroke-width=".3362px"/>
     </g>
     <g fill="none">
      <path d="m-688.72 2433.1c0.49137 6.7241 6.3103 11.793 13.06 11.328 6.7241-0.4655 11.793-6.3103 11.327-13.034-0.49137-6.75-6.3103-11.819-13.06-11.328-6.7241 0.4655-11.793 6.3103-11.327 13.034z" stroke="#000" stroke-width=".43965px"/>
      <path d="m-702.76 2432.3c0.0259 10.629 6.4913 20.198 16.371 24.207 9.8534 4.0086 21.155 1.681 28.603-5.9223 7.4482-7.6034 9.5689-18.957 5.3534-28.732-4.1896-9.7757-19.24-21.812-38.5-13.023" stroke="#d3d3d3" stroke-width=".25862px"/>
      <g stroke="#000" stroke-width=".3362px">
       <path d="m-715.9 2432.3 25.137-0.056"/>
       <path d="m-689.99 2437-21.284 5.9223"/>
       <path d="m-688.41 2439.9-18.103 12.388"/>
       <path d="m-685.15 2443.5-13.345 17.483"/>
       <path d="m-680.78 2445.8-8.1206 20.25"/>
       <path d="m-676.49 2446.4-0.20689 22.448"/>
       <path d="m-671.76 2445.5 6.8792 21.103"/>
       <path d="m-667.38 2443 12.026 18.207"/>
       <path d="m-664.75 2440.2 17.664 12.983"/>
       <path d="m-662.83 2435.8 20.664 6.75"/>
       <path d="m-662.42 2430.9 22.008 0.931"/>
       <path d="m-663.17 2427.2 20.896-7.3189"/>
       <path d="m-665.65 2423.1 17.483-13.577"/>
       <path d="m-669.38 2420 13.267-17.741"/>
       <path d="m-672.95 2418.5 6.8016-20.741"/>
      </g>
     </g>
    </g>
   </g>
   <g transform="matrix(0 -.32327 .32327 0 5113.1 1027.8)" opacity=".99" stroke-linecap="square" stroke-miterlimit="10">
    <g transform="translate(161.19,23.128)">
     <clipPath>
      <path d="m2136.9 2300.1v687.3h-796.38v-687.3zm-811.62-15.24v717.78h826.86v-717.78z"/>
     </clipPath>
    </g>
    <g transform="translate(161.19,23.128)">
     <g fill="none" stroke="#000" stroke-width="1.375">
      <path d="m2136.9 2300.1v687.3h-796.38v-687.3zm-811.62-15.24v717.78h826.86v-717.78z" fill="#000"/>
     </g>
    </g>
    <g transform="translate(161.19,23.128)">
     <clipPath>
      <path d="m1453.5 2743.5m286.65-397.88 26.615 2.4229 26.044 5.9975 24.994 9.4622 23.486 12.753 21.548 15.81 19.213 18.577 16.527 21.003 13.537 23.043 10.298 24.662 6.8712 25.827 3.318 26.519-0.2963 26.724-3.9049 26.439-7.4419 25.668-10.842 24.427-15.094 24.438 0.9559 13.584h212.13v281.35h-687.63v-205.74h38.1v-8.1489l-16.632-8.5811-11.846-9.3894-9.8146-11.496-7.415-13.172-4.7377-14.354-1.8827-14.998 1.0431-15.08 3.9296-14.596 6.6687-13.566 9.1581-12.026 11.304-10.036 13.026-7.6692 14.26-5.0151 14.959-2.1731 15.097 0.7505 14.67 3.6457 13.692 6.4046 14.578 10.661 9.9496-2.668-7.4922-31.131-2.6845-26.59 0.9335-26.709 4.5344-26.338 8.052-25.484 11.422-24.162 14.582-22.396 17.475-20.22 20.048-17.673 22.252-14.802 24.048-11.659 25.403-8.3023 26.292-4.7932zm0.2338-10.157-28.074 1.2575-27.646 5.0401-26.711 8.7297-25.287 12.259-23.398 15.564-21.08 18.583-18.375 21.262-15.333 23.55-12.01 25.406-8.4668 26.796-4.7679 27.694-0.9815 28.085 2.8227 27.96 4.1006 17.039-5.944-4.3471-15.474-7.2378-16.579-4.1204-17.062-0.8479-16.906 2.4559-16.116 5.6677-14.721 8.6672-12.775 11.342-10.35 13.591-7.5366 15.331-4.441 16.496-1.1788 17.042 2.1277 16.95 5.3541 16.222 8.3802 14.886 11.092 12.992 10.907 8.6456h-23.637v226.06h707.95v-301.67h-212.82l-0.064-0.9102 13.718-22.209 11.401-25.685 7.8252-26.99 4.1061-27.8 0.3114-28.1-3.4888-27.884-7.2251-27.157-10.829-25.932-14.234-24.23-17.378-22.084-20.203-19.534-22.657-16.624-24.696-13.41-26.282-9.9492-27.385-6.3064z"/>
     </clipPath>
    </g>
   </g>
   <path d="m5973.8 472.08 12.727 15.35" fill="none" opacity=".99" stroke="#000" stroke-width=".32327px"/>
   <path d="m5975.1 475.9 0.814 2.036 1.2915-1.7004z" fill="#d3d3d3" opacity="1" stroke="#d3d3d3" stroke-width=".19064px"/>
   <path d="m6006.6 502.32c3.2094-10.661-2.0761-19.907-6.8399-24.867" fill="none" opacity=".99" stroke="#000" stroke-width=".32327px"/>
   <text x="5942.6821" y="409.37045" font-family="Verdana" font-size="6.8965px" opacity=".99" stroke-width=".32327" text-align="center" text-anchor="middle" style="line-height:1.25" xml:space="preserve"><tspan x="5942.6821" y="409.37045" font-family="Verdana" font-size="6.8965px" stroke-width=".32327">MECHANICAL ROOM</tspan></text>
   <text x="5942.7627" y="418.27774" font-family="Verdana" font-size="6.8965px" opacity=".99" stroke-width=".32327" text-align="center" text-anchor="middle" style="line-height:1.25" xml:space="preserve"><tspan x="5942.7627" y="418.27774" font-family="Verdana" font-size="6.8965px" stroke-width=".32327">3.85 m x 3.92 m</tspan></text>
   <polygon transform="matrix(-.35604 0 0 -.35604 6005.8 412.35)" points="5 5 0 0 5 -5" display="block" opacity=".99"/>
   <polygon transform="matrix(.35604 0 0 -.35604 5878.6 412.35)" points="0 0 5 -5 5 5" display="block" opacity=".99"/>
   <polygon transform="matrix(0 .35604 .35604 0 5942.9 350.93)" points="0 0 5 -5 5 5" display="block" opacity=".99"/>
   <polygon transform="matrix(0 -.35604 .35604 0 5942.9 477.74)" points="5 5 0 0 5 -5" display="block" opacity=".99"/>
   <text x="6035.0459" y="357.97922" font-family="Verdana" font-size="6.8965px" opacity=".99" stroke-width=".32327" text-align="center" text-anchor="middle" style="line-height:1.25" xml:space="preserve"><tspan x="6035.0459" y="357.97922" font-family="Verdana" font-size="6.8965px" stroke-width=".32327">MECHANICAL ROOM</tspan></text>
   <text x="6035.126" y="366.88681" font-family="Verdana" font-size="6.8965px" opacity=".99" stroke-width=".32327" text-align="center" text-anchor="middle" style="line-height:1.25" xml:space="preserve"><tspan x="6035.126" y="366.88681" font-family="Verdana" font-size="6.8965px" stroke-width=".32327">2.82 m x 6.87 m</tspan></text>
   <polygon transform="matrix(-.35604 0 0 -.35604 6075.6 394.9)" points="5 -5 5 5 0 0" display="block" opacity=".99"/>
   <polygon transform="matrix(.35604 0 0 -.35604 5984.7 348.67)" points="5 5 0 0 5 -5" display="block" opacity=".99"/>
   <polygon transform="matrix(0 .35604 .35604 0 6031.7 294.24)" points="5 5 0 0 5 -5" display="block" opacity=".99"/>
   <polygon transform="matrix(0 -.35604 .35604 0 6043 516.53)" points="5 -5 5 5 0 0" display="block" opacity=".99"/>
   <path d="m5981.4 290.95v68.8l-0.1794 0.25131 0.035 0.0278c-10.992-7.856-24.466-12.483-39.026-12.483-37.021 3e-5 -67.032 29.902-67.032 66.787s30.011 66.787 67.032 66.787c5.2736-0.0158 10.081-0.28577 14.949-1.3184-5.5775 7.7726-6.5276 17.866-2.8646 27.099 4.2754 10.824 14.683 17.966 26.303 18.099 11.088 0.1392 21.19-6.1406 26.034-15.997v10.81h72.271v-228.86zm3.2844 3.2845h90.953v222.29h-65.703l-0.1254-14.058-3.096-0.0226-0.061 1.1524c-0.2961 1.0461-0.6562 2.0822-1.0855 3.102-4.2039 10.003-14.07 16.476-24.922 16.356-10.865-0.1328-20.572-6.8172-24.537-16.926-3.6685-9.2903-1.8233-19.763 4.608-27.217 0.7005-0.20366 1.4039-0.4211 2.1138-0.66233 4.4774-2.0218 8.1378-3.9582 11.111-5.98l-1.8006-2.4504c-2.9292 1.662-6.5693 4.0867-11.659 5.8859-6.6084 1.3833-11.42 1.9836-18.25 2.0356-35.149 4e-5 -63.643-28.39-63.643-63.41 0-35.021 28.494-63.411 63.643-63.41 35.149-4e-5 63.643 28.39 63.643 63.41-0.029 18.4-7.5937 35.513-21.574 47.535l1.1221 1.1151 12.876 12.898-11.789 11.551 1.8728 1.4503 0.7619-0.76147 10.654-10.739 1.4671-1.5223-13.076-13.096c13.476-12.584 21.024-30.027 21.074-48.429 0-20.832-9.5745-39.435-24.577-51.683z" fill="#fff" opacity="1" stroke="#000" stroke-width=".43448"/>
   <text x="5925.8672" y="329.36276" font-family="Verdana" font-size="6.8965px" opacity=".99" stroke-width=".32327" text-align="center" text-anchor="middle" style="line-height:1.25" xml:space="preserve"><tspan x="5925.8672" y="329.36276" font-family="Verdana" font-size="6.8965px" stroke-width=".32327">OPEN TO BELOW</tspan></text>
   <text x="5974.5127" y="536.00775" font-family="Verdana" font-size="6.8965px" opacity=".99" stroke-width=".32327" text-align="center" text-anchor="middle" style="line-height:1.25" xml:space="preserve"><tspan x="5974.5127" y="536.00775" font-family="Verdana" font-size="6.8965px" stroke-width=".32327">OPEN TO BELOW</tspan></text>
  </g>
 </g>
</svg>
