<?xml version="1.0" encoding="UTF-8"?>
<svg width="40.222in" height="28.444in" version="1.1" viewBox="0 0 1021.6 722.48" xmlns="http://www.w3.org/2000/svg" xmlns:cc="http://creativecommons.org/ns#" xmlns:dc="http://purl.org/dc/elements/1.1/" xmlns:rdf="http://www.w3.org/1999/02/22-rdf-syntax-ns#">
 <metadata>
  <rdf:RDF>
   <cc:Work rdf:about="">
    <dc:format>image/svg+xml</dc:format>
    <dc:type rdf:resource="http://purl.org/dc/dcmitype/StillImage"/>
    <dc:title/>
   </cc:Work>
  </rdf:RDF>
 </metadata>
 <defs>
  <clipPath>
   <path d="m2143.2 1862.4v333.72h10.048v92.112h-812.69v-425.84zm2230.4 595.36v438.94h-173.74v-269.99l-19.014-0.3135v-168.64zm-203.63-10.16v10.16h0.7197v178.63l19.014 0.3139v270.16h194.06v-449.1h0.835v-10.16zm-2016.7-149.2v688.95h-812.69v-688.95zm3015.5-102.27v1976.9l-486.37-1e-4v-0.1249h-10.16v0.1249l-2503.8-4e-4v-966.89h234.13v-10.16h-234.13v-999.84zm-979.32 1992.1 482.78 1e-4v302.02h-482.78zm-504.54-1e-4 494.38 1e-4v416.74l-237.65-2.5552v-73.917h-256.73zm-1504.2-2e-4h502.31v214.63h10.16v-214.63l981.61 2e-4v622.61h-7.6199v30.05h-482.6v-30.05h-25.4v30.05h-459.1v-30.05h-20.955v-10.16h-22.095v-305.35h-10.16v345.56h-457.96v-32.385h-8.1871zm1750.8 350.43v73.808l247.81 2.665v195.7h-15.592v30.05h-458.47v-30.05h-20.32v-272.18zm740.76-38.25v340.48h-482.78v-340.48zm10.16-312.18h486.37v155.98h-6.5645v30.48h6.5645v452.16h-53.34v14.042h-413.25v-30.05h-19.784zm-3357.1-2341.1v1155.4h827.93v1853.6h14.743v0.125h12.7v-0.125h1494.1v0.125h10.16v-0.125h1499.1v-2675.3h-3030.7v-333.72z"/>
  </clipPath>
  <clipPath>
   <path d="m2096.6 1898.1v120.65h-131.98v236.9h-296.01v-231.39h-80.756v140.23h10.16v-130.07h60.436v221.23h-133.35v-357.55zm-581.67-10.16v377.87h459.84v-236.9h131.98v-140.97zm-22.736 701.45 14.901 2.0715 14.223 4.9046 13.011 7.5534 11.311 9.9192 9.1876 11.913 6.7196 13.46 3.9996 14.503 1.1298 15.002-1.6395 13.741-0.4979-0.1049-3.9252 12.926-6.1103 12.048-8.1096 10.804-9.8624 9.2317-11.316 7.3789-12.425 5.3018-13.157 3.0634-13.489 0.7325-13.411-1.6211-12.926-3.9253-12.048-6.1104-10.804-8.1093-9.2316-9.8626-7.3788-11.316-5.3017-12.425-3.0586-13.132-0.5467-15.018 2.3604-14.858 5.1793-14.125 7.8043-12.862 10.137-11.117 12.089-8.9548 13.588-6.4573 14.578-3.7178zm0.4184-10.152-16.985 0.9485-16.484 4.2038-15.365 7.3018-13.67 10.126-11.462 12.57-8.8249 14.544-5.8567 15.972-2.6689 16.801 0.6194 17.02 3.4703 14.903 5.9968 14.054 8.3462 12.799 10.442 11.155 12.22 9.1729 13.628 6.9111 14.621 4.44 15.17 1.8337 15.257-0.8284 14.882-3.4653 14.054-5.9968 12.799-8.3462 11.155-10.442 9.1727-12.22 6.9114-13.628 4.0672-13.393 0.7103 0.1557 2.0154-16.892-1.2775-16.963-4.5227-16.4-7.5983-15.22-10.389-13.471-12.79-11.216-14.712-8.541-16.082-5.5459zm2892-131.63v10.16h355.6v571.34h-622.06v10.16h632.22v-591.66zm-1133.7 0v76.865h-531.51v50.047h111.94l40.85 62.57v51.689l-40.972 68.111h-135.56v48.704h135.71l40.823 61.39v51.675l-40.984 68.703-135.55 3e-4v46.832h5.0801v3e-4h130.63l40.823 61.39v51.675l-40.985 68.703-191.99-2e-4v-538.48h-478.31v10.16h468.15v538.48l207.92-2e-4 45.375-76.062v-57.545l-45.537-68.48h-130.99v-26.512l131.16-2e-4 45.375-76.063v-57.545l-45.537-68.48h-130.99v-28.384h131.14l45.388-75.451v-57.532l-45.51-69.708h-107.28v-29.726h531.51v-76.865h908.94v-10.16zm259.96 310.69v20.242h193.98v548.89h-288.33v-482.52h-10.16v492.68h308.65v-569.13h187.8v55.486l-40.985 68.703-135.55-3e-4v46.832h5.0801v2e-4h130.63l40.823 61.391v61.965h170.18v-294.38h106.68v147.62h172.18v5.0798h-233.68v10.16h243.84v-25.4h-172.18v-147.62h-156.21v10.16h29.21v284.22h-149.86v-54.875l-45.537-68.48h-130.99v-26.512l131.15 2e-4 45.376-76.064v-58.285h35.56v-10.16zm-415.31 44.248-55.59 52.006v530.73h-161.91v-47.568l-50.574-60.314h-257.64v-81.425h-167.19v10.16h157.03v81.425h263.06l45.153 53.849v54.032h182.23v-536.48l49.441-46.253h97.504l26.877 15.518h82.076v312.6h10.16v-322.76h-89.514l-26.877-15.518zm835.97 1493.5v128h-143.51v-128zm0-10.434v0.2734h-153.67v138.16h-97.977v10.16h261.81v-148.59zm256.19 319.51v10.16h317.5v-10.16zm87.629 109.05v10.16h401.84v-10.16z"/>
  </clipPath>
  <marker id="Marker0-6-20-2-9-1-4-6" fill="#d3d3d3" stroke="#d3d3d3" markerHeight="12" markerWidth="12" orient="auto" refX="11" refY="6" viewBox="0 0 12 12">
   <polygon points="0 12 10 6 0 0"/>
  </marker>
  <marker id="Marker0-6-20-12-1-5-1-5-4" fill="#d3d3d3" stroke="#d3d3d3" markerHeight="12" markerWidth="12" orient="auto" refX="11" refY="6" viewBox="0 0 12 12">
   <polygon points="10 6 0 0 0 12"/>
  </marker>
  <marker id="Marker0-6-20-66-4-0-6-1" fill="#d3d3d3" stroke="#d3d3d3" markerHeight="12" markerWidth="12" orient="auto" refX="11" refY="6" viewBox="0 0 12 12">
   <polygon points="0 12 10 6 0 0"/>
  </marker>
  <marker id="Marker0-6-20-15-0-0-6" fill="#d3d3d3" stroke="#d3d3d3" markerHeight="12" markerWidth="12" orient="auto" refX="11" refY="6" viewBox="0 0 12 12">
   <polygon points="0 0 0 12 10 6"/>
  </marker>
 </defs>
 <g transform="translate(0 425.48)">
  <flowRoot fill="black" font-family="sans-serif" font-size="40px" letter-spacing="0px" word-spacing="0px" style="line-height:1.25" xml:space="preserve"><flowRegion><rect x="-7071.1" y="-6638.5" width="18738" height="11384"/></flowRegion><flowPara/></flowRoot>
  <flowRoot fill="black" font-family="sans-serif" font-size="40px" letter-spacing="0px" word-spacing="0px" style="line-height:1.25" xml:space="preserve"><flowRegion><rect x="-362.39" y="-451.36" width="4684.6" height="3420.6"/></flowRegion><flowPara/></flowRoot>
  <rect x=".067574" y="-415.11" width="1021.5" height="698.13" opacity="0" stroke-width=".13438" style="paint-order:markers fill stroke"/>
  <g transform="matrix(1.2007 0 0 1.2007 34.203 -415.94)" display="block" opacity=".99">
   <g transform="matrix(.1124 0 0 .1124 674.65 562.56)" display="block">
    <svg width="1200" height="202.21" version="1.1" viewBox="0 0 1199.9794 202.21188">
     <g transform="translate(-.36395 -.17209)" display="inline">
      <path d="m101.4 36.539c-32.979-8.5808-101.04-28.797-101.04-28.797s1.178-0.40615 14.829-3.9466l13.972-3.6236c23.995 6.717 48.239 13.576 72.234 20.293 23.881-6.7048 48.01-13.588 71.891-20.293l28.903 7.5702c-33.876 10.815-73.141 21.049-100.79 28.797zm-43.109 101.6 43.109-10.973 43.108 10.973v17.458l-43.108-12.302-43.109 12.302" fill="#999"/>
     </g>
     <g transform="translate(-.36395 -.17209)" display="inline" opacity="1">
      <path d="m0.36395 194.28v-186.53l101.04 28.797v39.6l-71.255-19.367-0.80409 145.1zm100.98-13.28 0.0588-37.704 43.108 12.302-3e-5 -92.453 28.783-7.4097v146.65z" fill="#0e0a0b"/>
      <g fill-opacity="0">
       <g stroke-width=".39062">
        <path transform="translate(.36395 .17209)" d="m145.92 194.02c-14.287-4.2666-30.266-9.0335-35.509-10.593l-9.5321-2.8357 0.27957-18.37c0.15376-10.103 0.3529-18.443 0.44252-18.533 0.0896-0.0896 9.7025 2.5621 21.362 5.8928l21.199 6.0557 0.39062-91.86 14.062-4.0091c7.7344-2.205 14.106-4.0112 14.16-4.0137 0.0537-0.0025 0.0977 32.866 0.0977 73.042 0 58.195-0.0993 73.04-0.48829 73.014-0.26855-0.0182-12.178-3.5239-26.465-7.7905z"/>
        <path transform="translate(.36395 .17209)" d="m145.92 194.02c-14.287-4.2666-30.266-9.0335-35.509-10.593l-9.5321-2.8357 0.27957-18.37c0.15376-10.103 0.3529-18.443 0.44252-18.533 0.0896-0.0896 9.7025 2.5621 21.362 5.8928l21.199 6.0557 0.39062-91.86 14.062-4.0091c7.7344-2.205 14.106-4.0112 14.16-4.0137 0.0537-0.0025 0.0977 32.866 0.0977 73.042 0 58.195-0.0993 73.04-0.48829 73.014-0.26855-0.0182-12.178-3.5239-26.465-7.7905z"/>
        <path transform="translate(.36395 .17209)" d="m136.55 191.24-35.449-10.588v-37.379l0.82963 0.26331c3.1989 1.0153 41.653 11.899 42.041 11.899 0.38807 0 0.48845-9.4172 0.48845-45.825v-45.825l13.574-3.8452c7.4658-2.1148 13.794-3.9247 14.062-4.0218 0.38951-0.14093 0.48828 14.607 0.48828 72.912 0 40.199-0.13184 73.068-0.29297 73.043-0.16113-0.0249-16.245-4.8101-35.742-10.634z"/>
        <path transform="translate(.36395 .17209)" d="m136.55 191.24-35.449-10.588v-37.379l0.82963 0.26331c3.1989 1.0153 41.653 11.899 42.041 11.899 0.38807 0 0.48845-9.4172 0.48845-45.825v-45.825l13.574-3.8452c7.4658-2.1148 13.794-3.9247 14.062-4.0218 0.38951-0.14093 0.48828 14.607 0.48828 72.912 0 40.199-0.13184 73.068-0.29297 73.043-0.16113-0.0249-16.245-4.8101-35.742-10.634z"/>
        <path transform="translate(.36395 .17209)" d="m136.55 191.24-35.449-10.588v-37.379l0.82963 0.26331c3.1989 1.0153 41.653 11.899 42.041 11.899 0.38807 0 0.48845-9.4172 0.48845-45.825v-45.825l13.574-3.8452c7.4658-2.1148 13.794-3.9247 14.062-4.0218 0.38951-0.14093 0.48828 14.607 0.48828 72.912 0 40.199-0.13184 73.068-0.29297 73.043-0.16113-0.0249-16.245-4.8101-35.742-10.634z"/>
       </g>
       <g stroke-width=".55243">
        <path transform="translate(.36395 .17209)" d="m138.66 191.76c-18.23-5.4496-34.078-10.168-35.217-10.486l-2.0716-0.57766v-18.485c0-10.167 0.18644-18.485 0.41432-18.485 0.22787 2e-4 9.8608 2.6985 21.407 5.9963l20.992 5.9959 0.28248-92.606 2.0685-0.5351c1.1377-0.2943 7.0403-1.8006 13.117-3.3473s11.484-2.9477 12.015-3.1134c0.91735-0.28573 0.96675 3.4266 0.96675 72.656 0 40.127-0.18644 72.944-0.41432 72.926-0.22788-0.0172-15.33-4.4901-33.56-9.9398z"/>
        <path transform="translate(.36395 .17209)" d="m138.66 191.76c-18.23-5.4496-34.078-10.168-35.217-10.486l-2.0716-0.57766v-18.485c0-10.167 0.18644-18.485 0.41432-18.485 0.22787 2e-4 9.8608 2.6985 21.407 5.9963l20.992 5.9959 0.28248-92.606 2.0685-0.5351c1.1377-0.2943 7.0403-1.8006 13.117-3.3473s11.484-2.9477 12.015-3.1134c0.91735-0.28573 0.96675 3.4266 0.96675 72.656 0 40.127-0.18644 72.944-0.41432 72.926-0.22788-0.0172-15.33-4.4901-33.56-9.9398z"/>
        <path transform="translate(.36395 .17209)" d="m138.66 191.76c-18.23-5.4496-34.078-10.168-35.217-10.486l-2.0716-0.57766v-18.485c0-10.167 0.18644-18.485 0.41432-18.485 0.22787 2e-4 9.8608 2.6985 21.407 5.9963l20.992 5.9959 0.28248-92.606 2.0685-0.5351c1.1377-0.2943 7.0403-1.8006 13.117-3.3473s11.484-2.9477 12.015-3.1134c0.91735-0.28573 0.96675 3.4266 0.96675 72.656 0 40.127-0.18644 72.944-0.41432 72.926-0.22788-0.0172-15.33-4.4901-33.56-9.9398z"/>
        <path transform="translate(.36395 .17209)" d="m13.862 197.53c-7.2659-1.9423-13.295-3.6157-13.398-3.7186-0.10296-0.10296-0.12433-41.951-0.047482-92.996l0.13972-92.809 49.865 14.189c27.426 7.8041 49.988 14.313 50.14 14.465 0.15146 0.15146 0.21001 8.9661 0.13011 19.588l-0.14527 19.313-35.28-9.5897c-19.404-5.2743-35.383-9.4866-35.509-9.3605-0.12605 0.12605-0.40861 32.639-0.62791 72.252-0.35108 63.417-0.49774 72.033-1.2274 72.11-0.45575 0.0482-6.7735-1.5016-14.039-3.4439z"/>
        <path transform="translate(.36395 .17209)" d="m13.862 197.53c-7.2659-1.9423-13.295-3.6157-13.398-3.7186-0.10296-0.10296-0.12433-41.951-0.047482-92.996l0.13972-92.809 49.865 14.189c27.426 7.8041 49.988 14.313 50.14 14.465 0.15146 0.15146 0.21001 8.9661 0.13011 19.588l-0.14527 19.313-35.28-9.5897c-19.404-5.2743-35.383-9.4866-35.509-9.3605-0.12605 0.12605-0.40861 32.639-0.62791 72.252-0.35108 63.417-0.49774 72.033-1.2274 72.11-0.45575 0.0482-6.7735-1.5016-14.039-3.4439z"/>
        <path transform="translate(.36395 .17209)" d="m13.862 197.53c-7.2659-1.9423-13.295-3.6157-13.398-3.7186-0.10296-0.10296-0.12433-41.951-0.047482-92.996l0.13972-92.809 49.865 14.189c27.426 7.8041 49.988 14.313 50.14 14.465 0.15146 0.15146 0.21001 8.9661 0.13011 19.588l-0.14527 19.313-35.28-9.5897c-19.404-5.2743-35.383-9.4866-35.509-9.3605-0.12605 0.12605-0.40861 32.639-0.62791 72.252-0.35108 63.417-0.49774 72.033-1.2274 72.11-0.45575 0.0482-6.7735-1.5016-14.039-3.4439z"/>
        <path transform="translate(.36395 .17209)" d="m13.862 197.53c-7.2659-1.9423-13.295-3.6157-13.398-3.7186-0.10296-0.10296-0.12433-41.951-0.047482-92.996l0.13972-92.809 49.865 14.189c27.426 7.8041 49.988 14.313 50.14 14.465 0.15146 0.15146 0.21001 8.9661 0.13011 19.588l-0.14527 19.313-35.28-9.5897c-19.404-5.2743-35.383-9.4866-35.509-9.3605-0.12605 0.12605-0.40861 32.639-0.62791 72.252-0.35108 63.417-0.49774 72.033-1.2274 72.11-0.45575 0.0482-6.7735-1.5016-14.039-3.4439z"/>
        <path transform="translate(.36395 .17209)" d="m138.32 191.67c-18.23-5.4486-34.078-10.165-35.217-10.481l-2.0716-0.57411v-18.485c0-10.167 0.18644-18.483 0.41432-18.48 0.22787 3e-3 9.8608 2.6902 21.407 5.9718l20.992 5.9666 0.28244-92.37 13.669-3.4998c7.5182-1.9249 13.98-3.6187 14.36-3.7639 0.55028-0.21052 0.69054 14.559 0.69054 72.715 0 58.035-0.14141 72.972-0.69054 72.943-0.37979-0.0202-15.606-4.4947-33.836-9.9433z"/>
        <path transform="translate(.36395 .17209)" d="m138.32 191.67c-18.23-5.4486-34.078-10.165-35.217-10.481l-2.0716-0.57411v-18.485c0-10.167 0.18644-18.483 0.41432-18.48 0.22787 3e-3 9.8608 2.6902 21.407 5.9718l20.992 5.9666 0.28244-92.37 13.669-3.4998c7.5182-1.9249 13.98-3.6187 14.36-3.7639 0.55028-0.21052 0.69054 14.559 0.69054 72.715 0 58.035-0.14141 72.972-0.69054 72.943-0.37979-0.0202-15.606-4.4947-33.836-9.9433z"/>
        <path transform="translate(.36395 .17209)" d="m13.746 197.52-12.982-3.4363-0.13971-92.893c-0.10453-69.498 0.019629-92.893 0.49298-92.893 0.34798 0 22.971 6.3712 50.272 14.158l49.64 14.158v19.577c0 18.392-0.0585 19.559-0.96675 19.273-5.687-1.7911-70.066-18.967-70.283-18.751-0.23719 0.23706-0.57639 42.964-1.0618 133.75-0.05222 9.766-0.13579 10.629-1.0236 10.565-0.53171-0.0381-6.8087-1.6156-13.949-3.5056z"/>
        <path transform="translate(.36395 .17209)" d="m13.746 197.52-12.982-3.4363-0.13971-92.893c-0.10453-69.498 0.019629-92.893 0.49298-92.893 0.34798 0 22.971 6.3712 50.272 14.158l49.64 14.158v19.577c0 18.392-0.0585 19.559-0.96675 19.273-5.687-1.7911-70.066-18.967-70.283-18.751-0.23719 0.23706-0.57639 42.964-1.0618 133.75-0.05222 9.766-0.13579 10.629-1.0236 10.565-0.53171-0.0381-6.8087-1.6156-13.949-3.5056z"/>
        <path transform="translate(.36395 .17209)" d="m13.746 197.52-12.982-3.4363-0.13971-92.893c-0.10453-69.498 0.019629-92.893 0.49298-92.893 0.34798 0 22.971 6.3712 50.272 14.158l49.64 14.158v19.577c0 18.392-0.0585 19.559-0.96675 19.273-5.687-1.7911-70.066-18.967-70.283-18.751-0.23719 0.23706-0.57639 42.964-1.0618 133.75-0.05222 9.766-0.13579 10.629-1.0236 10.565-0.53171-0.0381-6.8087-1.6156-13.949-3.5056z"/>
        <path transform="translate(.36395 .17209)" d="m13.746 197.52-12.982-3.4363-0.13971-92.893c-0.10453-69.498 0.019629-92.893 0.49298-92.893 0.34798 0 22.971 6.3712 50.272 14.158l49.64 14.158v19.577c0 18.392-0.0585 19.559-0.96675 19.273-5.687-1.7911-70.066-18.967-70.283-18.751-0.23719 0.23706-0.57639 42.964-1.0618 133.75-0.05222 9.766-0.13579 10.629-1.0236 10.565-0.53171-0.0381-6.8087-1.6156-13.949-3.5056z"/>
        <path transform="translate(.36395 .17209)" d="m13.746 197.52-12.982-3.4363-0.13971-92.893c-0.10453-69.498 0.019629-92.893 0.49298-92.893 0.34798 0 22.971 6.3712 50.272 14.158l49.64 14.158v19.577c0 18.392-0.0585 19.559-0.96675 19.273-5.687-1.7911-70.066-18.967-70.283-18.751-0.23719 0.23706-0.57639 42.964-1.0618 133.75-0.05222 9.766-0.13579 10.629-1.0236 10.565-0.53171-0.0381-6.8087-1.6156-13.949-3.5056z"/>
        <path transform="translate(.36395 .17209)" d="m13.746 197.52-12.982-3.4363-0.13971-92.893c-0.10453-69.498 0.019629-92.893 0.49298-92.893 0.34798 0 22.971 6.3712 50.272 14.158l49.64 14.158v19.577c0 18.392-0.0585 19.559-0.96675 19.273-5.687-1.7911-70.066-18.967-70.283-18.751-0.23719 0.23706-0.57639 42.964-1.0618 133.75-0.05222 9.766-0.13579 10.629-1.0236 10.565-0.53171-0.0381-6.8087-1.6156-13.949-3.5056z"/>
        <path transform="translate(.36395 .17209)" d="m13.746 197.52-12.982-3.4363-0.13971-92.893c-0.10453-69.498 0.019629-92.893 0.49298-92.893 0.34798 0 22.971 6.3712 50.272 14.158l49.64 14.158v19.577c0 18.392-0.0585 19.559-0.96675 19.273-5.687-1.7911-70.066-18.967-70.283-18.751-0.23719 0.23706-0.57639 42.964-1.0618 133.75-0.05222 9.766-0.13579 10.629-1.0236 10.565-0.53171-0.0381-6.8087-1.6156-13.949-3.5056z"/>
        <path transform="translate(.36395 .17209)" d="m13.746 197.52-12.982-3.4363-0.13971-92.893c-0.10453-69.498 0.019629-92.893 0.49298-92.893 0.34798 0 22.971 6.3712 50.272 14.158l49.64 14.158v19.577c0 18.392-0.0585 19.559-0.96675 19.273-5.687-1.7911-70.066-18.967-70.283-18.751-0.23719 0.23706-0.57639 42.964-1.0618 133.75-0.05222 9.766-0.13579 10.629-1.0236 10.565-0.53171-0.0381-6.8087-1.6156-13.949-3.5056z"/>
       </g>
      </g>
     </g>
     <g transform="translate(-.36395 -.17209)" display="inline" opacity="1">
      <path d="m856.34 128.65v-65.5h27l0.0153 6.75c0.0879 9.9565-0.84756 11.501 2.6502 7.1952 0.95132-1.1773 2.5092-3.2412 4.0105-4.8161 4.7229-7.494 17.02-12.816 28.733-11.728 17.142 1.5932 27.621 11.281 32.745 30.274 2.8579 10.592 3.1152 35.564 0.46608 45.229-3.7234 13.583-9.2171 21.284-18.384 25.768-4.8704 2.3828-7.23 2.8507-16.019 3.176-9.8925 0.36619-10.563 0.25583-16.649-2.7403-6.1546-3.0299-9.3078-7.3029-13.195-11.926-4.2588-5.0656-3.8288-5.0567-3.7665-1.6-0.33385 0.86998-0.60699 11.445-0.60699 23.5l1e-5 21.918h-27zm54.03 14.4c6.3471-1.3612 11.268-5.4937 13.499-11.337 1.3475-3.5284 1.5906-7.1325 1.2953-19.203-0.40349-16.491-1.6194-20.485-7.8259-25.708-8.8283-7.4286-25.418-5.1441-31.298 4.3098-2.0612 3.3139-2.2006 4.7131-2.2006 22.083 0 15.894 0.24721 18.922 1.7294 21.183 2.6841 4.0948 8.1144 7.7527 12.908 8.6949 6.1143 1.2018 6.1807 1.2017 11.892-0.0232zm-471.66 21.011c-6.4448-1.8678-12.665-7.1067-15.842-13.343-2.7112-5.3214-3.0207-6.8665-3.0051-15 0.0157-8.1674 0.31345-9.6056 3-14.488 6.3544-11.548 17.079-16.098 39.483-16.75 19.723-0.57427 19-0.34238 18.998-6.098-6e-3 -17.387-21.855-23.156-36.802-9.7174l-5.0317 4.5239-7.5822-6.6921c-4.1702-3.6807-7.5822-7.2238-7.5822-7.8737 0-1.9645 10.187-10.924 15.122-13.3 7.7707-3.7416 18.123-5.4414 29.466-4.8382 20.688 1.1001 32.485 8.1273 38.054 22.667 1.4245 3.7196 1.7894 8.9221 2.1038 30 0.42113 28.231 0.3635 28 6.9798 28h3.3427l-0.56766 21.5-8.5 0.30427c-4.675 0.16734-9.9894 0.0294-11.81-0.30651-4.3813-0.80854-10.784-6.7149-12.265-11.314-2.26-7.0195-3.9406-7.4768-6.3434-1.7261-2.374 5.6819-8.259 11.277-14.197 13.499-5.9036 2.2088-20.867 2.737-27.02 0.95371zm35.556-19.517c5.416-3.1885 7.0792-7.001 7.0792-16.227 0-10.241-0.57911-10.665-13.502-9.8941-15.254 0.91007-20.498 4.5724-20.498 14.315 0 7.1349 1.6435 10.332 6.4796 12.605 5.1368 2.4144 15.683 2.0022 20.441-0.79895zm229.89 19.189c-16.361-4.6912-26.686-15.567-30.931-32.583-1.7519-7.0212-1.73-26.786 0.0376-34 5.0955-20.795 18.484-33.282 38.831-36.217 9.7467-1.406 21.471-0.10133 29.031 3.2307 17.128 7.5486 26.205 23.268 26.557 45.986l0.1624 10.5-67 1-0.34655 2.456c-0.51332 3.6379 1.5395 9.5256 4.5818 13.141 4.2091 5.0022 9.4239 6.8588 19.265 6.8588 9.6576 0 14.544-1.7022 21.687-7.5558 2.3661-1.9388 4.6951-3.2821 5.1756-2.9852 2.5304 1.5639 12.253 14.744 11.968 16.224-0.48249 2.5054-11.54 9.7219-18.943 12.362-5.288 1.8862-8.8856 2.3344-20.888 2.6021-10.033 0.22376-15.944-0.0907-19.187-1.0206zm33.253-58.618c3.4393-1.8407 2.1818-11.799-2.3029-18.237-5.4986-7.8942-20.263-8.9124-28.118-1.9392-5.3052 4.7097-8.5389 18.009-4.8949 20.132 2.3229 1.353 32.799 1.3917 35.316 0.0449zm261.75 58.565c-21.224-5.8456-31.813-22.331-31.813-49.53 0-18.171 4.4945-31.151 14.2-41.011 13.395-13.608 38.412-16.867 57.472-7.4866 11.65 5.7336 19.019 15.501 23.005 30.498 2.1277 8.0041 2.355 27.088 0.4168 35-4.2123 17.195-14.707 28.32-30.628 32.467-7.1883 1.8723-25.952 1.9086-32.652 0.0631zm24.485-20.881c4.2741-1.7858 9.3369-7.6714 10.642-12.372 1.3369-4.8144 1.3687-29.626 0.044-34.395-2.5373-9.1344-9.2881-14.219-18.866-14.211-8.3373 0.0077-13.465 3.2809-17.746 11.328-1.5844 2.9784-1.8626 5.8098-1.8669 19-0.01 20.47 1.8161 25.499 10.995 30.338 3.7097 1.9557 12.473 2.1177 16.798 0.31059zm-753.06-39.37 0.25788-59.779 30.301-0.55102 16.232 31.276c8.9277 17.202 16.678 31.838 17.222 32.526 0.54443 0.6875 1.5664 1.25 2.2712 1.25s8.5786-14.062 17.498-31.25c8.9189-17.188 16.677-31.824 17.24-32.526 0.76524-0.9535 4.7148-1.2062 15.63-1l14.606 0.27591 0.51574 119.5h-26.244l0.36393-38.166c0.44091-46.238 0.62436-45.7-8.6393-25.334-5.7369 12.613-30.335 58.515-31.333 58.47-1.0636-0.0484-25.729-46.287-31.857-59.72-5.1466-11.282-7.4297-14.232-8.5121-11-0.23023 0.6875-0.048 8.45 0.40497 17.25s0.70569 25.45 0.56161 37l-0.26197 21-26.516 0.55816zm286.47 58.299c-6.6622-1.7916-11.692-6.1299-15.213-13.121l-3-5.9566-1-57-14-1-0.56766-21.5 3.2838-0.0056c4.9686-0.0084 10.262-1.7609 12.384-4.0999 1.4512-1.5997 2.018-4.137 2.3999-10.744l0.5-8.6501 24.5-0.56156v10.996c0 13.189-0.11768 13.066 12.468 13.066h8.5996l-0.56766 21.5-20 1-0.26742 26.5c-0.24245 24.027-0.10794 26.617 1.4411 27.75 1.0216 0.74742 4.8482 1.25 9.5174 1.25h7.8089v22l-11.75-0.0675c-6.4625-0.0371-13.904-0.64673-16.537-1.3547zm73.766-0.37924c-7.464-2.5809-11.039-5.6021-14.167-11.973l-2.8117-5.7259-0.25949-27c-0.14273-14.85-0.48366-27.992-0.75763-29.204-0.44438-1.9666-1.2258-2.2364-7.2405-2.5l-6.7424-0.29552-0.2824-10.609-0.28239-10.609 5.6376-0.66258c3.1007-0.36442 6.5283-1.1393 7.6171-1.722 3.0352-1.6244 4.8102-7.1101 4.8102-14.866v-7.0321h24v10.429c0 13.408 0.14508 13.571 12.071 13.571h8.9286v22h-9.4648c-8.3341 0-9.5885 0.23107-10.5 1.9343-0.63275 1.1823-1.0352 11.456-1.0352 26.429 0 20.934 0.2284 24.723 1.5714 26.066 1.18 1.18 3.671 1.5714 10 1.5714h8.4286v22l-12.25-0.0326c-8.9654-0.0239-13.596-0.49815-17.271-1.7688zm152.52-48.17v-50.028h28v8.5733c0 10.155 1.0234 10.645 6.1718 2.9558 4.8197-7.1985 11.277-10.876 19.959-11.367l6.8694-0.38815v21.86l-9.3865 1.0984c-11.841 1.3856-18.38 4.5923-21.955 10.767-0.78076 1.3482-1.3211 12.428-1.6582 34l-0.5 32-27.5 0.55644zm296-0.0282v-50h27v7.3089c0 4.6133 0.5057 8.0005 1.3712 9.1841 1.2849 1.7572 1.5445 1.5961 4.1236-2.5589 4.1536-6.6917 6.5207-8.9703 12.005-11.557 3.4299-1.6175 6.8056-2.361 10.75-2.3677l5.75-0.0098v21.742l-7.25 0.67415c-10.806 1.0048-16.806 3.0036-20.395 6.7938-5.9084 6.2404-5.8288 5.7309-6.1807 39.541l-0.3254 31.25h-26.849zm89.668 48.566c-8.7726-2.3579-14.722-8.6497-17.14-18.128-1.3112-5.1386-1.5072-13.515-1.2871-55l0.2596-48.938 24.5-0.56156v10.459c0 13.935-0.064 13.875 14.157 13.437l10.846-0.33434v11.5l1e-4 11.5h-21.503l-0.2674 26.5c-0.2425 24.027-0.108 26.617 1.4411 27.75 1.0216 0.74742 4.8482 1.25 9.5174 1.25h7.8089v22l-11.75-0.0675c-6.4625-0.0371-13.925-0.65199-16.582-1.3664z" fill="#212221"/>
      <g fill-opacity="0">
       <g stroke-width=".39062">
        <path transform="translate(.36395 .17209)" d="m145.92 194.02c-14.287-4.2666-30.266-9.0335-35.509-10.593l-9.5321-2.8357 0.27957-18.37c0.15376-10.103 0.3529-18.443 0.44252-18.533 0.0896-0.0896 9.7025 2.5621 21.362 5.8928l21.199 6.0557 0.39062-91.86 14.062-4.0091c7.7344-2.205 14.106-4.0112 14.16-4.0137 0.0537-0.0025 0.0977 32.866 0.0977 73.042 0 58.195-0.0993 73.04-0.48829 73.014-0.26855-0.0182-12.178-3.5239-26.465-7.7905z"/>
        <path transform="translate(.36395 .17209)" d="m145.92 194.02c-14.287-4.2666-30.266-9.0335-35.509-10.593l-9.5321-2.8357 0.27957-18.37c0.15376-10.103 0.3529-18.443 0.44252-18.533 0.0896-0.0896 9.7025 2.5621 21.362 5.8928l21.199 6.0557 0.39062-91.86 14.062-4.0091c7.7344-2.205 14.106-4.0112 14.16-4.0137 0.0537-0.0025 0.0977 32.866 0.0977 73.042 0 58.195-0.0993 73.04-0.48829 73.014-0.26855-0.0182-12.178-3.5239-26.465-7.7905z"/>
        <path transform="translate(.36395 .17209)" d="m136.55 191.24-35.449-10.588v-37.379l0.82963 0.26331c3.1989 1.0153 41.653 11.899 42.041 11.899 0.38807 0 0.48845-9.4172 0.48845-45.825v-45.825l13.574-3.8452c7.4658-2.1148 13.794-3.9247 14.062-4.0218 0.38951-0.14093 0.48828 14.607 0.48828 72.912 0 40.199-0.13184 73.068-0.29297 73.043-0.16113-0.0249-16.245-4.8101-35.742-10.634z"/>
        <path transform="translate(.36395 .17209)" d="m136.55 191.24-35.449-10.588v-37.379l0.82963 0.26331c3.1989 1.0153 41.653 11.899 42.041 11.899 0.38807 0 0.48845-9.4172 0.48845-45.825v-45.825l13.574-3.8452c7.4658-2.1148 13.794-3.9247 14.062-4.0218 0.38951-0.14093 0.48828 14.607 0.48828 72.912 0 40.199-0.13184 73.068-0.29297 73.043-0.16113-0.0249-16.245-4.8101-35.742-10.634z"/>
        <path transform="translate(.36395 .17209)" d="m136.55 191.24-35.449-10.588v-37.379l0.82963 0.26331c3.1989 1.0153 41.653 11.899 42.041 11.899 0.38807 0 0.48845-9.4172 0.48845-45.825v-45.825l13.574-3.8452c7.4658-2.1148 13.794-3.9247 14.062-4.0218 0.38951-0.14093 0.48828 14.607 0.48828 72.912 0 40.199-0.13184 73.068-0.29297 73.043-0.16113-0.0249-16.245-4.8101-35.742-10.634z"/>
       </g>
       <g stroke-width=".55243">
        <path transform="translate(.36395 .17209)" d="m138.66 191.76c-18.23-5.4496-34.078-10.168-35.217-10.486l-2.0716-0.57766v-18.485c0-10.167 0.18644-18.485 0.41432-18.485 0.22787 2e-4 9.8608 2.6985 21.407 5.9963l20.992 5.9959 0.28248-92.606 2.0685-0.5351c1.1377-0.2943 7.0403-1.8006 13.117-3.3473s11.484-2.9477 12.015-3.1134c0.91735-0.28573 0.96675 3.4266 0.96675 72.656 0 40.127-0.18644 72.944-0.41432 72.926-0.22788-0.0172-15.33-4.4901-33.56-9.9398z"/>
        <path transform="translate(.36395 .17209)" d="m138.66 191.76c-18.23-5.4496-34.078-10.168-35.217-10.486l-2.0716-0.57766v-18.485c0-10.167 0.18644-18.485 0.41432-18.485 0.22787 2e-4 9.8608 2.6985 21.407 5.9963l20.992 5.9959 0.28248-92.606 2.0685-0.5351c1.1377-0.2943 7.0403-1.8006 13.117-3.3473s11.484-2.9477 12.015-3.1134c0.91735-0.28573 0.96675 3.4266 0.96675 72.656 0 40.127-0.18644 72.944-0.41432 72.926-0.22788-0.0172-15.33-4.4901-33.56-9.9398z"/>
        <path transform="translate(.36395 .17209)" d="m138.66 191.76c-18.23-5.4496-34.078-10.168-35.217-10.486l-2.0716-0.57766v-18.485c0-10.167 0.18644-18.485 0.41432-18.485 0.22787 2e-4 9.8608 2.6985 21.407 5.9963l20.992 5.9959 0.28248-92.606 2.0685-0.5351c1.1377-0.2943 7.0403-1.8006 13.117-3.3473s11.484-2.9477 12.015-3.1134c0.91735-0.28573 0.96675 3.4266 0.96675 72.656 0 40.127-0.18644 72.944-0.41432 72.926-0.22788-0.0172-15.33-4.4901-33.56-9.9398z"/>
        <path transform="translate(.36395 .17209)" d="m13.862 197.53c-7.2659-1.9423-13.295-3.6157-13.398-3.7186-0.10296-0.10296-0.12433-41.951-0.047482-92.996l0.13972-92.809 49.865 14.189c27.426 7.8041 49.988 14.313 50.14 14.465 0.15146 0.15146 0.21001 8.9661 0.13011 19.588l-0.14527 19.313-35.28-9.5897c-19.404-5.2743-35.383-9.4866-35.509-9.3605-0.12605 0.12605-0.40861 32.639-0.62791 72.252-0.35108 63.417-0.49774 72.033-1.2274 72.11-0.45575 0.0482-6.7735-1.5016-14.039-3.4439z"/>
        <path transform="translate(.36395 .17209)" d="m13.862 197.53c-7.2659-1.9423-13.295-3.6157-13.398-3.7186-0.10296-0.10296-0.12433-41.951-0.047482-92.996l0.13972-92.809 49.865 14.189c27.426 7.8041 49.988 14.313 50.14 14.465 0.15146 0.15146 0.21001 8.9661 0.13011 19.588l-0.14527 19.313-35.28-9.5897c-19.404-5.2743-35.383-9.4866-35.509-9.3605-0.12605 0.12605-0.40861 32.639-0.62791 72.252-0.35108 63.417-0.49774 72.033-1.2274 72.11-0.45575 0.0482-6.7735-1.5016-14.039-3.4439z"/>
        <path transform="translate(.36395 .17209)" d="m13.862 197.53c-7.2659-1.9423-13.295-3.6157-13.398-3.7186-0.10296-0.10296-0.12433-41.951-0.047482-92.996l0.13972-92.809 49.865 14.189c27.426 7.8041 49.988 14.313 50.14 14.465 0.15146 0.15146 0.21001 8.9661 0.13011 19.588l-0.14527 19.313-35.28-9.5897c-19.404-5.2743-35.383-9.4866-35.509-9.3605-0.12605 0.12605-0.40861 32.639-0.62791 72.252-0.35108 63.417-0.49774 72.033-1.2274 72.11-0.45575 0.0482-6.7735-1.5016-14.039-3.4439z"/>
        <path transform="translate(.36395 .17209)" d="m13.862 197.53c-7.2659-1.9423-13.295-3.6157-13.398-3.7186-0.10296-0.10296-0.12433-41.951-0.047482-92.996l0.13972-92.809 49.865 14.189c27.426 7.8041 49.988 14.313 50.14 14.465 0.15146 0.15146 0.21001 8.9661 0.13011 19.588l-0.14527 19.313-35.28-9.5897c-19.404-5.2743-35.383-9.4866-35.509-9.3605-0.12605 0.12605-0.40861 32.639-0.62791 72.252-0.35108 63.417-0.49774 72.033-1.2274 72.11-0.45575 0.0482-6.7735-1.5016-14.039-3.4439z"/>
        <path transform="translate(.36395 .17209)" d="m138.32 191.67c-18.23-5.4486-34.078-10.165-35.217-10.481l-2.0716-0.57411v-18.485c0-10.167 0.18644-18.483 0.41432-18.48 0.22787 3e-3 9.8608 2.6902 21.407 5.9718l20.992 5.9666 0.28244-92.37 13.669-3.4998c7.5182-1.9249 13.98-3.6187 14.36-3.7639 0.55028-0.21052 0.69054 14.559 0.69054 72.715 0 58.035-0.14141 72.972-0.69054 72.943-0.37979-0.0202-15.606-4.4947-33.836-9.9433z"/>
        <path transform="translate(.36395 .17209)" d="m138.32 191.67c-18.23-5.4486-34.078-10.165-35.217-10.481l-2.0716-0.57411v-18.485c0-10.167 0.18644-18.483 0.41432-18.48 0.22787 3e-3 9.8608 2.6902 21.407 5.9718l20.992 5.9666 0.28244-92.37 13.669-3.4998c7.5182-1.9249 13.98-3.6187 14.36-3.7639 0.55028-0.21052 0.69054 14.559 0.69054 72.715 0 58.035-0.14141 72.972-0.69054 72.943-0.37979-0.0202-15.606-4.4947-33.836-9.9433z"/>
        <path transform="translate(.36395 .17209)" d="m13.746 197.52-12.982-3.4363-0.13971-92.893c-0.10453-69.498 0.019629-92.893 0.49298-92.893 0.34798 0 22.971 6.3712 50.272 14.158l49.64 14.158v19.577c0 18.392-0.0585 19.559-0.96675 19.273-5.687-1.7911-70.066-18.967-70.283-18.751-0.23719 0.23706-0.57639 42.964-1.0618 133.75-0.05222 9.766-0.13579 10.629-1.0236 10.565-0.53171-0.0381-6.8087-1.6156-13.949-3.5056z"/>
        <path transform="translate(.36395 .17209)" d="m13.746 197.52-12.982-3.4363-0.13971-92.893c-0.10453-69.498 0.019629-92.893 0.49298-92.893 0.34798 0 22.971 6.3712 50.272 14.158l49.64 14.158v19.577c0 18.392-0.0585 19.559-0.96675 19.273-5.687-1.7911-70.066-18.967-70.283-18.751-0.23719 0.23706-0.57639 42.964-1.0618 133.75-0.05222 9.766-0.13579 10.629-1.0236 10.565-0.53171-0.0381-6.8087-1.6156-13.949-3.5056z"/>
        <path transform="translate(.36395 .17209)" d="m13.746 197.52-12.982-3.4363-0.13971-92.893c-0.10453-69.498 0.019629-92.893 0.49298-92.893 0.34798 0 22.971 6.3712 50.272 14.158l49.64 14.158v19.577c0 18.392-0.0585 19.559-0.96675 19.273-5.687-1.7911-70.066-18.967-70.283-18.751-0.23719 0.23706-0.57639 42.964-1.0618 133.75-0.05222 9.766-0.13579 10.629-1.0236 10.565-0.53171-0.0381-6.8087-1.6156-13.949-3.5056z"/>
        <path transform="translate(.36395 .17209)" d="m13.746 197.52-12.982-3.4363-0.13971-92.893c-0.10453-69.498 0.019629-92.893 0.49298-92.893 0.34798 0 22.971 6.3712 50.272 14.158l49.64 14.158v19.577c0 18.392-0.0585 19.559-0.96675 19.273-5.687-1.7911-70.066-18.967-70.283-18.751-0.23719 0.23706-0.57639 42.964-1.0618 133.75-0.05222 9.766-0.13579 10.629-1.0236 10.565-0.53171-0.0381-6.8087-1.6156-13.949-3.5056z"/>
        <path transform="translate(.36395 .17209)" d="m13.746 197.52-12.982-3.4363-0.13971-92.893c-0.10453-69.498 0.019629-92.893 0.49298-92.893 0.34798 0 22.971 6.3712 50.272 14.158l49.64 14.158v19.577c0 18.392-0.0585 19.559-0.96675 19.273-5.687-1.7911-70.066-18.967-70.283-18.751-0.23719 0.23706-0.57639 42.964-1.0618 133.75-0.05222 9.766-0.13579 10.629-1.0236 10.565-0.53171-0.0381-6.8087-1.6156-13.949-3.5056z"/>
        <path transform="translate(.36395 .17209)" d="m13.746 197.52-12.982-3.4363-0.13971-92.893c-0.10453-69.498 0.019629-92.893 0.49298-92.893 0.34798 0 22.971 6.3712 50.272 14.158l49.64 14.158v19.577c0 18.392-0.0585 19.559-0.96675 19.273-5.687-1.7911-70.066-18.967-70.283-18.751-0.23719 0.23706-0.57639 42.964-1.0618 133.75-0.05222 9.766-0.13579 10.629-1.0236 10.565-0.53171-0.0381-6.8087-1.6156-13.949-3.5056z"/>
        <path transform="translate(.36395 .17209)" d="m13.746 197.52-12.982-3.4363-0.13971-92.893c-0.10453-69.498 0.019629-92.893 0.49298-92.893 0.34798 0 22.971 6.3712 50.272 14.158l49.64 14.158v19.577c0 18.392-0.0585 19.559-0.96675 19.273-5.687-1.7911-70.066-18.967-70.283-18.751-0.23719 0.23706-0.57639 42.964-1.0618 133.75-0.05222 9.766-0.13579 10.629-1.0236 10.565-0.53171-0.0381-6.8087-1.6156-13.949-3.5056z"/>
        <path transform="translate(.36395 .17209)" d="m13.746 197.52-12.982-3.4363-0.13971-92.893c-0.10453-69.498 0.019629-92.893 0.49298-92.893 0.34798 0 22.971 6.3712 50.272 14.158l49.64 14.158v19.577c0 18.392-0.0585 19.559-0.96675 19.273-5.687-1.7911-70.066-18.967-70.283-18.751-0.23719 0.23706-0.57639 42.964-1.0618 133.75-0.05222 9.766-0.13579 10.629-1.0236 10.565-0.53171-0.0381-6.8087-1.6156-13.949-3.5056z"/>
       </g>
      </g>
     </g>
     <g transform="translate(-.36395 -.17209)" display="inline">
      <path d="m58.29 155.59 43.109-12.302-0.0588 37.704-72 20.878 0.80409-145.1 28.146 7.0353m43.109-27.268 100.79-28.797v186.52l-28.903 8.1223v-146.65l-71.891 20.408" fill="#6d6e6e"/>
     </g>
     <desc>Created with Snap</desc>
    </svg>
   </g>
   <g transform="translate(400 576.59)" display="block" font-family="Verdana" font-size="6.2815px" text-anchor="middle">
    <text/>
    <text/>
    <text/>
    <text/>
    <text/>
   </g>
  </g>
  <rect y="296.73" width="3.1367" height=".26922" fill="#fff"/>
  <text x="417.77405" y="286.34369" fill="#aaaaaa" font-family="Verdana" font-size="4.8962px" stroke-width=".81845"><tspan font-size="5.6444px" stroke-width=".81845">SIZES AND DIMENSIONS ARE APPROXIMATE, ACTUAL MAY VARY.</tspan></text>
  <rect x="53.166" y="-374.78" width="919.68" height="573.75" fill="#fff" fill-rule="evenodd" stroke-width="0" style="paint-order:normal"/>
  <text x="31.692884" y="243.34659" fill="#aaaaaa" font-family="Verdana" font-size="4.8962px" stroke-width=".81845"><tspan font-size="5.6444px" stroke-width=".81845">FLOOR 2</tspan></text>
  <g font-family="Verdana" font-size="5.6736px" stroke-width=".81845">
   <text x="419.28058" y="268.39871" opacity=".99">FLOOR 1: 769.71 m<tspan baseline-shift="super" font-size="65%">2</tspan>, FLOOR 2: 378.28 m<tspan baseline-shift="super" font-size="65%">2</tspan>, FLOOR 3: 31.26 m<tspan baseline-shift="super" font-size="65%">2</tspan></text>
   <text x="476.29681" y="260.82541" opacity=".99">GROSS INTERNAL AREA</text>
   <text x="484.68146" y="276.84085" opacity=".99">TOTAL: 1179.25 m<tspan baseline-shift="super" font-size="65%">2</tspan></text>
  </g>
  <g transform="matrix(1.2117 0 0 1.2117 -284.96 25.039)">
   <g transform="matrix(.37827 0 0 .37827 -1087.5 -63.059)" opacity=".99">
    <g transform="matrix(0 -.32327 .32327 0 3492.4 1027.9)" opacity=".99" stroke-linecap="square" stroke-miterlimit="10">
     <g transform="translate(161.19,23.128)">
      <clipPath>
       <path d="m2143.2 1862.4v333.72h10.048v92.112h-812.69v-425.84zm2230.4 595.36v438.94h-173.74v-269.99l-19.014-0.3135v-168.64zm-203.63-10.16v10.16h0.7197v178.63l19.014 0.3139v270.16h194.06v-449.1h0.835v-10.16zm-2016.7-149.2v688.95h-812.69v-688.95zm3015.5-102.27v1976.9l-486.37-1e-4v-0.1249h-10.16v0.1249l-2503.8-4e-4v-966.89h234.13v-10.16h-234.13v-999.84zm-979.32 1992.1 482.78 1e-4v302.02h-482.78zm-504.54-1e-4 494.38 1e-4v416.74l-237.65-2.5552v-73.917h-256.73zm-1504.2-2e-4h502.31v214.63h10.16v-214.63l981.61 2e-4v622.61h-7.6199v30.05h-482.6v-30.05h-25.4v30.05h-459.1v-30.05h-20.955v-10.16h-22.095v-305.35h-10.16v345.56h-457.96v-32.385h-8.1871zm1750.8 350.43v73.808l247.81 2.665v195.7h-15.592v30.05h-458.47v-30.05h-20.32v-272.18zm740.76-38.25v340.48h-482.78v-340.48zm10.16-312.18h486.37v155.98h-6.5645v30.48h6.5645v452.16h-53.34v14.042h-413.25v-30.05h-19.784zm-3357.1-2341.1v1155.4h827.93v1853.6h14.743v0.125h12.7v-0.125h1494.1v0.125h10.16v-0.125h1499.1v-2675.3h-3030.7v-333.72z"/>
      </clipPath>
     </g>
     <g transform="translate(161.19,23.128)">
      <g fill="none" stroke="#000" stroke-width="1.375">
       <path transform="rotate(90,7887.9,2574)" d="m7494.8 5277.9v3030.7h-333.72v828.04h1155.4v-827.93h1853.6v-14.742h0.125v-12.699h-0.125v-1494.1h0.125v-10.16h-0.125v-1499.1zm15.24 15.24h1976.9v486.37h-0.125v10.16h0.125v2503.8h-966.89v-234.13h-10.16v234.13h-999.83zm1992.1 0h155.98v6.5645h30.48v-6.5645h452.16v53.34h14.041v413.25h-30.049v19.783h-618.03v-30.268h-4.5762zm0 496.53h302.02v482.79h-302.02zm312.18 0h340.48v482.79h-340.48zm-2052.8 288.49v213.07h188.79l0.3145-19.014h270.16v-194.06h-449.1zm10.16 10.158h438.94v173.74h-269.99l-0.3145 19.014h-168.64zm1730.5 194.3h414.19v237.65h-73.918v256.73h-340.27zm424.24 0h198.37v15.592h30.049v458.47h-30.049v12.949h-12.445v7.3691h-259.73v-246.57h73.809zm-424.24 504.54h622.61v7.6211h30.049v482.6h-30.049v25.4h30.049v459.1h-18.049v20.955h-10.16v22.096h-322.65v10.16h350.86v462.79h-32.385v3.3496h-458.77v-3.3515h-29.346v3.3515h-127.33v-22.994h-4.8262v-479.32h214.63v-10.158h-214.63v-506.49h4.8262v-22.994h-4.8262zm-2325.9 1535.2h425.84v799.03h-425.84zm436 0h688.96v799.03h-688.96z" fill="#000"/>
      </g>
     </g>
     <g transform="translate(161.19,23.128)">
      <clipPath>
       <path d="m2096.6 1898.1v120.65h-131.98v236.9h-296.01v-231.39h-80.756v140.23h10.16v-130.07h60.436v221.23h-133.35v-357.55zm-581.67-10.16v377.87h459.84v-236.9h131.98v-140.97zm-22.736 701.45 14.901 2.0715 14.223 4.9046 13.011 7.5534 11.311 9.9192 9.1876 11.913 6.7196 13.46 3.9996 14.503 1.1298 15.002-1.6395 13.741-0.4979-0.1049-3.9252 12.926-6.1103 12.048-8.1096 10.804-9.8624 9.2317-11.316 7.3789-12.425 5.3018-13.157 3.0634-13.489 0.7325-13.411-1.6211-12.926-3.9253-12.048-6.1104-10.804-8.1093-9.2316-9.8626-7.3788-11.316-5.3017-12.425-3.0586-13.132-0.5467-15.018 2.3604-14.858 5.1793-14.125 7.8043-12.862 10.137-11.117 12.089-8.9548 13.588-6.4573 14.578-3.7178zm0.4184-10.152-16.985 0.9485-16.484 4.2038-15.365 7.3018-13.67 10.126-11.462 12.57-8.8249 14.544-5.8567 15.972-2.6689 16.801 0.6194 17.02 3.4703 14.903 5.9968 14.054 8.3462 12.799 10.442 11.155 12.22 9.1729 13.628 6.9111 14.621 4.44 15.17 1.8337 15.257-0.8284 14.882-3.4653 14.054-5.9968 12.799-8.3462 11.155-10.442 9.1727-12.22 6.9114-13.628 4.0672-13.393 0.7103 0.1557 2.0154-16.892-1.2775-16.963-4.5227-16.4-7.5983-15.22-10.389-13.471-12.79-11.216-14.712-8.541-16.082-5.5459zm2892-131.63v10.16h355.6v571.34h-622.06v10.16h632.22v-591.66zm-1133.7 0v76.865h-531.51v50.047h111.94l40.85 62.57v51.689l-40.972 68.111h-135.56v48.704h135.71l40.823 61.39v51.675l-40.984 68.703-135.55 3e-4v46.832h5.0801v3e-4h130.63l40.823 61.39v51.675l-40.985 68.703-191.99-2e-4v-538.48h-478.31v10.16h468.15v538.48l207.92-2e-4 45.375-76.062v-57.545l-45.537-68.48h-130.99v-26.512l131.16-2e-4 45.375-76.063v-57.545l-45.537-68.48h-130.99v-28.384h131.14l45.388-75.451v-57.532l-45.51-69.708h-107.28v-29.726h531.51v-76.865h908.94v-10.16zm259.96 310.69v20.242h193.98v548.89h-288.33v-482.52h-10.16v492.68h308.65v-569.13h187.8v55.486l-40.985 68.703-135.55-3e-4v46.832h5.0801v2e-4h130.63l40.823 61.391v61.965h170.18v-294.38h106.68v147.62h172.18v5.0798h-233.68v10.16h243.84v-25.4h-172.18v-147.62h-156.21v10.16h29.21v284.22h-149.86v-54.875l-45.537-68.48h-130.99v-26.512l131.15 2e-4 45.376-76.064v-58.285h35.56v-10.16zm-415.31 44.248-55.59 52.006v530.73h-161.91v-47.568l-50.574-60.314h-257.64v-81.425h-167.19v10.16h157.03v81.425h263.06l45.153 53.849v54.032h182.23v-536.48l49.441-46.253h97.504l26.877 15.518h82.076v312.6h10.16v-322.76h-89.514l-26.877-15.518zm835.97 1493.5v128h-143.51v-128zm0-10.434v0.2734h-153.67v138.16h-97.977v10.16h261.81v-148.59zm256.19 319.51v10.16h317.5v-10.16zm87.629 109.05v10.16h401.84v-10.16z"/>
      </clipPath>
     </g>
     <g transform="translate(161.19,23.128)">
      <g fill="none" stroke="#000" stroke-width="1.375">
       <path d="m2096.6 1898.1v120.65h-131.98v236.9h-296.01v-231.39h-80.756v140.23h10.16v-130.07h60.436v221.23h-133.35v-357.55zm-581.67-10.16v377.87h459.84v-236.9h131.98v-140.97zm2868.8 559.67v10.16h773.7v571.34h-1039.3v10.16h1049.5v-591.66zm-1132.9 0v76.865h-531.51v50.047h111.94l40.85 62.57v51.689l-40.972 68.111h-135.56v48.704h135.71l40.823 61.39v51.675l-40.984 68.703-135.55 3e-4v46.832h5.0801v3e-4h130.63l40.823 61.39v51.675l-40.985 68.703-191.99-2e-4v-691.21h-470.69v10.16h460.53v691.21l207.92-2e-4 45.375-76.062v-57.545l-45.537-68.48h-130.99v-26.512l131.16-2e-4 45.375-76.063v-57.545l-45.537-68.48h-130.99v-28.384h131.14l45.388-75.451v-57.532l-45.51-69.708h-107.28v-29.726h531.51v-76.865h909.66v-10.16zm259.96 310.69v20.242h193.98v548.89h-288.33v-507.52h-10.16v517.68h308.65v-569.13h187.8v55.486l-40.985 68.703-135.55-3e-4v46.832h5.0801v2e-4h130.63l40.823 61.391v61.965h170.18v-294.38h106.68v148.57h172.18v4.131h-233.68v10.16h243.84v-24.451h-172.18v-148.57h-156.21v10.16h29.21v284.22h-149.86v-54.875l-45.537-68.48h-130.99v-26.512l131.15 2e-4 45.376-76.064v-58.285h35.56v-10.16zm-415.31 44.248-55.59 52.006v530.73h-161.91v-47.568l-50.574-60.314h-257.64v-81.425h-167.19v10.16h157.03v81.425h263.06l45.153 53.849v54.032h182.23v-536.48l49.441-46.253h97.504l26.877 15.518h82.076v312.6h10.16v-322.76h-89.514l-26.877-15.518zm835.97 1493.5v128h-143.51v-128zm0-10.434v0.2734h-153.67v138.16h-92.897v10.16h256.73v-148.59zm257.97 319.51v10.16h315.71v-10.16zm85.841 109.05v10.16h396.94v-10.16z"/>
      </g>
     </g>
     <g transform="translate(161.19,23.128)">
      <g fill="#fff">
       <path d="m4189.7 2665.2v91.44h10.16v-91.44z"/>
      </g>
     </g>
     <g transform="translate(161.19,23.128)">
      <g fill="none" stroke="#000" stroke-width=".91667">
       <path d="m4189.7 2665.2v91.44h10.16v-91.44z"/>
      </g>
     </g>
     <g transform="translate(161.19,23.128)">
      <g fill="none" stroke="#000" stroke-width=".91667">
       <path d="m4189.7 2751.7c-45.011 0-81.5-36.489-81.5-81.5h81.5z"/>
      </g>
     </g>
     <g transform="translate(161.19,23.128)">
      <g fill="#fff">
       <path d="m4199.8 2665.2v91.44h-10.161l5e-4 -91.44z"/>
      </g>
     </g>
     <g transform="translate(161.19,23.128)">
      <g fill="none" stroke="#000" stroke-width=".91667">
       <path d="m4199.8 2665.2v91.44h-10.161l5e-4 -91.44z"/>
      </g>
     </g>
     <g transform="translate(161.19,23.128)">
      <g fill="#fff">
       <path d="m4373.6 2665.2v91.44h10.16v-91.44z"/>
      </g>
     </g>
     <g transform="translate(161.19,23.128)">
      <g fill="none" stroke="#000" stroke-width=".91667">
       <path d="m4373.6 2665.2v91.44h10.16v-91.44z"/>
      </g>
     </g>
     <g transform="translate(161.19,23.128)">
      <g fill="none" stroke="#000" stroke-width=".91667">
       <path d="m4383.7 2751.7c45.011 0 81.5-36.489 81.5-81.5h-81.5z"/>
      </g>
     </g>
     <g transform="translate(161.19,23.128)">
      <g fill="#fff">
       <path d="m4373.6 2756.6v-91.44h10.161l-5e-4 91.44z"/>
      </g>
     </g>
     <g transform="translate(161.19,23.128)">
      <g fill="none" stroke="#000" stroke-width=".91667">
       <path d="m4373.6 2756.6v-91.44h10.161l-5e-4 91.44z"/>
      </g>
     </g>
     <g transform="translate(161.19,23.128)">
      <g fill="none" stroke="#000" stroke-width=".91667">
       <path d="m4048.8 4612.5c0 39.698 32.181 71.879 71.878 71.879v-71.879z"/>
      </g>
     </g>
     <g transform="translate(161.19,23.128)">
      <g fill="none" stroke="#000" stroke-width=".91667">
       <path d="m4045.5 4602.4h80.645v10.16h-80.645z" fill="#fffefe" fill-opacity=".99608"/>
      </g>
     </g>
     <g transform="translate(161.19,23.128)">
      <g fill="#fff">
       <path d="m4571.8 4490.3v10.16h91.44v-10.16z"/>
      </g>
     </g>
     <g transform="translate(161.19,23.128)">
      <g fill="none" stroke="#000" stroke-width=".91667">
       <path d="m4571.8 4490.3v10.16h91.44v-10.16z"/>
      </g>
     </g>
     <g transform="translate(161.19,23.128)">
      <g fill="none" stroke="#000" stroke-width=".91667">
       <path d="m4576.8 4490.3c0-45.011 36.489-81.5 81.5-81.5v81.5z"/>
      </g>
     </g>
     <g transform="translate(161.19,23.128)">
      <g fill="#fff">
       <path d="m4663.3 4500.5h-91.44v-10.16h91.44z"/>
      </g>
     </g>
     <g transform="translate(161.19,23.128)">
      <g fill="none" stroke="#000" stroke-width=".91667">
       <path d="m4663.3 4500.5h-91.44v-10.16h91.44z"/>
      </g>
     </g>
     <g transform="translate(161.19,23.128)">
      <g fill="#fff">
       <path d="m4672.2 4594.8v91.44h10.16v-91.44z"/>
      </g>
     </g>
     <g transform="translate(161.19,23.128)">
      <g fill="none" stroke="#000" stroke-width=".91667">
       <path d="m4672.2 4594.8v91.44h10.16v-91.44z"/>
      </g>
     </g>
     <g transform="translate(161.19,23.128)">
      <g fill="none" stroke="#000" stroke-width=".91667">
       <path d="m4682.4 4599.8c45.011 0 81.5 36.489 81.5 81.5h-81.5z"/>
      </g>
     </g>
     <g transform="translate(161.19,23.128)">
      <g fill="#fff">
       <path d="m4672.2 4686.3v-91.44h10.16v91.44z"/>
      </g>
     </g>
     <g transform="translate(161.19,23.128)">
      <g fill="none" stroke="#000" stroke-width=".91667">
       <path d="m4672.2 4686.3v-91.44h10.16v91.44z"/>
      </g>
     </g>
    </g>
    <g transform="matrix(-.52123 .52123 .52123 .52123 2741.1 -420.42)" opacity="1">
     <g stroke="#000">
      <path d="m-690.66 2433.2c0.5431 7.8103 7.3189 13.707 15.129 13.164 7.8103-0.569 13.707-7.3448 13.138-15.155-0.5431-7.8103-7.3189-13.681-15.129-13.138s-13.707 7.3189-13.138 15.129z" fill="none" stroke-width=".51724px"/>
      <path d="m-685.38 2432.9c0.3362 4.8879 4.5775 8.5861 9.4913 8.224 4.8879-0.3362 8.5603-4.5775 8.224-9.4654-0.3362-4.9137-4.5775-8.5861-9.4913-8.2499-4.8879 0.3362-8.5602 4.6034-8.224 9.4913z" stroke-width=".3362px"/>
      <path d="m-688.72 2433.1c0.49137 6.7241 6.3103 11.793 13.06 11.328 6.7241-0.4655 11.793-6.3103 11.327-13.034-0.49137-6.75-6.3103-11.819-13.06-11.328-6.7241 0.4655-11.793 6.3103-11.327 13.034z" fill="none" stroke-width=".43965px"/>
     </g>
     <path d="m-702.76 2432.3c0.0259 10.629 6.4913 20.198 16.371 24.207 9.8534 4.0086 21.155 1.681 28.603-5.9223 7.4482-7.6034 9.5689-18.957 5.3534-28.732-4.1896-9.7757-13.888-16.06-24.543-15.879" fill="none" stroke="#d3d3d3" stroke-width=".25862px"/>
     <path d="m-674.26 2404.5 0.0517 2.9741-2.5086-1.4482z" fill="#d3d3d3" stroke="#d3d3d3" stroke-width=".25862px"/>
     <g fill="none" stroke="#000">
      <path d="m-712.75 2432.2c-0.0259 14.741 8.8965 28.008 22.551 33.569 13.629 5.5603 29.301 2.3017 39.594-8.224 10.293-10.552 13.19-26.276 7.293-39.775-5.8706-13.526-19.345-22.138-34.086-21.776" stroke-width="1.319px"/>
      <path d="m-715.41 2432.4c0.0776 15.776 9.6723 29.922 24.31 35.844 14.612 5.9223 31.37 2.431 42.387-8.8706 11.017-11.276 14.146-28.112 7.862-42.594-6.2586-14.483-20.638-23.741-36.413-23.431" stroke-width="1.4224px"/>
      <g stroke-width=".3362px">
       <path d="m-677.26 2392.7-0.15517 25.5"/>
       <path d="m-716.06 2432.3 25.293-0.026"/>
       <path d="m-689.99 2437-21.284 5.9223"/>
       <path d="m-688.41 2439.9-18.103 12.388"/>
       <path d="m-685.15 2443.5-13.345 17.483"/>
       <path d="m-680.78 2445.8-8.1206 20.25"/>
       <path d="m-676.49 2446.4-0.20689 22.448"/>
       <path d="m-671.76 2445.5 6.8792 21.103"/>
       <path d="m-667.38 2443 12.026 18.207"/>
       <path d="m-664.75 2440.2 17.664 12.983"/>
       <path d="m-662.83 2435.8 20.664 6.75"/>
       <path d="m-662.42 2430.9 22.008 0.931"/>
       <path d="m-663.17 2427.2 20.896-7.3189"/>
       <path d="m-665.65 2423.1 17.483-13.577"/>
       <path d="m-669.38 2420 13.267-17.741"/>
       <path d="m-672.95 2418.5 6.8016-20.741"/>
      </g>
     </g>
    </g>
    <g transform="translate(3190.5,-2198.3)" opacity=".99">
     <g fill="none">
      <g stroke="#000" stroke-width=".32327px">
       <path d="m1324.7 2102v-29.15"/>
       <path d="m1316.3 2102v-29.15"/>
       <path d="m1307.9 2102v-29.15"/>
       <path d="m1299.4 2102v-29.15"/>
       <path d="m1291 2102v-29.15"/>
       <path d="m1282.6 2102v-29.15"/>
       <path d="m1274.2 2102v-29.15"/>
       <path d="m1265.8 2102v-29.15"/>
       <path d="m1257.4 2102v-29.15"/>
       <path d="m1249 2102v-29.15"/>
       <path d="m1240.6 2102v-29.15"/>
       <path d="m1232.2 2102v-29.15"/>
      </g>
      <path d="m1324.7 2087.5h-100.86" marker-end="url(#Marker0-6-20-2-9-1-4-6)" stroke="#d3d3d3" stroke-opacity=".99608" stroke-width=".31034"/>
      <path d="m1223.8 2102v-29.15" stroke="#000" stroke-width=".32327px"/>
     </g>
    </g>
    <g transform="matrix(0,1,-1.0845,0,6727.1,-1655)" opacity=".99">
     <g fill="none">
      <g stroke="#000" stroke-width=".32327px">
       <path d="m1299.4 2102v-29.15"/>
       <path d="m1291 2102v-29.15"/>
       <path d="m1282.6 2102v-29.15"/>
       <path d="m1274.2 2102v-29.15"/>
       <path d="m1265.8 2102v-29.15"/>
       <path d="m1257.4 2102v-29.15"/>
       <path d="m1249 2102v-29.15"/>
       <path d="m1240.6 2102v-29.15"/>
       <path d="m1232.2 2102v-29.15"/>
      </g>
      <path d="m1299.3 2087.5h-75.242" marker-end="url(#Marker0-6-20-12-1-5-1-5-4)" stroke="#d3d3d3" stroke-opacity=".99608" stroke-width=".31034"/>
      <path d="m1223.8 2102v-29.15" stroke="#000" stroke-width=".32327px"/>
     </g>
    </g>
    <g transform="translate(3190.8,-2198.3)" fill="none" opacity=".99">
     <g stroke="#000" stroke-width=".32327px">
      <path d="m974.08 2657.5v-19.538"/>
      <path d="m981.51 2657.5v-19.538"/>
      <path d="m988.93 2657.5v-19.538"/>
      <path d="m996.36 2657.5v-19.538"/>
      <path d="m1003.8 2657.5v-19.538"/>
      <path d="m978.31 2681v-20.287"/>
      <path d="m985.74 2681v-20.287"/>
      <path d="m993.16 2681v-20.287"/>
      <path d="m1000.6 2681v-20.287"/>
      <path d="m1008 2681v-20.287"/>
     </g>
     <path d="m966.66 2647.5h56.984v23.198h-45.329" marker-end="url(#Marker0-6-20-66-4-0-6-1)" stroke="#d3d3d3" stroke-opacity=".99608" stroke-width=".31034"/>
    </g>
    <path d="m4542.8 125.86v19.143" fill="none" opacity=".99" stroke="#000" stroke-width=".32327px"/>
    <g transform="matrix(.81111 0 0 1.0024 2072 -2185.4)" opacity=".99" stroke="#000">
     <rect x="2811.4" y="1799.2" width="10.503" height="3.1653" fill="#f0f0ff" opacity=".99" stroke-width=".27651"/>
     <g fill="none" stroke-width=".28028px">
      <path d="m2813.7 1799.2v3.0851"/>
      <path d="m2819.6 1799.2v3.1456"/>
      <path d="m2819.5 1800.8-5.8031-0.015"/>
     </g>
    </g>
    <g fill="#f0f0ff" stroke="#000">
     <g transform="matrix(1.1383 0 0 .99358 1206.6 -2152.4)" opacity=".99">
      <polygon transform="matrix(0 .21876 -.3966 0 3052.5 1775.2)" points="45.28 640.89 45.28 544.03 30.28 544.03 30.28 640.89"/>
      <g transform="matrix(0 .21876 -.3966 0 3052.5 1775.2)">
       <polygon points="30.28 544.03 30.28 640.89 45.28 640.89 45.28 544.03" stroke-width=".94769"/>
      </g>
      <g transform="matrix(0 .21876 -.3966 0 3052.5 1775.2)">
       <line x1="37.782" x2="37.782" y1="633.39" y2="551.53"/>
       <line x1="45.282" x2="30.282" y1="633.39" y2="633.39" stroke-width=".94769"/>
       <line x1="45.282" x2="30.282" y1="551.53" y2="551.53" stroke-width=".94769"/>
      </g>
     </g>
     <g transform="matrix(0 -.87328 1 0 2660.7 2050.9)" opacity=".99">
      <polygon transform="matrix(.40583 0 0 .21882 2385.8 1604.4)" points="1142.2 782.26 988.26 782.26 988.26 797.26 1142.2 797.26"/>
      <g transform="matrix(.40583 0 0 .21882 2385.8 1604.4)" display="block">
       <polygon points="1142.2 797.26 1142.2 782.26 988.26 782.26 988.26 797.26" stroke-width=".9099"/>
      </g>
      <g transform="matrix(.40583 0 0 .21882 2385.8 1604.4)" display="block">
       <line x1="1134.7" x2="995.76" y1="789.76" y2="789.76"/>
       <line x1="1134.7" x2="1134.7" y1="782.26" y2="797.26"/>
       <line x1="995.76" x2="995.76" y1="782.26" y2="797.26"/>
      </g>
     </g>
     <g transform="matrix(1.1383 0 0 .99358 1206.6 -2211.8)" opacity=".99">
      <polygon transform="matrix(0 .21876 -.3966 0 3052.5 1775.2)" points="45.28 544.03 30.28 544.03 30.28 640.89 45.28 640.89"/>
      <g transform="matrix(0 .21876 -.3966 0 3052.5 1775.2)">
       <polygon points="30.28 640.89 45.28 640.89 45.28 544.03 30.28 544.03" stroke-width=".94769"/>
      </g>
      <g transform="matrix(0 .21876 -.3966 0 3052.5 1775.2)">
       <line x1="37.782" x2="37.782" y1="633.39" y2="551.53"/>
       <line x1="45.282" x2="30.282" y1="633.39" y2="633.39" stroke-width=".94769"/>
       <line x1="45.282" x2="30.282" y1="551.53" y2="551.53" stroke-width=".94769"/>
      </g>
     </g>
     <g transform="matrix(.40545 0 0 .31133 4527.5 27.307)" display="block" opacity=".99">
      <path d="m988.26 797.26h153.97v-15h-153.97z"/>
      <g display="block" stroke-width=".9099">
       <path d="m988.26 782.26v15h153.97v-15z"/>
       <path transform="translate(0,15)" d="m988.26 795.46h153.97v-13.198h-153.97z" fill="#fff"/>
      </g>
      <g display="block">
       <path d="m1134.7 789.76h-138.97"/>
       <path d="m1134.7 782.26v15"/>
       <path d="m995.76 782.26v15"/>
      </g>
     </g>
     <g transform="matrix(0 -.40545 .31133 0 4605.5 637.8)" display="block" opacity=".99">
      <polygon points="1142.2 797.26 1142.2 782.26 988.26 782.26 988.26 797.26"/>
      <g display="block">
       <polygon points="988.26 797.26 1142.2 797.26 1142.2 782.26 988.26 782.26" stroke-width=".9099"/>
      </g>
      <g display="block">
       <line x1="1134.7" x2="995.76" y1="789.76" y2="789.76"/>
       <line x1="1134.7" x2="1134.7" y1="782.26" y2="797.26"/>
       <line x1="995.76" x2="995.76" y1="782.26" y2="797.26"/>
      </g>
     </g>
     <g transform="matrix(0 .21557 -.34193 0 5109.2 98.636)" opacity=".99">
      <polygon points="30.28 544.03 30.28 640.89 45.28 640.89 45.28 544.03"/>
      <polygon points="45.28 640.89 45.28 544.03 30.28 544.03 30.28 640.89"/>
      <line x1="37.782" x2="37.782" y1="633.39" y2="551.53"/>
      <line x1="45.282" x2="30.282" y1="633.39" y2="633.39"/>
      <line x1="45.282" x2="30.282" y1="551.53" y2="551.53"/>
     </g>
     <g transform="matrix(0 .21557 -.34193 0 5073 98.636)" opacity=".99">
      <polygon points="30.28 640.89 45.28 640.89 45.28 544.03 30.28 544.03"/>
      <polygon points="45.28 544.03 30.28 544.03 30.28 640.89 45.28 640.89"/>
      <line x1="37.782" x2="37.782" y1="633.39" y2="551.53"/>
      <line x1="45.282" x2="30.282" y1="633.39" y2="633.39"/>
      <line x1="45.282" x2="30.282" y1="551.53" y2="551.53"/>
     </g>
     <g transform="matrix(0 .21557 -.33839 0 5204 110.34)" opacity=".99">
      <polygon points="45.28 544.03 30.28 544.03 30.28 640.89 45.28 640.89"/>
      <polygon points="30.28 640.89 45.28 640.89 45.28 544.03 30.28 544.03"/>
      <line x1="37.782" x2="37.782" y1="633.39" y2="551.53"/>
      <line x1="45.282" x2="30.282" y1="633.39" y2="633.39"/>
      <line x1="45.282" x2="30.282" y1="551.53" y2="551.53"/>
     </g>
     <g transform="matrix(0 .21557 -.33839 0 5168.2 110.34)" opacity=".99">
      <polygon points="30.28 544.03 30.28 640.89 45.28 640.89 45.28 544.03"/>
      <polygon points="45.28 640.89 45.28 544.03 30.28 544.03 30.28 640.89"/>
      <line x1="37.782" x2="37.782" y1="633.39" y2="551.53"/>
      <line x1="45.282" x2="30.282" y1="633.39" y2="633.39"/>
      <line x1="45.282" x2="30.282" y1="551.53" y2="551.53"/>
     </g>
     <g transform="matrix(0 .21557 -.33839 0 5239.8 110.34)" opacity=".99">
      <polygon points="30.28 544.03 30.28 640.89 45.28 640.89 45.28 544.03"/>
      <polygon points="45.28 640.89 45.28 544.03 30.28 544.03 30.28 640.89"/>
      <line x1="37.782" x2="37.782" y1="633.39" y2="551.53"/>
      <line x1="45.282" x2="30.282" y1="633.39" y2="633.39"/>
      <line x1="45.282" x2="30.282" y1="551.53" y2="551.53"/>
     </g>
     <g transform="matrix(.2934 0 0 .3966 5056.1 -202.92)" opacity=".99">
      <polygon points="45.28 640.89 45.28 544.03 30.28 544.03 30.28 640.89"/>
      <polygon points="30.28 544.03 30.28 640.89 45.28 640.89 45.28 544.03" stroke-width=".94769"/>
      <line x1="37.782" x2="37.782" y1="633.39" y2="551.53"/>
      <line x1="45.282" x2="30.282" y1="633.39" y2="633.39" stroke-width=".94769"/>
      <line x1="45.282" x2="30.282" y1="551.53" y2="551.53" stroke-width=".94769"/>
     </g>
     <g transform="matrix(.2934 0 0 .3966 5056.1 -324.14)" opacity=".99">
      <polygon points="45.28 544.03 30.28 544.03 30.28 640.89 45.28 640.89"/>
      <polygon points="30.28 640.89 45.28 640.89 45.28 544.03 30.28 544.03" stroke-width=".94769"/>
      <line x1="37.782" x2="37.782" y1="633.39" y2="551.53"/>
      <line x1="45.282" x2="30.282" y1="633.39" y2="633.39" stroke-width=".94769"/>
      <line x1="45.282" x2="30.282" y1="551.53" y2="551.53" stroke-width=".94769"/>
     </g>
     <g transform="matrix(.2934 0 0 .3966 5056.1 -408.52)" opacity=".99">
      <polygon points="30.28 544.03 30.28 640.89 45.28 640.89 45.28 544.03"/>
      <polygon points="45.28 640.89 45.28 544.03 30.28 544.03 30.28 640.89" stroke-width=".94769"/>
      <line x1="37.782" x2="37.782" y1="633.39" y2="551.53"/>
      <line x1="45.282" x2="30.282" y1="633.39" y2="633.39" stroke-width=".94769"/>
      <line x1="45.282" x2="30.282" y1="551.53" y2="551.53" stroke-width=".94769"/>
     </g>
    </g>
    <path d="m4951.4 11.63v105.18h104.3v-7.1429h3.2844v-6.7743h5.8348v-40.293h-18.856v22.715h-64.862v-73.689z" fill="none" opacity=".99" stroke="#010101" stroke-opacity=".98824" stroke-width=".31034"/>
    <g transform="matrix(0 .83332 -.83332 0 5988.3 219.46)" opacity="1" stroke="#000">
     <rect transform="rotate(90)" x="1110.5" y="153.65" width="18.066" height="32.34" rx="2.0395" ry="2.0395" fill="#fff" opacity="1" stroke-opacity=".99497" stroke-width=".32327"/>
     <g transform="rotate(90,169.81,774.34)" fill="#fff" opacity="1">
      <rect x="508.46" y="1114.9" width="13.601" height="13.601" rx="1.1985" ry="1.1985" opacity="1" stroke-opacity=".99497" stroke-width=".32328"/>
      <polygon transform="matrix(0 -.23863 .37638 0 507.1 1126.9)" points="20 0 26 0 26 14 20 14" opacity="1"/>
      <g transform="translate(32.725,-2.7602)">
       <circle cx="481.95" cy="1124.1" r=".99082" opacity="1" stroke-width=".24246"/>
       <circle cx="481.95" cy="1124.1" r=".56618" opacity="1" stroke-width=".16164"/>
      </g>
     </g>
     <g fill="none" stroke-width=".17706">
      <path d="m-169.78 1119c6.6508 1.0188 7.792-2.5761 14.878 0" opacity="1"/>
      <path d="m-169.78 1120.1c6.6508 1.0188 7.792-2.5763 14.878 0" opacity="1"/>
      <path d="m-169.78 1121.3c6.6508 1.0187 7.792-2.5762 14.878 0" opacity="1"/>
      <path d="m-169.78 1122.5c6.6508 1.0188 7.792-2.5762 14.878 0" opacity="1"/>
      <path d="m-169.78 1123.7c6.6508 1.0188 7.792-2.5761 14.878 0" opacity="1"/>
      <path d="m-169.78 1124.9c6.6508 1.0187 7.792-2.5762 14.878 0" opacity="1"/>
      <path d="m-169.78 1126.1c6.6508 1.0187 7.792-2.5762 14.878 0.012v-11.97c-7.0862-2.5762-8.2274 1.0187-14.878 0z" opacity="1"/>
      <path d="m-169.78 1117.9c6.6508 1.0188 7.792-2.5762 14.878 0" opacity="1"/>
      <path d="m-169.78 1116.6c6.6508 1.0188 7.792-2.5761 14.878 0" opacity="1"/>
      <path d="m-169.78 1115.2c6.6508 1.0188 7.792-2.5761 14.878 0" opacity="1"/>
     </g>
    </g>
    <path d="m5043.7-212.21v147.15h-69.034v32.46h71.715v53.342h18.371v-66.11h-9.7141v-8.3616h9.7141v-156.01h-9.7141v-2.4637z" fill="none" opacity=".99" stroke="#010101" stroke-opacity=".98824" stroke-width=".31034"/>
    <g stroke="#000">
     <g transform="matrix(0 .83332 -.83332 0 5988.3 54.878)" opacity="1">
      <rect transform="rotate(90)" x="1110.5" y="153.65" width="18.066" height="32.34" rx="2.0395" ry="2.0395" fill="#fff" opacity="1" stroke-opacity=".99497" stroke-width=".32327"/>
      <g transform="rotate(90,169.81,774.34)" fill="#fff" opacity="1">
       <rect x="508.46" y="1114.9" width="13.601" height="13.601" rx="1.1985" ry="1.1985" opacity="1" stroke-opacity=".99497" stroke-width=".32328"/>
       <polygon transform="matrix(0 -.23863 .37638 0 507.1 1126.9)" points="26 0 26 14 20 14 20 0" opacity="1"/>
       <g transform="translate(32.725,-2.7602)">
        <circle cx="481.95" cy="1124.1" r=".99082" opacity="1" stroke-width=".24246"/>
        <circle cx="481.95" cy="1124.1" r=".56618" opacity="1" stroke-width=".16164"/>
       </g>
      </g>
      <g fill="none" stroke-width=".17706">
       <path d="m-169.78 1119c6.6508 1.0188 7.792-2.5761 14.878 0" opacity="1"/>
       <path d="m-169.78 1120.1c6.6508 1.0188 7.792-2.5763 14.878 0" opacity="1"/>
       <path d="m-169.78 1121.3c6.6508 1.0187 7.792-2.5762 14.878 0" opacity="1"/>
       <path d="m-169.78 1122.5c6.6508 1.0188 7.792-2.5762 14.878 0" opacity="1"/>
       <path d="m-169.78 1123.7c6.6508 1.0188 7.792-2.5761 14.878 0" opacity="1"/>
       <path d="m-169.78 1124.9c6.6508 1.0187 7.792-2.5762 14.878 0" opacity="1"/>
       <path d="m-169.78 1126.1c6.6508 1.0187 7.792-2.5762 14.878 0.012v-11.97c-7.0862-2.5762-8.2274 1.0187-14.878 0z" opacity="1"/>
       <path d="m-169.78 1117.9c6.6508 1.0188 7.792-2.5762 14.878 0" opacity="1"/>
       <path d="m-169.78 1116.6c6.6508 1.0188 7.792-2.5761 14.878 0" opacity="1"/>
       <path d="m-169.78 1115.2c6.6508 1.0188 7.792-2.5761 14.878 0" opacity="1"/>
      </g>
     </g>
     <g transform="matrix(.83332 0 0 .83332 5171.4 -975.31)" opacity="1">
      <rect transform="rotate(90)" x="1110.5" y="153.65" width="18.066" height="32.34" rx="2.0395" ry="2.0395" fill="#fff" opacity="1" stroke-opacity=".99497" stroke-width=".32327"/>
      <g transform="rotate(90,169.81,774.34)" fill="#fff" opacity="1">
       <rect x="508.46" y="1114.9" width="13.601" height="13.601" rx="1.1985" ry="1.1985" opacity="1" stroke-opacity=".99497" stroke-width=".32328"/>
       <polygon transform="matrix(0 -.23863 .37638 0 507.1 1126.9)" points="20 14 20 0 26 0 26 14" opacity="1"/>
       <g transform="translate(32.725,-2.7602)">
        <circle cx="481.95" cy="1124.1" r=".99082" opacity="1" stroke-width=".24246"/>
        <circle cx="481.95" cy="1124.1" r=".56618" opacity="1" stroke-width=".16164"/>
       </g>
      </g>
      <g fill="none" stroke-width=".17706">
       <path d="m-169.78 1119c6.6508 1.0188 7.792-2.5761 14.878 0" opacity="1"/>
       <path d="m-169.78 1120.1c6.6508 1.0188 7.792-2.5763 14.878 0" opacity="1"/>
       <path d="m-169.78 1121.3c6.6508 1.0187 7.792-2.5762 14.878 0" opacity="1"/>
       <path d="m-169.78 1122.5c6.6508 1.0188 7.792-2.5762 14.878 0" opacity="1"/>
       <path d="m-169.78 1123.7c6.6508 1.0188 7.792-2.5761 14.878 0" opacity="1"/>
       <path d="m-169.78 1124.9c6.6508 1.0187 7.792-2.5762 14.878 0" opacity="1"/>
       <path d="m-169.78 1126.1c6.6508 1.0187 7.792-2.5762 14.878 0.012v-11.97c-7.0862-2.5762-8.2274 1.0187-14.878 0z" opacity="1"/>
       <path d="m-169.78 1117.9c6.6508 1.0188 7.792-2.5762 14.878 0" opacity="1"/>
       <path d="m-169.78 1116.6c6.6508 1.0188 7.792-2.5761 14.878 0" opacity="1"/>
       <path d="m-169.78 1115.2c6.6508 1.0188 7.792-2.5761 14.878 0" opacity="1"/>
      </g>
     </g>
     <g transform="matrix(0 .21823 -.41898 0 5264.4 -222.1)" fill="#f0f0ff" opacity=".99">
      <polygon points="30.28 640.89 45.28 640.89 45.28 544.03 30.28 544.03"/>
      <polygon points="45.28 544.03 30.28 544.03 30.28 640.89 45.28 640.89" stroke-width=".94769"/>
      <line x1="37.782" x2="37.782" y1="633.39" y2="551.53"/>
      <line x1="45.282" x2="30.282" y1="633.39" y2="633.39" stroke-width=".94769"/>
      <line x1="45.282" x2="30.282" y1="551.53" y2="551.53" stroke-width=".94769"/>
     </g>
    </g>
    <g fill="none">
     <g stroke="#000">
      <g stroke-width=".34321px">
       <path d="m4885.4-295.2h-31.55" opacity=".99"/>
       <path d="m4885.4-285.45h-31.55" opacity=".99"/>
       <path d="m4885.4-275.71h-31.55" opacity=".99"/>
       <path d="m4885.4-265.96h-31.55" opacity=".99"/>
       <path d="m4885.4-256.21h-31.55" opacity=".99"/>
       <path d="m4885.4-246.46h-31.55" opacity=".99"/>
      </g>
      <g stroke-width=".32327px">
       <path d="m4885.4-245.52-31.55 30.031" opacity=".99"/>
       <path d="m4885.4-245.52v30.031" opacity=".99"/>
       <path d="m4895.5-245.52v30.031" opacity=".99"/>
       <path d="m4905.7-245.52v30.031" opacity=".99"/>
       <path d="m4915.9-245.52v30.031" opacity=".99"/>
       <path d="m4926-245.52v30.031" opacity=".99"/>
      </g>
     </g>
     <path d="m4929.8-229.64h-59.582v-65.564" marker-end="url(#Marker0-6-20-15-0-0-6)" opacity=".99" stroke="#cfcfcf" stroke-opacity=".94869" stroke-width=".32327px"/>
    </g>
    <g transform="matrix(.2934 0 0 .3966 5056.1 -491.28)" fill="#f0f0ff" opacity=".99" stroke="#000">
     <polygon points="30.28 544.03 30.28 640.89 45.28 640.89 45.28 544.03"/>
     <polygon points="45.28 640.89 45.28 544.03 30.28 544.03 30.28 640.89" stroke-width=".94769"/>
     <line x1="37.782" x2="37.782" y1="633.39" y2="551.53"/>
     <line x1="45.282" x2="30.282" y1="633.39" y2="633.39" stroke-width=".94769"/>
     <line x1="45.282" x2="30.282" y1="551.53" y2="551.53" stroke-width=".94769"/>
    </g>
    <g transform="matrix(.2934 0 0 .3966 5056.1 -575.65)" fill="#f0f0ff" opacity=".99" stroke="#000">
     <polygon points="30.28 640.89 45.28 640.89 45.28 544.03 30.28 544.03"/>
     <polygon points="45.28 544.03 30.28 544.03 30.28 640.89 45.28 640.89" stroke-width=".94769"/>
     <line x1="37.782" x2="37.782" y1="633.39" y2="551.53"/>
     <line x1="45.282" x2="30.282" y1="633.39" y2="633.39" stroke-width=".94769"/>
     <line x1="45.282" x2="30.282" y1="551.53" y2="551.53" stroke-width=".94769"/>
    </g>
    <g fill="none">
     <g stroke="#000">
      <g stroke-width=".31918px">
       <path d="m4991.8-479.14h31.969" opacity=".99"/>
       <path d="m4991.8-468.74h31.969" opacity=".99"/>
       <path d="m4991.8-458.34h31.969" opacity=".99"/>
       <path d="m4991.8-437.55h31.969" opacity=".99"/>
       <path d="m4991.8-427.15h31.969" opacity=".99"/>
       <path d="m4991.8-447.94h31.969" opacity=".99"/>
       <path d="m4991.8-416.75h31.969" opacity=".99"/>
       <path d="m4991.8-406.35h31.969" opacity=".99"/>
      </g>
      <g stroke-width=".34659px">
       <path d="m5027.1-503.66h37.697" opacity=".99"/>
       <path d="m5027.1-493.26h37.697" opacity=".99"/>
       <path d="m5027.1-482.86h37.697" opacity=".99"/>
       <path d="m5027.1-441.26h37.697" opacity=".99"/>
       <path d="m5027.1-430.86h37.697" opacity=".99"/>
       <path d="m5027.1-451.66h37.697" opacity=".99"/>
       <path d="m5027.1-420.46h37.697" opacity=".99"/>
       <path d="m5027.1-410.06h37.697" opacity=".99"/>
       <path d="m5027.1-472.46h37.697" opacity=".99"/>
       <path d="m5027.1-462.06h37.697" opacity=".99"/>
      </g>
     </g>
     <path d="m5046.6-503.66v110.93h-38.301v-86.415" marker-end="url(#Marker0-6-20-15-0-0-6)" opacity=".99" stroke="#d3d3d3" stroke-opacity=".99608" stroke-width=".31034"/>
    </g>
    <g transform="matrix(.2934 0 0 .34052 5056.1 -678.2)" fill="#f0f0ff" opacity=".99" stroke="#000">
     <polygon points="45.28 544.03 30.28 544.03 30.28 640.89 45.28 640.89"/>
     <polygon points="30.28 640.89 45.28 640.89 45.28 544.03 30.28 544.03" stroke-width=".94769"/>
     <line x1="37.782" x2="37.782" y1="633.39" y2="551.53"/>
     <line x1="45.282" x2="30.282" y1="633.39" y2="633.39" stroke-width=".94769"/>
     <line x1="45.282" x2="30.282" y1="551.53" y2="551.53" stroke-width=".94769"/>
    </g>
    <g transform="matrix(1.2049,0,0,1,5739.2,-1872.6)" opacity="1" stroke="#000">
     <g transform="translate(64.167 -.55228)" fill="#fff">
      <g transform="translate(-.32818 -9.0231)" fill="#fff">
       <rect x="-713.85" y="1501.3" width="24.222" height="7.851" opacity="1" stroke="none"/>
       <rect x="-725.99" y="1506.8" width="24.246" height="1.7014" opacity="1" stroke="#000" stroke-width=".36516"/>
      </g>
     </g>
     <path d="m-625.76 1494.8v2.0859" fill="none" stroke-width=".046805"/>
    </g>
    <g transform="matrix(1.1319,0,0,1,5669.8,-1709.5)" opacity="1" stroke="#000">
     <g transform="translate(64.167 -.55228)" fill="#fff">
      <g transform="translate(-.32818 -9.0231)" fill="#fff">
       <rect x="-713.85" y="1501.3" width="24.222" height="7.851" opacity="1" stroke="none"/>
       <rect x="-725.99" y="1506.8" width="24.246" height="1.7014" opacity="1" stroke="#000" stroke-width=".36516"/>
      </g>
     </g>
     <path d="m-625.76 1494.8v2.0859" fill="none" stroke-width=".046805"/>
    </g>
    <g transform="matrix(.51713 0 0 .31133 4420 -943.39)" display="block" fill="#f0f0ff" opacity=".99" stroke="#000">
     <path d="m988.26 797.26h153.97v-15h-153.97z"/>
     <g display="block">
      <path d="m988.26 782.26v15h153.97v-15z" stroke-width=".9099"/>
     </g>
     <g display="block">
      <path d="m1134.7 789.76h-138.97"/>
      <path d="m1134.7 782.26v15"/>
      <path d="m995.76 782.26v15"/>
     </g>
    </g>
    <text x="4366.0498" y="-414.0101" font-family="Verdana" font-size="6.8965px" opacity=".99" stroke-width=".32327" text-align="center" text-anchor="middle" style="line-height:1.25" xml:space="preserve"><tspan x="4366.0498" y="-414.0101" font-family="Verdana" font-size="6.8965px" stroke-width=".32327">OFFICE</tspan></text>
    <text x="4366.1294" y="-405.1026" font-family="Verdana" font-size="6.8965px" opacity=".99" stroke-width=".32327" text-align="center" text-anchor="middle" style="line-height:1.25" xml:space="preserve"><tspan x="4366.1294" y="-405.1026" font-family="Verdana" font-size="6.8965px" stroke-width=".32327">4.39 m x 1.93 m</tspan></text>
    <polygon transform="matrix(-.35604 0 0 -.35604 4436.3 -411.03)" points="0 0 5 -5 5 5" display="block" opacity=".99"/>
    <polygon transform="matrix(.35604 0 0 -.35604 4294.4 -411.03)" points="5 -5 5 5 0 0" display="block" opacity=".99"/>
    <polygon transform="matrix(0 .35604 .35604 0 4366.2 -438.12)" points="5 -5 5 5 0 0" display="block" opacity=".99"/>
    <polygon transform="matrix(0 -.35604 .35604 0 4320 -375.81)" points="0 0 5 -5 5 5" display="block" opacity=".99"/>
    <text x="4386.1919" y="-592.9184" font-family="Verdana" font-size="6.8965px" opacity=".99" stroke-width=".32327" text-align="center" text-anchor="middle" style="line-height:1.25" xml:space="preserve"><tspan x="4386.1919" y="-592.9184" font-family="Verdana" font-size="6.8965px" stroke-width=".32327">MECHANICAL ROOM</tspan></text>
    <text x="4386.2725" y="-584.01086" font-family="Verdana" font-size="6.8965px" opacity=".99" stroke-width=".32327" text-align="center" text-anchor="middle" style="line-height:1.25" xml:space="preserve"><tspan x="4386.2725" y="-584.01086" font-family="Verdana" font-size="6.8965px" stroke-width=".32327">5.71 m x 7.95 m</tspan></text>
    <polygon transform="matrix(-.35604 0 0 -.35604 4479.1 -503.93)" points="5 5 0 0 5 -5" display="block" opacity=".99"/>
    <polygon transform="matrix(.35604 0 0 -.35604 4294.4 -503.93)" points="0 0 5 -5 5 5" display="block" opacity=".99"/>
    <polygon transform="matrix(0 .35604 .35604 0 4383.6 -691.23)" points="5 5 0 0 5 -5" display="block" opacity=".99"/>
    <polygon transform="matrix(0 -.35604 .35604 0 4443.9 -434.37)" points="0 0 5 -5 5 5" display="block" opacity=".99"/>
    <text x="4441.939" y="-314.56418" font-family="Verdana" font-size="6.8965px" opacity=".99" stroke-width=".32327" text-align="center" text-anchor="middle" style="line-height:1.25" xml:space="preserve"><tspan x="4441.939" y="-314.56418" font-family="Verdana" font-size="6.8965px" stroke-width=".32327">MECHANICAL ROOM</tspan></text>
    <text x="4442.019" y="-305.65668" font-family="Verdana" font-size="6.8965px" opacity=".99" stroke-width=".32327" text-align="center" text-anchor="middle" style="line-height:1.25" xml:space="preserve"><tspan x="4442.019" y="-305.65668" font-family="Verdana" font-size="6.8965px" stroke-width=".32327">2.85 m x 3.25 m</tspan></text>
    <polygon transform="matrix(-.35604 0 0 -.35604 4486.7 -311.59)" points="0 0 5 -5 5 5" display="block" opacity=".99"/>
    <polygon transform="matrix(.35604 0 0 -.35604 4394.8 -300.7)" points="5 -5 5 5 0 0" display="block" opacity=".99"/>
    <polygon transform="matrix(0 .35604 .35604 0 4442.1 -337.65)" points="5 -5 5 5 0 0" display="block" opacity=".99"/>
    <polygon transform="matrix(0 -.35604 .35604 0 4442.1 -232.13)" points="0 0 5 -5 5 5" display="block" opacity=".99"/>
    <text x="4487.9365" y="-178.79121" font-family="Verdana" font-size="6.8965px" opacity=".99" stroke-width=".32327" text-align="center" text-anchor="middle" style="line-height:1.25" xml:space="preserve"><tspan x="4487.9365" y="-178.79121" font-family="Verdana" font-size="6.8965px" stroke-width=".32327">MECHANICAL ROOM</tspan></text>
    <text x="4488.0171" y="-169.88374" font-family="Verdana" font-size="6.8965px" opacity=".99" stroke-width=".32327" text-align="center" text-anchor="middle" style="line-height:1.25" xml:space="preserve"><tspan x="4488.0171" y="-169.88374" font-family="Verdana" font-size="6.8965px" stroke-width=".32327">5.49 m x 2.88 m</tspan></text>
    <polygon transform="matrix(-.35604 0 0 -.35604 4575.5 -175.81)" points="0 0 5 -5 5 5" display="block" opacity=".99"/>
    <polygon transform="matrix(.35604 0 0 -.35604 4398.1 -175.81)" points="5 5 0 0 5 -5" display="block" opacity=".99"/>
    <polygon transform="matrix(0 .35604 .35604 0 4488.1 -221.92)" points="5 -5 5 5 0 0" display="block" opacity=".99"/>
    <polygon transform="matrix(0 -.35604 .35604 0 4488.1 -128.71)" points="0 0 5 -5 5 5" display="block" opacity=".99"/>
    <text x="4344.8394" y="-224.73775" font-family="Verdana" font-size="6.8965px" opacity=".99" stroke-width=".32327" text-align="center" text-anchor="middle" style="line-height:1.25" xml:space="preserve"><tspan x="4344.8394" y="-224.73775" font-family="Verdana" font-size="6.8965px" stroke-width=".32327">MECHANICAL ROOM</tspan></text>
    <text x="4344.9194" y="-215.83028" font-family="Verdana" font-size="6.8965px" opacity=".99" stroke-width=".32327" text-align="center" text-anchor="middle" style="line-height:1.25" xml:space="preserve"><tspan x="4344.9194" y="-215.83028" font-family="Verdana" font-size="6.8965px" stroke-width=".32327">3 m x 9.09 m</tspan></text>
    <polygon transform="matrix(-.35604 0 0 -.35604 4391.5 -175.85)" points="0 0 5 -5 5 5" display="block" opacity=".99"/>
    <polygon transform="matrix(.35604 0 0 -.35604 4294.4 -221.76)" points="5 -5 5 5 0 0" display="block" opacity=".99"/>
    <polygon transform="matrix(0 .35604 .35604 0 4374.4 -378.67)" points="5 -5 5 5 0 0" display="block" opacity=".99"/>
    <polygon transform="matrix(0 -.35604 .35604 0 4363.5 -78.457)" points="0 0 5 -5 5 5" display="block" opacity=".99"/>
    <text x="4363.3555" y="-45.696766" font-family="Verdana" font-size="6.8965px" opacity=".99" stroke-width=".32327" text-align="center" text-anchor="middle" style="line-height:1.25" xml:space="preserve"><tspan x="4363.3555" y="-45.696766" font-family="Verdana" font-size="6.8965px" stroke-width=".32327">MECHANICAL ROOM</tspan></text>
    <text x="4363.4355" y="-36.789265" font-family="Verdana" font-size="6.8965px" opacity=".99" stroke-width=".32327" text-align="center" text-anchor="middle" style="line-height:1.25" xml:space="preserve"><tspan x="4363.4355" y="-36.789265" font-family="Verdana" font-size="6.8965px" stroke-width=".32327">3.19 m x 2.22 m</tspan></text>
    <polygon transform="matrix(-.35604 0 0 -.35604 4418.5 -10.658)" points="5 5 0 0 5 -5" display="block" opacity=".99"/>
    <polygon transform="matrix(.35604 0 0 -.35604 4319.2 -42.719)" points="5 -5 5 5 0 0" display="block" opacity=".99"/>
    <polygon transform="matrix(0 .35604 .35604 0 4363.5 -78.457)" points="5 -5 5 5 0 0" display="block" opacity=".99"/>
    <polygon transform="matrix(0 -.35604 .35604 0 4363.5 -6.9812)" points="0 0 5 -5 5 5" display="block" opacity=".99"/>
    <text x="4452.9004" y="15.069043" font-family="Verdana" font-size="6.8965px" opacity=".99" stroke-width=".32327" text-align="center" text-anchor="middle" style="line-height:1.25" xml:space="preserve"><tspan x="4452.9004" y="15.069043" font-family="Verdana" font-size="6.8965px" stroke-width=".32327">MECHANICAL ROOM</tspan></text>
    <text x="4452.981" y="23.976606" font-family="Verdana" font-size="6.8965px" opacity=".99" stroke-width=".32327" text-align="center" text-anchor="middle" style="line-height:1.25" xml:space="preserve"><tspan x="4452.981" y="23.976606" font-family="Verdana" font-size="6.8965px" stroke-width=".32327">8.51 m x 4.70 m</tspan></text>
    <polygon transform="matrix(-.35604 0 0 -.35604 4594.2 19.825)" points="5 -5 5 5 0 0" display="block" opacity=".99"/>
    <polygon transform="matrix(.35604 0 0 -.35604 4319.2 18.047)" points="5 -5 5 5 0 0" display="block" opacity=".99"/>
    <polygon transform="matrix(0 .35604 .35604 0 4363.5 -6.9812)" points="0 0 5 -5 5 5" display="block" opacity=".99"/>
    <polygon transform="matrix(0 -.35604 .35604 0 4551 145)" points="0 0 5 -5 5 5" display="block" opacity=".99"/>
    <text x="4426.0684" y="197.31847" font-family="Verdana" font-size="6.8965px" opacity=".99" stroke-width=".32327" text-align="center" text-anchor="middle" style="line-height:1.25" xml:space="preserve"><tspan x="4426.0684" y="197.31847" font-family="Verdana" font-size="6.8965px" stroke-width=".32327">MECHANICAL ROOM</tspan></text>
    <text x="4426.1489" y="206.22575" font-family="Verdana" font-size="6.8965px" opacity=".99" stroke-width=".32327" text-align="center" text-anchor="middle" style="line-height:1.25" xml:space="preserve"><tspan x="4426.1489" y="206.22575" font-family="Verdana" font-size="6.8965px" stroke-width=".32327">6.91 m x 4.60 m</tspan></text>
    <polygon transform="matrix(-.35604 0 0 -.35604 4542.8 134.99)" points="5 5 0 0 5 -5" display="block" opacity=".99"/>
    <polygon transform="matrix(.35604 0 0 -.35604 4319.3 200.3)" points="5 5 0 0 5 -5" display="block" opacity=".99"/>
    <polygon transform="matrix(0 .35604 .35604 0 4426.3 125.86)" points="0 0 5 -5 5 5" display="block" opacity=".99"/>
    <polygon transform="matrix(0 -.35604 .35604 0 4426.2 274.74)" points="5 -5 5 5 0 0" display="block" opacity=".99"/>
    <text x="4961.5752" y="188.0955" font-family="Verdana" font-size="6.8965px" opacity=".99" stroke-width=".32327" text-align="center" text-anchor="middle" style="line-height:1.25" xml:space="preserve"><tspan x="4961.5752" y="188.0955" font-family="Verdana" font-size="6.8965px" stroke-width=".32327">OFFICE</tspan></text>
    <text x="4961.6553" y="197.00291" font-family="Verdana" font-size="6.8965px" opacity=".99" stroke-width=".32327" text-align="center" text-anchor="middle" style="line-height:1.25" xml:space="preserve"><tspan x="4961.6553" y="197.00291" font-family="Verdana" font-size="6.8965px" stroke-width=".32327">6.53 m x 5.03 m</tspan></text>
    <polygon transform="matrix(-.35604 0 0 -.35604 5064.8 191.07)" points="5 -5 5 5 0 0" display="block" opacity=".99"/>
    <polygon transform="matrix(.35604 0 0 -.35604 4853.8 191.07)" points="5 5 0 0 5 -5" display="block" opacity=".99"/>
    <polygon transform="matrix(0 .35604 .35604 0 4895.6 108.68)" points="0 0 5 -5 5 5" display="block" opacity=".99"/>
    <polygon transform="matrix(0 -.35604 .35604 0 4961.8 270.79)" points="5 -5 5 5 0 0" display="block" opacity=".99"/>
    <text x="4958.8135" y="-79.334183" font-family="Verdana" font-size="6.8965px" opacity=".99" stroke-width=".32327" text-align="center" text-anchor="middle" style="line-height:1.25" xml:space="preserve"><tspan x="4958.8135" y="-79.334183" font-family="Verdana" font-size="6.8965px" stroke-width=".32327">OFFICE</tspan></text>
    <text x="4958.8936" y="-70.426712" font-family="Verdana" font-size="6.8965px" opacity=".99" stroke-width=".32327" text-align="center" text-anchor="middle" style="line-height:1.25" xml:space="preserve"><tspan x="4958.8936" y="-70.426712" font-family="Verdana" font-size="6.8965px" stroke-width=".32327">6.53 m x 10.19 m</tspan></text>
    <polygon transform="matrix(-.35604 0 0 -.35604 5064.8 -68.127)" points="0 0 5 -5 5 5" display="block" opacity=".99"/>
    <polygon transform="matrix(.35604 0 0 -.35604 4853.8 -76.356)" points="5 -5 5 5 0 0" display="block" opacity=".99"/>
    <polygon transform="matrix(0 .35604 .35604 0 4972.3 -212.21)" points="5 -5 5 5 0 0" display="block" opacity=".99"/>
    <polygon transform="matrix(0 -.35604 .35604 0 4997.4 116.81)" points="0 0 5 -5 5 5" display="block" opacity=".99"/>
    <text x="5019.4585" y="-285.38544" font-family="Verdana" font-size="6.8965px" opacity=".99" stroke-width=".32327" text-align="center" text-anchor="middle" style="line-height:1.25" xml:space="preserve"><tspan x="5019.4585" y="-285.38544" font-family="Verdana" font-size="6.8965px" stroke-width=".32327">PANTRY</tspan></text>
    <text x="5019.5381" y="-276.47797" font-family="Verdana" font-size="6.8965px" opacity=".99" stroke-width=".32327" text-align="center" text-anchor="middle" style="line-height:1.25" xml:space="preserve"><tspan x="5019.5381" y="-276.47797" font-family="Verdana" font-size="6.8965px" stroke-width=".32327">3.02 m x 4.95 m</tspan></text>
    <polygon transform="matrix(-.35604 0 0 -.35604 5064.8 -286.06)" points="0 0 5 -5 5 5" display="block" opacity=".99"/>
    <polygon transform="matrix(.35604 0 0 -.35604 4967.1 -265.03)" points="5 -5 5 5 0 0" display="block" opacity=".99"/>
    <polygon transform="matrix(0 .35604 .35604 0 5024.4 -375.31)" points="5 -5 5 5 0 0" display="block" opacity=".99"/>
    <polygon transform="matrix(0 -.35604 .35604 0 5019.6 -215.49)" points="0 0 5 -5 5 5" display="block" opacity=".99"/>
    <text x="4922.1821" y="-339.45627" font-family="Verdana" font-size="6.8965px" opacity=".99" stroke-width=".32327" text-align="center" text-anchor="middle" style="line-height:1.25" xml:space="preserve"><tspan x="4922.1821" y="-339.45627" font-family="Verdana" font-size="6.8965px" stroke-width=".32327">HALLWAY</tspan></text>
    <text x="4922.2622" y="-330.5488" font-family="Verdana" font-size="6.8965px" opacity=".99" stroke-width=".32327" text-align="center" text-anchor="middle" style="line-height:1.25" xml:space="preserve"><tspan x="4922.2622" y="-330.5488" font-family="Verdana" font-size="6.8965px" stroke-width=".32327">4.17 m x 4.95 m</tspan></text>
    <polygon transform="matrix(-.35604 0 0 -.35604 4987.7 -336.48)" points="5 5 0 0 5 -5" display="block" opacity=".99"/>
    <polygon transform="matrix(.35604 0 0 -.35604 4853.8 -336.48)" points="0 0 5 -5 5 5" display="block" opacity=".99"/>
    <polygon transform="matrix(0 .35604 .35604 0 4922.4 -375.31)" points="0 0 5 -5 5 5" display="block" opacity=".99"/>
    <polygon transform="matrix(0 -.35604 .35604 0 4959.7 -215.49)" points="5 -5 5 5 0 0" display="block" opacity=".99"/>
    <text x="4902.4624" y="-459.71457" font-family="Verdana" font-size="6.8965px" opacity=".99" stroke-width=".32327" text-align="center" text-anchor="middle" style="line-height:1.25" xml:space="preserve"><tspan x="4902.4624" y="-459.71457" font-family="Verdana" font-size="6.8965px" stroke-width=".32327">CONFERENCE ROOM</tspan></text>
    <text x="4902.5425" y="-450.80707" font-family="Verdana" font-size="6.8965px" opacity=".99" stroke-width=".32327" text-align="center" text-anchor="middle" style="line-height:1.25" xml:space="preserve"><tspan x="4902.5425" y="-450.80707" font-family="Verdana" font-size="6.8965px" stroke-width=".32327">3.02 m x 4.83 m</tspan></text>
    <polygon transform="matrix(-.35604 0 0 -.35604 4951.4 -456.74)" points="5 -5 5 5 0 0" display="block" opacity=".99"/>
    <polygon transform="matrix(.35604 0 0 -.35604 4853.8 -456.74)" points="5 5 0 0 5 -5" display="block" opacity=".99"/>
    <polygon transform="matrix(0 .35604 .35604 0 4902.6 -534.67)" points="5 5 0 0 5 -5" display="block" opacity=".99"/>
    <polygon transform="matrix(0 -.35604 .35604 0 4922.6 -378.6)" points="5 5 0 0 5 -5" display="block" opacity=".99"/>
    <text x="4990.7163" y="-509.82208" font-family="Verdana" font-size="6.8965px" opacity=".99" stroke-width=".32327" text-align="center" text-anchor="middle" style="line-height:1.25" xml:space="preserve"><tspan x="4990.7163" y="-509.82208" font-family="Verdana" font-size="6.8965px" stroke-width=".32327">HALLWAY</tspan></text>
    <text x="4990.7969" y="-500.91464" font-family="Verdana" font-size="6.8965px" opacity=".99" stroke-width=".32327" text-align="center" text-anchor="middle" style="line-height:1.25" xml:space="preserve"><tspan x="4990.7969" y="-500.91464" font-family="Verdana" font-size="6.8965px" stroke-width=".32327">2.13 m x 4.83 m</tspan></text>
    <polygon transform="matrix(-.35604 0 0 -.35604 5023.8 -506.84)" points="5 5 0 0 5 -5" display="block" opacity=".99"/>
    <polygon transform="matrix(.35604 0 0 -.35604 4954.7 -506.84)" points="0 0 5 -5 5 5" display="block" opacity=".99"/>
    <polygon transform="matrix(0 .35604 .35604 0 4990.9 -534.67)" points="0 0 5 -5 5 5" display="block" opacity=".99"/>
    <polygon transform="matrix(0 -.35604 .35604 0 4985.4 -378.6)" points="0 0 5 -5 5 5" display="block" opacity=".99"/>
    <text x="4961.6216" y="-620.70544" font-family="Verdana" font-size="6.8965px" opacity=".99" stroke-width=".32327" text-align="center" text-anchor="middle" style="line-height:1.25" xml:space="preserve"><tspan x="4961.6216" y="-620.70544" font-family="Verdana" font-size="6.8965px" stroke-width=".32327">OFFICE</tspan></text>
    <text x="4961.7021" y="-611.79797" font-family="Verdana" font-size="6.8965px" opacity=".99" stroke-width=".32327" text-align="center" text-anchor="middle" style="line-height:1.25" xml:space="preserve"><tspan x="4961.7021" y="-611.79797" font-family="Verdana" font-size="6.8965px" stroke-width=".32327">6.53 m x 4.85 m</tspan></text>
    <polygon transform="matrix(-.35604 0 0 -.35604 5064.8 -617.73)" points="5 5 0 0 5 -5" display="block" opacity=".99"/>
    <polygon transform="matrix(.35604 0 0 -.35604 4853.8 -617.73)" points="0 0 5 -5 5 5" display="block" opacity=".99"/>
    <polygon transform="matrix(0 .35604 .35604 0 4961.8 -695.19)" points="0 0 5 -5 5 5" display="block" opacity=".99"/>
    <polygon transform="matrix(0 -.35604 .35604 0 4961.8 -537.95)" points="5 5 0 0 5 -5" display="block" opacity=".99"/>
    <text x="4173.3613" y="390.76999" font-family="Verdana" font-size="6.8965px" opacity=".99" stroke-width=".32327" text-align="center" text-anchor="middle" style="line-height:1.25" xml:space="preserve"><tspan x="4173.3613" y="390.76999" font-family="Verdana" font-size="6.8965px" stroke-width=".32327">MECHANICAL ROOM</tspan></text>
    <text x="4173.4414" y="399.67746" font-family="Verdana" font-size="6.8965px" opacity=".99" stroke-width=".32327" text-align="center" text-anchor="middle" style="line-height:1.25" xml:space="preserve"><tspan x="4173.4414" y="399.67746" font-family="Verdana" font-size="6.8965px" stroke-width=".32327">3.58 m x 5.72 m</tspan></text>
    <polygon transform="matrix(-.35604 0 0 -.35604 4229 393.75)" points="5 -5 5 5 0 0" display="block" opacity=".99"/>
    <polygon transform="matrix(.35604 0 0 -.35604 4113.4 393.75)" points="5 5 0 0 5 -5" display="block" opacity=".99"/>
    <polygon transform="matrix(0 .35604 .35604 0 4131.7 297.98)" points="5 5 0 0 5 -5" display="block" opacity=".99"/>
    <polygon transform="matrix(0 -.35604 .35604 0 4145.9 482.73)" points="0 0 5 -5 5 5" display="block" opacity=".99"/>
    <g font-family="Verdana" font-size="6.8965px" stroke-width=".32327" text-anchor="middle">
     <text x="4168.1152" y="515.43488" opacity=".99" text-align="center" style="line-height:1.25" xml:space="preserve"><tspan x="4168.1152" y="515.43488" font-family="Verdana" font-size="6.8965px" stroke-width=".32327">OPEN TO BELOW</tspan></text>
     <text x="4199.0562" y="315.64719" opacity=".99" text-align="center" style="line-height:1.25" xml:space="preserve"><tspan x="4199.0562" y="315.64719" font-family="Verdana" font-size="6.8965px" stroke-width=".32327">OPEN TO BELOW</tspan></text>
     <text x="4354.1787" y="406.0405" opacity=".99" text-align="center" style="line-height:1.25" xml:space="preserve"><tspan x="4354.1787" y="406.0405" font-family="Verdana" font-size="6.8965px" stroke-width=".32327">OPEN TO BELOW</tspan></text>
     <text x="4700.6265" y="-155.75941" opacity=".99" text-align="center" style="line-height:1.25" xml:space="preserve"><tspan x="4700.6265" y="-155.75941" font-family="Verdana" font-size="6.8965px" stroke-width=".32327">OPEN TO BELOW</tspan></text>
     <text x="4249.6377" y="-165.06621" opacity=".99" text-align="center" style="line-height:1.25" xml:space="preserve"><tspan x="4249.6377" y="-165.06621" font-family="Verdana" font-size="6.8965px" stroke-width=".32327">OPEN TO BELOW</tspan></text>
    </g>
    <g stroke="#000">
     <g transform="rotate(-90,1421.4,-2517.5)" fill="#fff" opacity="1">
      <g transform="matrix(0 -.42212 .34096 0 -880.44 1131.1)">
       <polygon transform="matrix(.5 0 0 1 45 0)" points="0 65 0 0 90 0 90 65" fill="#fff" stroke-width="1.2051"/>
      </g>
      <rect transform="rotate(-90)" x="-1112.1" y="-858.92" width="18.688" height="1.2327" stroke-width=".32328"/>
     </g>
     <g transform="matrix(.21876 0 0 .3966 4944.8 -695.74)" fill="#f0f0ff" opacity=".99">
      <polygon points="45.28 544.03 30.28 544.03 30.28 640.89 45.28 640.89"/>
      <polygon points="30.28 640.89 45.28 640.89 45.28 544.03 30.28 544.03" stroke-width=".94769"/>
      <line x1="37.782" x2="37.782" y1="633.39" y2="551.53"/>
      <line x1="45.282" x2="30.282" y1="633.39" y2="633.39" stroke-width=".94769"/>
      <line x1="45.282" x2="30.282" y1="551.53" y2="551.53" stroke-width=".94769"/>
     </g>
     <g transform="matrix(0 -.33429 .31133 0 4605.5 -221.68)" display="block" fill="#f0f0ff" opacity=".99">
      <polygon points="988.26 797.26 1142.2 797.26 1142.2 782.26 988.26 782.26"/>
      <g display="block">
       <polygon points="988.26 782.26 988.26 797.26 1142.2 797.26 1142.2 782.26" stroke-width=".9099"/>
      </g>
      <g display="block">
       <line x1="1134.7" x2="995.76" y1="789.76" y2="789.76"/>
       <line x1="1134.7" x2="1134.7" y1="782.26" y2="797.26"/>
       <line x1="995.76" x2="995.76" y1="782.26" y2="797.26"/>
      </g>
     </g>
    </g>
   </g>
   <g transform="matrix(0 .1831 .41665 0 -126.61 -107.19)">
    <g transform="translate(-221.27 -101.72)">
     <g transform="translate(-656.05 461.66)" fill="#fff">
      <rect x="-196.58" y="1147.4" width="200.6" height="10.959" stroke="#fff" stroke-width=".29575"/>
      <g transform="matrix(1 0 0 -1 0 2306.9)" stroke="#000">
       <rect x="-196.57" y="1150.7" width="200.58" height="5.4984" stroke-width=".32311"/>
       <g stroke-width=".32328">
        <path d="m4.0426 1151.6h-200.52"/>
        <path d="m4.0219 1152.5h-200.64"/>
        <path d="m4.0503 1153.5h-200.61"/>
       </g>
      </g>
     </g>
     <path d="m-651.88 1617.4h1.9002" fill="none" stroke="#000" stroke-width=".32328px"/>
    </g>
    <path d="m-1076 1515.7h1.9001" fill="none" stroke="#000" stroke-width=".32328px"/>
   </g>
  </g>
 </g>
</svg>
